<?xml version="1.0" standalone="no"?>
<!DOCTYPE svg PUBLIC "-//W3C//DTD SVG 1.1//EN" "http://www.w3.org/Graphics/SVG/1.1/DTD/svg11.dtd" >
<svg xmlns="http://www.w3.org/2000/svg" xmlns:xlink="http://www.w3.org/1999/xlink" version="1.1">
<metadata>
Created by FontForge 20170731 at Wed Feb 16 14:29:23 2022
 By Aleksey,,,
Copyright (c) 2021-2022, Dmitri Voloshin, Andrey Kudryavtsev
</metadata>
<defs>
<font id="Onest-ExtraBold" horiz-adv-x="670" >
  <font-face 
    font-family="Onest ExtraBold"
    font-weight="800"
    font-stretch="normal"
    units-per-em="1000"
    panose-1="0 0 0 0 0 0 0 0 0 0"
    ascent="800"
    descent="-200"
    x-height="527"
    cap-height="708"
    bbox="-82 -304 2840 955"
    underline-thickness="50"
    underline-position="-150"
    unicode-range="U+000D-E022"
  />
<missing-glyph horiz-adv-x="193" 
 />
    <glyph glyph-name=".notdef" horiz-adv-x="193" 
 />
    <glyph glyph-name=".null" horiz-adv-x="0" 
 />
    <glyph glyph-name=".null" horiz-adv-x="0" 
 />
    <glyph glyph-name="uni000D" unicode="&#xd;" horiz-adv-x="193" 
 />
    <glyph glyph-name="space" unicode=" " horiz-adv-x="280" 
 />
    <glyph glyph-name="exclam" unicode="!" horiz-adv-x="320" 
d="M233 242h-145l-12 466h170zM161 179q40 0 67.5 -24t27.5 -71q0 -23 -8 -40.5t-21 -29t-30 -17.5t-36 -6q-39 0 -68 23t-29 70t28.5 71t68.5 24z" />
    <glyph glyph-name="quotedbl" unicode="&#x22;" horiz-adv-x="437" 
d="M367 425h-106l-20 283h150zM171 425h-106l-19 283h148z" />
    <glyph glyph-name="numbersign" unicode="#" horiz-adv-x="686" 
d="M548 542h92v-136h-108l-13 -105h92v-136h-108q-6 -43 -11 -83t-10 -82h-128l19 165h-105l-20 -165h-131l21 165h-92v136h108l13 105h-93v136h109l21 166h128l-19 -166h105l21 166h129zM390 301l12 105h-106l-12 -105h106z" />
    <glyph glyph-name="dollar" unicode="$" horiz-adv-x="674" 
d="M457 486q-5 44 -39 63.5t-82 21.5q-19 1 -38 -1.5t-34.5 -9.5t-25 -19.5t-9.5 -32.5q0 -25 19 -40t50 -24q47 -14 79 -20t60 -13q40 -10 75 -22.5t60.5 -33.5t40 -54.5t14.5 -84.5q0 -54 -18 -93t-48 -65.5t-70 -41t-84 -19.5v-137h-145v141q-95 20 -153.5 78t-62.5 158
h161q4 -26 18 -44t34 -29.5t44.5 -16.5t49.5 -5q21 0 41.5 3t36 10t25.5 19.5t10 31.5q0 27 -20.5 39t-46.5 19q-5 1 -11.5 2.5t-17 4t-26 6t-39.5 8.5q-56 12 -99.5 28.5t-74.5 42t-47 61t-16 85.5q0 48 16.5 84.5t43.5 62t63 41t75 20.5v142h144v-143q44 -5 80.5 -23
t63.5 -46.5t42 -67.5t17 -86h-156z" />
    <glyph glyph-name="percent" unicode="%" horiz-adv-x="907" 
d="M225 361q-41 0 -74.5 13t-56.5 36.5t-35.5 56.5t-12.5 73t13 73.5t36 57t56 36.5t74 13q82 0 130.5 -48.5t48.5 -131.5q0 -40 -13 -73t-36 -56.5t-56.5 -36.5t-73.5 -13zM138 0l466 708h160l-463 -708h-163zM225 603q-32 0 -46 -18.5t-14 -42.5q0 -26 13 -45.5t47 -19.5
q32 0 45.5 19t13.5 44q0 24 -13.5 43.5t-45.5 19.5zM682 -11q-41 0 -74 13t-56.5 36.5t-36.5 56t-13 72.5q0 41 13 74.5t36.5 57t56.5 36.5t74 13q82 0 130.5 -48.5t48.5 -132.5q0 -40 -13 -72.5t-36.5 -56t-56.5 -36.5t-73 -13zM682 231q-31 0 -45.5 -19t-14.5 -44
q0 -26 13 -45t47 -19q32 0 45.5 19t13.5 44t-13.5 44.5t-45.5 19.5z" />
    <glyph glyph-name="ampersand" unicode="&#x26;" horiz-adv-x="731" 
d="M526 0l-47 48q-39 -32 -89.5 -46t-105.5 -14q-45 0 -86.5 12t-73.5 37t-51 63t-19 90q0 68 33.5 114t81.5 75q-27 29 -44 64t-17 77q0 49 17.5 85.5t48 60.5t70.5 36t85 12q37 -2 72 -13.5t61 -33.5t42 -53.5t16 -72.5q0 -34 -11 -61.5t-29 -51t-41.5 -42t-48.5 -34.5
l92 -100q11 22 16.5 47.5t6.5 44.5h135q-5 -51 -19 -98.5t-42 -91.5l141 -154h-194zM297 441q14 7 28 17.5t25.5 22t19 24.5t7.5 25q0 22 -15.5 39.5t-45.5 17.5q-33 0 -51 -17.5t-18 -43.5q0 -23 14.5 -44t35.5 -41zM260 287q-34 -22 -48 -44.5t-14 -45.5q0 -21 9 -35.5
t23.5 -23.5t33.5 -13t39 -4q24 0 47.5 7.5t39.5 18.5z" />
    <glyph glyph-name="quotesingle" unicode="'" horiz-adv-x="260" 
d="M182 425h-106l-22 283h152z" />
    <glyph glyph-name="parenleft" unicode="(" horiz-adv-x="366" 
d="M52 308q0 134 40.5 261t124.5 237h192q-50 -53 -86.5 -113t-60.5 -124.5t-36 -130.5t-13 -130q1 -64 13 -130t36 -130t60.5 -124.5t86.5 -112.5h-192q-84 109 -124.5 236t-40.5 261z" />
    <glyph glyph-name="parenright" unicode=")" horiz-adv-x="366" 
d="M314 308q0 -134 -41 -261t-124 -236h-192q49 52 86 112.5t61 124.5t36 130t13 130q-1 64 -13 130t-36 130.5t-61 124.5t-86 113h192q83 -110 124 -237t41 -261z" />
    <glyph glyph-name="asterisk" unicode="*" horiz-adv-x="487" 
d="M189 627q-3 26 -5.5 50.5t-4.5 49.5h129q-3 -25 -5.5 -49.5t-4.5 -50.5l93 41l40 -123l-99 -22q9 -9 17 -19l50 -57l-105 -76l-51 87l-51 -87l-105 76l68 76l-99 22l40 123z" />
    <glyph glyph-name="plus" unicode="+" horiz-adv-x="604" 
d="M370 292v-175h-137v175h-172v138h172v173h137v-173h173v-138h-173z" />
    <glyph glyph-name="comma" unicode="," horiz-adv-x="322" 
d="M148 -9q-34 3 -59 25.5t-25 64.5q0 47 30 71t70 24q52 0 78.5 -37t24.5 -91q-1 -39 -16 -75.5t-39 -66t-54 -50.5t-61 -31l-43 65q13 7 27.5 18t28 24.5t23.5 28.5t15 30z" />
    <glyph glyph-name="hyphen" unicode="-" horiz-adv-x="467" 
d="M406 224h-345v138h345v-138z" />
    <glyph glyph-name="period" unicode="." horiz-adv-x="297" 
d="M149 180q40 0 67 -25t27 -72q0 -48 -27 -72t-67 -24q-41 0 -68 24t-27 72q0 46 27.5 71.5t67.5 25.5z" />
    <glyph glyph-name="slash" unicode="/" horiz-adv-x="519" 
d="M26 -165q78 238 156 473t157 473h154l-313 -946h-154z" />
    <glyph glyph-name="zero" unicode="0" horiz-adv-x="657" 
d="M331 717q70 0 123 -25t88.5 -72t53.5 -114t18 -151q0 -85 -17.5 -152t-53 -113.5t-89 -71.5t-125.5 -25t-126 25t-89 71.5t-52.5 113.5t-17.5 152q0 84 18 151.5t54 114t90 71.5t125 25zM329 141q36 0 60.5 17t38.5 46.5t20 68t6 82.5q0 42 -5.5 80.5t-20 68t-38 46.5
t-59.5 17q-37 0 -61.5 -17t-39 -46t-20.5 -67.5t-6 -81.5t5.5 -82t20 -68t38.5 -46.5t61 -17.5z" />
    <glyph glyph-name="one" unicode="1" horiz-adv-x="408" 
d="M314 0h-163v504h-139v120q60 0 107 18.5t75 65.5h120v-708z" />
    <glyph glyph-name="two" unicode="2" horiz-adv-x="557" 
d="M22 133q48 39 95.5 78.5t95.5 81.5q68 60 90.5 83t38 50.5t15.5 58.5q0 34 -21.5 57.5t-66.5 23.5q-51 0 -73.5 -22t-27.5 -53h-151q2 56 23 98.5t56 70.5t81.5 42t99.5 14q49 0 93.5 -14t77.5 -41.5t52.5 -68.5t19.5 -96q0 -59 -25.5 -110t-64.5 -92t-85 -77.5
t-88 -69.5h255v-147h-490v133z" />
    <glyph glyph-name="three" unicode="3" horiz-adv-x="620" 
d="M40 497q5 57 27.5 98.5t57.5 68.5t80.5 40t97.5 13q46 0 90.5 -10.5t79 -33.5t55.5 -59.5t21 -89.5q0 -43 -21.5 -81t-57.5 -59q53 -20 79.5 -65.5t25.5 -102.5q-1 -65 -26.5 -108t-66.5 -69t-87.5 -36t-92.5 -10q-115 0 -195 59.5t-87 170.5h160q10 -44 45 -62.5
t79 -18.5q20 0 38.5 4t32.5 13.5t22.5 25t8.5 37.5q0 28 -19 49t-67 21h-82v134h55q29 0 47 8.5t27.5 20.5t12 25.5t2.5 22.5q-1 31 -24.5 48.5t-59.5 17.5q-41 0 -67.5 -19t-32.5 -53h-158z" />
    <glyph glyph-name="four" unicode="4" horiz-adv-x="637" 
d="M537 272h76v-145h-76v-127h-163v127h-345v120l317 461h191v-436zM213 272h161v247z" />
    <glyph glyph-name="five" unicode="5" horiz-adv-x="617" 
d="M61 297q7 103 14.5 206.5t12.5 204.5h460v-146h-318q-2 -29 -4.5 -59t-5.5 -59q32 17 63.5 23.5t62.5 6.5q55 0 98 -16.5t72.5 -46.5t44.5 -72.5t15 -94.5q0 -60 -20.5 -106.5t-56 -79t-84.5 -49t-106 -16.5q-111 0 -179 53.5t-81 172.5h159q7 -32 32.5 -53.5t65.5 -23.5
q55 0 80 27t25 69q0 18 -6.5 35.5t-19.5 31t-31.5 22t-43.5 8.5q-32 0 -58 -10t-49 -28h-142z" />
    <glyph glyph-name="six" unicode="6" horiz-adv-x="625" 
d="M430 509q-8 29 -33 45t-61 16t-63 -15.5t-44.5 -40t-26 -56t-8.5 -63.5q17 20 38 33.5t42.5 21.5t43 11.5t39.5 3.5q106 0 166.5 -58.5t60.5 -168.5q0 -57 -20.5 -102t-55 -76.5t-80 -48.5t-96.5 -17q-79 0 -134 28.5t-89 76.5t-49 111t-15 132q0 70 15 135.5t51.5 120
t94.5 86t137 32.5q48 0 88 -12t72.5 -37.5t53.5 -64.5t26 -93h-153zM323 139q46 0 72.5 27.5t26.5 65.5q0 42 -24.5 69.5t-75.5 26.5q-41 -1 -67.5 -27t-28.5 -62q0 -19 5.5 -37t17.5 -31.5t30.5 -22t43.5 -9.5z" />
    <glyph glyph-name="seven" unicode="7" horiz-adv-x="516" 
d="M60 0l260 559h-321v149h507v-119l-264 -589h-182z" />
    <glyph glyph-name="eight" unicode="8" horiz-adv-x="628" 
d="M584 206q-1 -58 -24.5 -98.5t-61.5 -66t-86 -37.5t-97 -12q-51 0 -99 12t-86 37.5t-61.5 66.5t-24.5 100q0 60 23.5 104.5t77.5 68.5q-35 23 -55 59.5t-20 78.5q0 55 21 92.5t55.5 61t78.5 34t91 10.5q46 0 90 -10.5t77.5 -34.5t54 -61.5t20.5 -91.5q0 -42 -21 -79.5
t-55 -58.5q53 -23 77.5 -67.5t24.5 -107.5zM314 578q-41 0 -64 -20t-23 -56q0 -35 23.5 -56t63.5 -21q42 0 64 21.5t22 56.5t-24 55t-62 20zM421 221q0 43 -31 64t-77 21t-77 -21.5t-31 -63.5q0 -22 8.5 -38.5t23.5 -27t35 -16t42 -5.5t41.5 5.5t34 16t23 27t8.5 38.5z" />
    <glyph glyph-name="nine" unicode="9" horiz-adv-x="623" 
d="M198 199q8 -30 37 -45t64 -15q32 0 56.5 14t40.5 38t24.5 54.5t9.5 63.5q-17 -19 -37 -31.5t-41 -20t-42 -10.5t-39 -3q-52 0 -94.5 15.5t-72.5 45t-46.5 71t-16.5 93.5q0 60 21 106t57 77t84 47t102 16q80 0 133 -32.5t84.5 -84.5t44.5 -117.5t13 -131.5
q0 -69 -15 -133.5t-49 -114t-87.5 -79t-130.5 -29.5q-49 0 -93 12t-78 37.5t-56 64.5t-28 92h155zM304 570q-48 0 -75.5 -25.5t-27.5 -67.5t26.5 -69t75.5 -27q24 0 42.5 8t31 21t18.5 29.5t6 33.5q0 43 -27 70t-70 27z" />
    <glyph glyph-name="colon" unicode=":" horiz-adv-x="300" 
d="M150 528q42 0 69 -26.5t27 -71.5q0 -48 -27 -72t-69 -24q-41 0 -68.5 24t-27.5 72q0 45 28 71.5t68 26.5zM150 184q42 0 69 -26t27 -71q0 -48 -27 -72t-69 -24q-41 0 -68.5 24t-27.5 72q0 45 28 71t68 26z" />
    <glyph glyph-name="semicolon" unicode=";" horiz-adv-x="321" 
d="M165 528q41 0 68 -26.5t27 -71.5q0 -48 -27 -72t-68 -24q-42 0 -69.5 24t-27.5 72q0 45 28 71.5t69 26.5zM148 -8q-35 3 -59 26t-24 64q0 48 29 71.5t70 23.5q27 0 46 -10t32 -27.5t19 -40.5t6 -48q0 -39 -14 -75t-37.5 -66t-54 -52t-63.5 -33l-44 66q13 7 28 18.5t28 25
t23 28.5t15 29z" />
    <glyph glyph-name="less" unicode="&#x3c;" horiz-adv-x="499" 
d="M443 491l-222 -128l222 -131v-161l-417 247v80l417 250v-157z" />
    <glyph glyph-name="equal" unicode="=" horiz-adv-x="576" 
d="M56 410v137h464v-137h-464zM56 156v138h464v-138h-464z" />
    <glyph glyph-name="greater" unicode="&#x3e;" horiz-adv-x="498" 
d="M56 230l221 129l-221 130v160l416 -246v-80l-416 -251v158z" />
    <glyph glyph-name="question" unicode="?" horiz-adv-x="540" 
d="M184 233q-2 12 -2.5 22.5t-0.5 20.5q1 30 13 53.5t29 43t37.5 36t37.5 32.5t28.5 32.5t11.5 36.5q0 29 -19 44.5t-54 15.5q-40 0 -63 -16.5t-25 -54.5h-153q0 104 63 161t181 57q44 0 85.5 -10t73.5 -33t51.5 -59.5t19.5 -89.5q-1 -21 -6 -40t-16 -39t-30 -42.5
t-48 -50.5q-27 -27 -48 -53.5t-20 -66.5h-146zM260 181q41 0 68.5 -24t27.5 -71q0 -48 -27.5 -71.5t-68.5 -23.5q-42 0 -69.5 23.5t-27.5 71.5q0 47 27.5 71t69.5 24z" />
    <glyph glyph-name="at" unicode="@" horiz-adv-x="1005" 
d="M480 -162q-93 1 -171 30.5t-134 83.5t-87 132t-31 177q0 116 37.5 203.5t102 145.5t150 87t180.5 29q93 0 171 -27.5t133.5 -80t86.5 -129t31 -174.5q0 -52 -11.5 -100.5t-35.5 -86t-61 -60.5t-88 -24q-17 0 -36.5 3t-38 12t-34 25.5t-25.5 42.5q-13 -20 -31 -35
t-38 -24.5t-41.5 -14t-40.5 -4.5q-46 0 -81 17t-59 47t-36.5 70t-12.5 87q1 55 18 100t46.5 77.5t69 50.5t86.5 18q18 0 37 -3.5t37 -11.5t32.5 -21.5t22.5 -32.5l20 47l88 -11q-14 -72 -24.5 -135.5t-10.5 -112.5q0 -12 2 -24.5t7.5 -22t15 -16t25.5 -7.5q22 0 36 15t22 37
t10.5 47.5t2.5 47.5q0 67 -19.5 120t-57 90.5t-92.5 57.5t-126 20q-81 0 -143 -25t-104.5 -69t-65 -103.5t-23.5 -129.5q0 -66 19 -121.5t56 -96t92 -63.5t127 -23q41 0 68.5 4t57.5 12l18 -128q-72 -19 -149 -19zM402 280q0 -44 20.5 -77t66.5 -35q29 0 48 13t30.5 32.5
t16 42.5t4.5 43q0 18 -4.5 35.5t-14.5 31.5t-25 22.5t-36 8.5q-26 0 -45.5 -9.5t-32.5 -25.5t-20 -37.5t-8 -44.5z" />
    <glyph glyph-name="A" unicode="A" horiz-adv-x="730" 
d="M219 117l-43 -117h-176l279 708h174l275 -708h-177l-42 117h-290zM269 263h190q-23 67 -46.5 133.5t-47.5 133.5z" />
    <glyph glyph-name="B" unicode="B" horiz-adv-x="692" 
d="M73 0v708h333q43 0 82.5 -9.5t69.5 -31t48 -56.5t18 -86q0 -44 -17.5 -80.5t-55.5 -59.5q52 -20 78.5 -63.5t26.5 -104.5q0 -66 -27.5 -108t-70 -66t-95.5 -33.5t-105 -9.5h-285zM351 427q50 0 81.5 15.5t31.5 55.5q0 20 -8.5 32.5t-22 19t-31 8.5t-36.5 2h-130v-133h115
zM236 147h123q28 0 52.5 3t42.5 11t28.5 23.5t10.5 40.5q0 22 -9.5 35.5t-25.5 20.5t-37 9t-44 2h-141v-145z" />
    <glyph glyph-name="C" unicode="C" horiz-adv-x="719" 
d="M203 356q0 -40 10 -78t31.5 -68t56 -48.5t82.5 -18.5q62 0 100.5 27t49.5 77h157q-5 -63 -32 -110.5t-69 -79.5t-96 -48t-112 -16q-83 0 -147 26t-108.5 73.5t-67.5 114t-23 148.5q0 80 24 146.5t68.5 114.5t109 74.5t145.5 26.5q60 0 112.5 -15.5t93 -47t66.5 -79.5
t32 -114h-155q-12 50 -49 78t-99 28q-49 0 -83 -17.5t-55.5 -47t-31.5 -67.5t-10 -79z" />
    <glyph glyph-name="D" unicode="D" horiz-adv-x="738" 
d="M74 0v708h269q83 0 149.5 -22.5t113 -67.5t71.5 -111t25 -153q0 -175 -91.5 -264.5t-263.5 -89.5h-273zM349 147q51 0 86.5 14.5t58 41.5t32.5 65t10 85q0 102 -47.5 154t-147.5 52h-104v-412h112z" />
    <glyph glyph-name="E" unicode="E" horiz-adv-x="629" 
d="M594 708v-149h-357v-136h303v-145h-303v-131h357v-147h-520v708h520z" />
    <glyph glyph-name="F" unicode="F" horiz-adv-x="606" 
d="M582 708v-149h-345v-156h287v-146h-287v-257h-163v708h508z" />
    <glyph glyph-name="G" unicode="G" horiz-adv-x="740" 
d="M203 355q0 -41 10 -79.5t32.5 -68t58 -47t85.5 -17.5q27 0 52.5 6t46 19t34 33.5t17.5 48.5h-173v135h339q0 -40 -2.5 -79t-10 -75.5t-22.5 -70.5t-40 -64q-41 -49 -104 -76t-141 -27q-83 0 -148 26t-110 73.5t-68.5 114t-23.5 147.5q0 83 23.5 150t68.5 114.5t110 73
t148 25.5q58 0 110.5 -15.5t94 -46.5t68.5 -78t34 -110h-160q-10 49 -49 74.5t-97 25.5q-50 0 -85 -18.5t-56.5 -48.5t-31.5 -68t-10 -77z" />
    <glyph glyph-name="H" unicode="H" horiz-adv-x="759" 
d="M237 423h285v285h163v-708h-163v276h-285v-276h-163v708h163v-285z" />
    <glyph glyph-name="I" unicode="I" horiz-adv-x="311" 
d="M237 0h-163v708h163v-708z" />
    <glyph glyph-name="J" unicode="J" horiz-adv-x="602" 
d="M533 254q0 -127 -59.5 -194t-184.5 -67t-192.5 66.5t-67.5 184.5v9h163q0 -20 4 -40t14.5 -36t28.5 -26t45 -10q46 0 66 29.5t20 69.5v468h163v-454z" />
    <glyph glyph-name="K" unicode="K" horiz-adv-x="691" 
d="M237 278v-278h-163v708h163v-282h86l179 282h187l-230 -338l231 -370h-190l-168 278h-95z" />
    <glyph glyph-name="L" unicode="L" horiz-adv-x="607" 
d="M237 147h343v-147h-506v708h163v-561z" />
    <glyph glyph-name="M" unicode="M" horiz-adv-x="914" 
d="M268 708l193 -322l191 322h188v-708h-163v469l-185 -308h-68l-187 308v-469h-163v708h194z" />
    <glyph glyph-name="N" unicode="N" horiz-adv-x="784" 
d="M230 708l317 -438v438h163v-708h-153l-320 435v-435h-163v708h156z" />
    <glyph glyph-name="O" unicode="O" horiz-adv-x="782" 
d="M392 717q81 0 146.5 -25.5t112 -73t71.5 -113.5t25 -147q0 -80 -25 -147t-71.5 -116t-112.5 -76t-148 -26q-83 0 -148.5 26.5t-111.5 74.5t-70.5 114.5t-24.5 146.5q0 81 25.5 147.5t72 114.5t112.5 74t147 26zM202 356q0 -41 11.5 -79t35 -67.5t59.5 -47.5t86 -19
q48 0 83 18t58 48t34 68t11 77t-10.5 77t-33.5 68t-58.5 49t-85.5 19q-49 0 -85 -18t-59 -47.5t-34.5 -67.5t-11.5 -78z" />
    <glyph glyph-name="P" unicode="P" horiz-adv-x="674" 
d="M358 708q62 0 113.5 -13t88.5 -42t57.5 -76t20.5 -115q0 -65 -21 -113t-58.5 -80.5t-88.5 -48.5t-110 -16h-123v-204h-163v708h284zM356 348q54 0 87 27t35 78q0 57 -31 81.5t-92 24.5h-118v-211h119z" />
    <glyph glyph-name="Q" unicode="Q" horiz-adv-x="783" 
d="M619 -111q-25 32 -49.5 63t-50.5 63q-29 -11 -62.5 -16.5t-65.5 -5.5q-83 0 -149 26.5t-112 74t-70.5 114t-24.5 146.5q0 81 25.5 148t72 114.5t112.5 74t148 26.5q81 0 146.5 -25.5t112 -72.5t71.5 -113.5t25 -147.5t-25 -144.5t-71 -111.5q12 -14 23 -29l69 -88z
M202 356q0 -41 11 -79t34 -68t59.5 -48t86.5 -18q48 0 83.5 18t58.5 48t34.5 68t11.5 78t-11 78t-34 68t-59 48t-85 18q-50 0 -85.5 -18.5t-59 -48t-34.5 -67.5t-11 -77z" />
    <glyph glyph-name="R" unicode="R" horiz-adv-x="701" 
d="M367 708q49 0 99 -9t90 -34t65 -69.5t25 -114.5q-2 -78 -38 -135t-107 -79l160 -267h-184l-139 246h-101v-246h-163v708h293zM366 387q53 0 85 20t34 68q1 25 -8 41.5t-24.5 26t-37 13t-46.5 3.5h-132v-172h129z" />
    <glyph glyph-name="S" unicode="S" horiz-adv-x="665" 
d="M445 492q-6 38 -37.5 58t-82.5 20q-18 0 -35.5 -3.5t-31.5 -11t-22.5 -19.5t-8.5 -28q0 -17 7.5 -28t22 -19t35 -14t46.5 -13q52 -14 102 -25t89.5 -32t64 -58t26.5 -103q0 -59 -22 -101.5t-59.5 -69.5t-87.5 -40t-105 -13t-107 12.5t-94 41t-69 73.5t-32 110h165
q6 -25 20 -41.5t33.5 -26.5t44 -14.5t50.5 -4.5q16 0 34 3t32 10.5t23.5 20t9.5 30.5q0 26 -18.5 39.5t-46.5 20.5q-68 15 -127 30t-103.5 39t-70 63t-25.5 103t26 106t66.5 66.5t90.5 34t98 9.5q52 -2 96.5 -15.5t78.5 -41.5t55.5 -69.5t27.5 -98.5h-159z" />
    <glyph glyph-name="T" unicode="T" horiz-adv-x="605" 
d="M5 559v149h595v-149h-216v-559h-163v559h-216z" />
    <glyph glyph-name="U" unicode="U" horiz-adv-x="755" 
d="M377 -8q-81 0 -139.5 22.5t-96 65.5t-55 105t-17.5 142v381h163v-393q0 -34 7 -65.5t24 -55.5t45.5 -38.5t70.5 -14.5q43 0 71 15t44.5 39t22.5 55.5t6 64.5v393h163v-381q0 -79 -17.5 -141.5t-55 -105.5t-96 -65.5t-140.5 -22.5z" />
    <glyph glyph-name="V" unicode="V" horiz-adv-x="717" 
d="M539 708h177l-276 -708h-164l-275 708h179l182 -504z" />
    <glyph glyph-name="W" unicode="W" horiz-adv-x="995" 
d="M389 0h-213l-176 708h184l100 -502l111 502h208l109 -502l100 502h183l-176 -708h-215l-107 492z" />
    <glyph glyph-name="X" unicode="X" horiz-adv-x="693" 
d="M496 708h190l-239 -354l245 -354h-193l-154 234l-160 -234h-184l248 355l-240 353h193l148 -235z" />
    <glyph glyph-name="Y" unicode="Y" horiz-adv-x="704" 
d="M355 414q41 74 81.5 147t82.5 147h184l-268 -444v-264h-163v263l-271 445h188z" />
    <glyph glyph-name="Z" unicode="Z" horiz-adv-x="635" 
d="M39 559v149h565v-128l-363 -433h356v-147h-566v128l363 431h-355z" />
    <glyph glyph-name="bracketleft" unicode="[" horiz-adv-x="369" 
d="M74 781h273v-136h-120v-675h120v-136h-273v947z" />
    <glyph glyph-name="backslash" unicode="\" horiz-adv-x="520" 
d="M339 -166l-313 947h154l314 -947h-155z" />
    <glyph glyph-name="bracketright" unicode="]" horiz-adv-x="368" 
d="M294 -166h-272v136h119v675h-119v136h272v-947z" />
    <glyph glyph-name="asciicircum" unicode="^" horiz-adv-x="560" 
d="M363 444l-84 141l-86 -141h-147l176 265h110l182 -265h-151z" />
    <glyph glyph-name="underscore" unicode="_" horiz-adv-x="432" 
d="M-16 -153v136h464v-136h-464z" />
    <glyph glyph-name="grave" unicode="`" horiz-adv-x="417" 
d="M188 584l-152 195h168l117 -195h-133z" />
    <glyph glyph-name="a" unicode="a" horiz-adv-x="580" 
d="M381 0l-1 68q-18 -25 -42.5 -41.5t-54 -25.5t-72.5 -9q-35 0 -65.5 9.5t-55.5 31t-39.5 52.5t-14.5 73q0 45 21 79.5t55 52.5t77.5 24.5t91.5 6.5h94q0 37 -21.5 60t-63.5 23q-29 1 -54 -10t-30 -35h-160q6 48 28 82.5t55.5 56t74 31t84.5 9.5q71 0 117 -20t73.5 -54.5
t38 -81.5t10.5 -98v-284h-146zM376 223h-92q-43 0 -66.5 -14t-23.5 -41q0 -26 18.5 -40t49.5 -14q22 0 42.5 6.5t37 20.5t25.5 34.5t9 47.5z" />
    <glyph glyph-name="b" unicode="b" horiz-adv-x="642" 
d="M212 467q32 35 76 53t93 18q53 0 95.5 -19.5t72 -55t44.5 -85t15 -110.5q0 -62 -14.5 -112.5t-44 -87t-72.5 -56.5t-98 -20t-95 17.5t-73 52.5l1 -62h-157v708h157v-241zM332 394q-29 0 -51 -10.5t-37.5 -28.5t-23.5 -40.5t-8 -47.5q0 -55 31 -93t92 -40q32 0 54 11
t35.5 29t19.5 41.5t6 50.5q0 24 -7 47t-21 41.5t-36 29t-54 10.5z" />
    <glyph glyph-name="c" unicode="c" horiz-adv-x="574" 
d="M298 134q36 0 58 17.5t27 43.5h162q-5 -53 -26 -91t-54.5 -63t-76.5 -37t-89 -12q-128 0 -196.5 71t-68.5 201q0 63 19 114t53.5 86.5t84 54.5t112.5 19q48 0 90 -13t73.5 -38.5t51 -64t24.5 -89.5h-159q-6 27 -28 43.5t-57 16.5q-30 0 -51 -11.5t-33 -30t-17 -42
t-5 -47.5q0 -27 5.5 -49.5t18.5 -40t33 -28t49 -10.5z" />
    <glyph glyph-name="d" unicode="d" horiz-adv-x="642" 
d="M438 0l-4 57q-31 -34 -68 -48.5t-93 -16.5q-59 0 -103 20.5t-74.5 57t-46 86t-15.5 106.5q0 60 17.5 110.5t49.5 87.5t77.5 57.5t105.5 20.5q44 0 81 -12t65 -37v219h158v-708h-150zM311 133q30 1 52.5 12t37.5 28.5t22 40.5t7 50q0 26 -7 49t-21.5 41t-37.5 28t-53 10
q-32 0 -54.5 -10.5t-37 -29t-21 -42t-6.5 -48.5q0 -27 7 -50t21.5 -40t37 -28t53.5 -11z" />
    <glyph glyph-name="e" unicode="e" horiz-adv-x="582" 
d="M300 123q31 0 52 10.5t31 29.5h160q-11 -46 -34 -78t-56 -53t-72.5 -30.5t-82.5 -9.5q-125 0 -194.5 71.5t-69.5 202.5q0 58 18.5 108t52 86.5t82 57t109.5 20.5t108 -19t79 -54t48.5 -83t16.5 -104q0 -16 -1.5 -30.5t-4.5 -31.5h-350q4 -38 29.5 -65t78.5 -28zM397 322
q0 37 -26.5 61t-72.5 24q-51 0 -76 -25.5t-28 -59.5h203z" />
    <glyph glyph-name="f" unicode="f" horiz-adv-x="390" 
d="M381 527v-141h-125v-386h-158v386h-79v141h79v55q0 92 46 133t142 41h95v-140h-73q-52 0 -52 -51v-38h125z" />
    <glyph glyph-name="g" unicode="g" horiz-adv-x="644" 
d="M430 55q-29 -39 -72.5 -51.5t-84.5 -12.5q-62 0 -107 21.5t-74 59t-43.5 86.5t-14.5 103q0 57 16.5 107.5t47.5 87.5t76.5 58.5t105.5 21.5q98 0 155 -61l15 52h140v-425q0 -33 -1 -66.5t-4.5 -65.5t-13 -62t-27.5 -57q-17 -31 -42.5 -52t-56.5 -34t-65 -19.5t-65 -6.5
q-47 0 -90.5 12t-78.5 36t-58.5 62t-31.5 90h164q5 -22 30 -38t63 -16q37 0 60 13.5t35.5 35.5t17 49.5t4.5 54.5v17zM311 133q31 0 54 11t38 29t22 41.5t7 51.5q0 53 -30.5 90t-89.5 37q-32 0 -55 -11t-37 -30.5t-20.5 -43.5t-6.5 -49q0 -26 7 -48.5t21 -39.5t37 -27.5
t53 -10.5z" />
    <glyph glyph-name="h" unicode="h" horiz-adv-x="618" 
d="M212 474q18 19 38.5 31.5t40.5 20t39 10t36 2.5q54 0 92.5 -18.5t62 -52t35 -79t11.5 -98.5v-290h-158v277q0 18 -4.5 38.5t-15.5 38.5t-30.5 29t-47.5 11q-29 0 -48 -11t-30.5 -29.5t-16 -40t-4.5 -42.5v-271h-157v708h157v-234z" />
    <glyph glyph-name="i" unicode="i" horiz-adv-x="287" 
d="M143 774q42 0 69.5 -25t27.5 -69q0 -46 -27.5 -70.5t-69.5 -24.5q-40 0 -68.5 24t-28.5 71q0 44 29 69t68 25zM222 0h-157v527h157v-527z" />
    <glyph glyph-name="j" unicode="j" horiz-adv-x="287" 
d="M143 775q41 0 69 -25t28 -70q0 -48 -28 -72t-69 -24t-69.5 24.5t-28.5 71.5q0 45 29 70t69 25zM63 527h157v-578q0 -91 -42 -135.5t-137 -44.5h-85v141h45q18 0 30 5.5t19.5 14t10 20t2.5 22.5v555z" />
    <glyph glyph-name="k" unicode="k" horiz-adv-x="580" 
d="M212 192v-192h-157v708h157v-376h61l112 195h180l-160 -251l173 -276h-185l-116 192h-65z" />
    <glyph glyph-name="l" unicode="l" horiz-adv-x="267" 
d="M212 0h-157v708h157v-708z" />
    <glyph glyph-name="m" unicode="m" horiz-adv-x="876" 
d="M210 465q32 42 70 57t75 15q46 0 80.5 -17.5t57.5 -59.5q35 43 76 60t86 17q47 0 79 -15t52.5 -42.5t30 -65t9.5 -83.5v-331h-157v300q0 13 -2 29t-9.5 30.5t-22 24.5t-38.5 10q-30 -1 -47.5 -17t-23.5 -39t-6 -46v-292h-157v296q0 10 -1 26t-8.5 31.5t-21.5 26t-39 10.5
q-28 0 -44.5 -11t-24.5 -28t-10 -37.5t-2 -39.5v-274h-157v527h143z" />
    <glyph glyph-name="n" unicode="n" horiz-adv-x="618" 
d="M210 469q35 38 76 53t79 16q50 0 87.5 -16.5t63.5 -45.5q29 -35 40 -82t11 -104v-290h-158v277q0 22 -4 43t-15 38t-30 26.5t-47 9.5q-30 -1 -50 -13t-31 -30.5t-15.5 -40.5t-4.5 -44v-266h-157v527h147z" />
    <glyph glyph-name="o" unicode="o" horiz-adv-x="608" 
d="M303 -8q-60 0 -109.5 18t-84.5 53t-55 86t-20 117q0 63 21 113.5t57 86t86 54t110 18.5t109 -18.5t83.5 -54t54 -86t19.5 -113.5q0 -66 -20 -117t-55 -86t-85 -53t-111 -18zM304 392q-30 0 -51.5 -10.5t-35.5 -29t-20.5 -41t-6.5 -46.5q0 -27 6.5 -50t20.5 -40.5
t35.5 -28t51.5 -10.5t51.5 11t35 28t19.5 40t6 50q0 24 -6 46.5t-19.5 41t-35 29t-51.5 10.5z" />
    <glyph glyph-name="p" unicode="p" horiz-adv-x="642" 
d="M211 465q32 39 74.5 56t89.5 17q54 0 97 -19.5t73.5 -55t46.5 -85t16 -109.5q0 -61 -15.5 -112t-45 -87.5t-73 -57t-97.5 -20.5q-105 0 -165 60v-262h-157v737h147zM332 394q-29 0 -51 -10.5t-37.5 -28.5t-23.5 -40.5t-8 -47.5q0 -55 31 -93t92 -40q32 0 54 11t35.5 29
t19.5 41.5t6 50.5q0 24 -7 47t-21 41.5t-36 29t-54 10.5z" />
    <glyph glyph-name="q" unicode="q" horiz-adv-x="643" 
d="M431 43q-29 -29 -69.5 -40.5t-81.5 -11.5q-61 0 -108 21.5t-77 58.5t-45.5 86t-15.5 106q0 60 18 110.5t51 87t80 57t106 20.5q45 0 83 -15t64 -48l11 52h142v-737h-158v253zM312 133q29 0 51.5 11t37 28.5t22 41t7.5 50.5q0 54 -29.5 91t-88.5 37q-30 0 -53 -10t-38 -28
t-22 -41t-7 -48q0 -27 7.5 -50.5t22 -41.5t37.5 -29t53 -11z" />
    <glyph glyph-name="r" unicode="r" horiz-adv-x="404" 
d="M206 469q31 41 68.5 54.5t80.5 13.5q13 0 25.5 -0.5t19.5 -2.5v-151q-14 0 -32 0.5t-36.5 -1t-36 -5t-30.5 -11.5q-30 -19 -41.5 -50.5t-11.5 -77.5v-238h-157v527h141z" />
    <glyph glyph-name="s" unicode="s" horiz-adv-x="518" 
d="M253 409q-21 0 -40.5 -7t-19.5 -27q0 -14 8.5 -22.5t31.5 -14.5q40 -11 85 -18t83 -22.5t64 -45.5t27 -86q-1 -49 -20.5 -82t-50 -54t-69.5 -29.5t-78 -8.5q-43 0 -85 9t-76 30.5t-57.5 55.5t-29.5 86h162q6 -27 30.5 -39.5t57.5 -12.5q21 0 41 8.5t20 28.5q0 15 -9 23.5
t-22.5 14t-29.5 8t-32 5.5q-39 8 -75.5 18.5t-65 29t-46 45t-17.5 68.5q0 46 19 78.5t49.5 52t70 28.5t80.5 9q42 0 80.5 -9.5t67.5 -30.5t48 -54.5t23 -80.5h-153q-3 26 -23.5 36t-48.5 10z" />
    <glyph glyph-name="t" unicode="t" horiz-adv-x="381" 
d="M251 386v-187q0 -26 12 -42.5t45 -16.5h50v-140h-57q-106 -2 -156.5 37.5t-50.5 138.5v210h-78v141h78v137h157v-137h114v-141h-114z" />
    <glyph glyph-name="u" unicode="u" horiz-adv-x="597" 
d="M299 134q27 0 44.5 9.5t27 24.5t13 35t3.5 42v282h157v-291q0 -67 -18.5 -114t-51.5 -76t-78.5 -41.5t-97.5 -12.5q-57 0 -103 14t-77.5 44t-48 76.5t-16.5 109.5v291h157v-282q0 -48 20 -79t69 -32z" />
    <glyph glyph-name="v" unicode="v" horiz-adv-x="575" 
d="M401 527h173l-194 -527h-185l-194 527h174l113 -353z" />
    <glyph glyph-name="w" unicode="w" horiz-adv-x="873" 
d="M166 0l-165 527h174l87 -341l97 341h163l97 -341l86 341h167l-165 -527h-173l-97 328l-96 -328h-175z" />
    <glyph glyph-name="x" unicode="x" horiz-adv-x="563" 
d="M372 527h178l-171 -261l183 -266h-183l-101 164l-100 -164h-177l178 268l-169 259h183l90 -157z" />
    <glyph glyph-name="y" unicode="y" horiz-adv-x="631" 
d="M269 -112q29 0 56 7.5t48.5 26t34 50t11.5 79.5q-14 -18 -32.5 -29t-39.5 -17.5t-41.5 -9.5t-38.5 -3q-52 0 -90.5 15t-63.5 41q-29 32 -41 78.5t-12 108.5v292h157v-266q0 -23 4 -45.5t14.5 -40.5t30.5 -29.5t51 -11.5t51 13t31.5 31.5t15.5 41t4 43.5v264h158v-417
q0 -36 -0.5 -74t-6.5 -74t-19 -68.5t-35 -60.5q-40 -48 -100 -71t-135 -23q-60 0 -117.5 16t-108.5 49q12 33 24 66.5t25 65.5q26 -19 70.5 -33.5t94.5 -14.5z" />
    <glyph glyph-name="z" unicode="z" horiz-adv-x="514" 
d="M480 412l-240 -272h240v-140h-446v115l239 272h-239v140h446v-115z" />
    <glyph glyph-name="braceleft" unicode="{" horiz-adv-x="423" 
d="M218 308q28 -16 38.5 -50.5t10.5 -68.5v-165q0 -8 1 -17.5t5.5 -17.5t13.5 -13t26 -5h64v-136h-117q-66 0 -105 30t-39 104v194q0 10 -1 23t-6.5 25t-17.5 20.5t-34 8.5h-33v136h33q22 0 34 8.5t17.5 20.5t6.5 25.5t1 23.5v194q0 73 38.5 103t105.5 30h117v-136h-64
q-17 0 -26 -5t-13.5 -12.5t-5.5 -17t-1 -18.5v-165q0 -35 -10.5 -69t-38.5 -50z" />
    <glyph glyph-name="bar" unicode="|" horiz-adv-x="293" 
d="M74 -169v966h145v-966h-145z" />
    <glyph glyph-name="braceright" unicode="}" horiz-adv-x="423" 
d="M206 308q-15 6 -24.5 19t-15 29.5t-8 35t-2.5 35.5v165q0 9 -1 18.5t-5.5 17t-14 12.5t-25.5 5h-64v136h118q68 0 105.5 -30.5t37.5 -102.5v-194q0 -11 1 -24.5t6.5 -25.5t17.5 -20t34 -8h33v-136h-33q-22 0 -34 -8.5t-17.5 -20.5t-6.5 -25t-1 -23v-194q0 -72 -38 -103
t-105 -31h-118v136h64q16 0 25.5 5t14 12.5t5.5 17.5t1 19v164q0 16 2.5 34t8.5 34t15.5 29.5t23.5 21.5z" />
    <glyph glyph-name="asciitilde" unicode="~" horiz-adv-x="691" 
d="M75 238q-2 42 3.5 85t24.5 78t53 57.5t89 22.5q40 0 69 -15.5t50.5 -33.5t39 -33.5t34.5 -15.5q15 0 22.5 10.5t10.5 25t2.5 30t-1.5 25.5h144q2 -40 -3 -82.5t-22.5 -78t-50 -58.5t-86.5 -23q-41 0 -71 16t-53 35t-41 35t-34 16t-24 -11t-11 -26t-2.5 -31.5t2.5 -27.5
h-145z" />
    <glyph glyph-name="uni00A0" unicode="&#xa0;" horiz-adv-x="280" 
 />
    <glyph glyph-name="cent" unicode="&#xa2;" horiz-adv-x="609" 
d="M313 132q35 0 57.5 18t27.5 43h165q-10 -85 -58.5 -134.5t-121.5 -63.5v-140h-147v141q-96 20 -143 89.5t-47 178.5q0 53 13.5 98t38 80t59.5 58t79 32v150h146v-148q73 -12 120.5 -62t56.5 -137h-161q-5 27 -28 45t-58 18q-30 0 -51 -11t-33.5 -30.5t-18 -43.5t-5.5 -49
q0 -27 5.5 -50.5t18 -41.5t34 -29t51.5 -11z" />
    <glyph glyph-name="sterling" unicode="&#xa3;" horiz-adv-x="633" 
d="M496 407v-139h-209v-121h300v-147h-540v147h82v121h-83v139h83v95q0 54 18 94.5t49 67.5t73 40t91 13q103 0 159 -48.5t60 -157.5h-148q-1 15 -4.5 29t-11.5 24.5t-21.5 16.5t-33.5 6q-41 0 -57 -24.5t-16 -56.5v-99h209z" />
    <glyph glyph-name="yen" unicode="&#xa5;" horiz-adv-x="755" 
d="M542 708h187q-54 -87 -106.5 -172.5t-105.5 -172.5h97v-115h-154v-55h154v-113h-154v-80h-163v80h-155v113h155v55h-155v115h96q-54 87 -106.5 172.5t-105.5 172.5h188l166 -295z" />
    <glyph glyph-name="section" unicode="&#xa7;" horiz-adv-x="573" 
d="M288 597q-9 0 -19 -0.5t-21 -5t-17.5 -12t-6.5 -19.5q0 -13 9.5 -21.5t23 -13.5t27.5 -7.5t24 -4.5q40 -7 79.5 -15t70 -24t49.5 -43t19 -72q0 -29 -12 -56.5t-34 -47.5q23 -20 33.5 -48t9.5 -57q-1 -44 -21.5 -75t-53 -50.5t-73 -28.5t-79.5 -9q-49 0 -93.5 9.5
t-78.5 31.5t-55 57.5t-23 86.5h157q6 -32 32 -47t58 -16q29 -1 50.5 8.5t21.5 29.5q0 15 -10 23t-28 12q-54 10 -102.5 21t-85 29.5t-58 47.5t-21.5 75q0 31 15.5 58t41.5 44q-23 15 -37 43t-14 60q0 45 21 75t54 48t72.5 25.5t76.5 7.5q44 0 83.5 -9t70 -29t49.5 -51.5
t22 -76.5h-155q-3 26 -23.5 36t-48.5 11zM235 409q-12 -7 -17.5 -18.5t-5.5 -23.5q0 -18 13 -29t34 -17.5t46 -10.5t49 -9q11 8 17 19.5t6 23.5q0 21 -17 30.5t-35 14.5q-30 8 -52 12t-38 8z" />
    <glyph glyph-name="dieresis" unicode="&#xa8;" horiz-adv-x="637" 
d="M194 736q38 0 64 -23t26 -65q0 -43 -26 -66t-64 -23t-64 23t-26 66q0 41 26 64.5t64 23.5zM442 736q38 0 64.5 -23t26.5 -65q0 -43 -26.5 -66t-64.5 -23t-64 23t-26 66q0 41 26.5 64.5t63.5 23.5z" />
    <glyph glyph-name="copyright" unicode="&#xa9;" horiz-adv-x="918" 
d="M461 -87q-95 0 -171.5 28t-130.5 80.5t-83.5 128t-29.5 171.5q0 94 30 169.5t84.5 128.5t131 81.5t169.5 28.5q91 0 166.5 -29.5t130 -83.5t84.5 -129t30 -166q0 -96 -29.5 -172t-83.5 -128.5t-130 -80t-168 -27.5zM465 26q70 0 125 21t92 59.5t56.5 93t19.5 120.5
q0 64 -19.5 118t-57 93t-92 61t-124.5 22q-69 0 -124.5 -22t-94.5 -61t-59.5 -93t-20.5 -118q0 -66 20 -120t58 -93t94 -60t127 -21zM469 224q27 0 44 12.5t20 30.5h126q-6 -42 -22.5 -72t-42 -48.5t-58 -27t-69.5 -8.5q-96 0 -149.5 54t-53.5 157q0 50 15.5 88.5t43 65
t65.5 40.5t84 14q75 0 125 -37t61 -120h-126q-2 20 -20 32.5t-44 12.5q-24 0 -39.5 -8t-24.5 -21.5t-12.5 -31t-3.5 -35.5q0 -19 3.5 -36.5t12.5 -31t24.5 -22t40.5 -8.5z" />
    <glyph glyph-name="guillemotleft" unicode="&#xab;" horiz-adv-x="602" 
d="M176 274l138 -195h-152l-136 195l136 194h152zM418 274l138 -195h-153l-135 195l135 194h153z" />
    <glyph glyph-name="uni00AD" unicode="&#xad;" horiz-adv-x="467" 
d="M406 225h-345v136h345v-136z" />
    <glyph glyph-name="registered" unicode="&#xae;" horiz-adv-x="486" 
d="M244 734q45 0 82 -13.5t64 -39t42 -63t15 -84.5t-15 -83.5t-42 -61.5t-64.5 -38t-81.5 -13q-45 0 -82.5 13t-65 37.5t-42.5 61t-15 84.5t15.5 85t43 62.5t65 39t81.5 13.5zM243 674q-62 0 -101 -36t-39 -104q0 -67 39 -101t101 -34t101 34t39 101q0 68 -38.5 104
t-101.5 36zM341 441h-63l-41 65h-15v-65h-55v200h82q35 0 57.5 -16t22.5 -51q2 -43 -36 -60zM222 593v-41h28q11 0 18.5 4.5t7.5 16.5q0 13 -7.5 16.5t-19.5 3.5h-27z" />
    <glyph glyph-name="degree" unicode="&#xb0;" horiz-adv-x="424" 
d="M212 755q35 0 65.5 -11t53 -32.5t35 -52t12.5 -69.5t-12.5 -69t-35 -50.5t-53 -30.5t-65.5 -10t-65 10t-52.5 30.5t-35.5 50.5t-13 69t13 69.5t35.5 51.5t52.5 32.5t65 11.5zM213 651q-26 0 -42.5 -16t-16.5 -44t16.5 -43.5t42.5 -15.5t43 15.5t17 43.5t-17 44t-43 16z
" />
    <glyph glyph-name="plusminus" unicode="&#xb1;" horiz-adv-x="594" 
d="M365 351v-161h-137v161h-172v138h172v173h137v-173h173v-138h-173zM56 0v138h482v-138h-482z" />
    <glyph glyph-name="twosuperior" unicode="&#xb2;" horiz-adv-x="391" 
d="M217 467h115v-95h-274v82q26 21 51.5 42t51.5 43q9 9 21.5 19t23 21.5t18 24t7.5 26.5q0 17 -10 25t-26 8q-23 0 -32.5 -9.5t-10.5 -29.5h-97q2 67 40.5 101.5t104.5 34.5q28 0 53 -8t43.5 -24t29 -38.5t10.5 -52.5q0 -28 -11.5 -52.5t-28.5 -45.5t-38 -39t-41 -33z" />
    <glyph glyph-name="threesuperior" unicode="&#xb3;" horiz-adv-x="417" 
d="M313 580q25 -12 37 -35.5t12 -50.5q-1 -33 -13 -56.5t-32 -39t-46.5 -23t-56.5 -7.5q-72 0 -115.5 35t-43.5 100h101q3 -18 17 -28.5t40 -10.5q16 0 29 6t13 26q0 16 -10 22t-24 6h-52v84h38q16 0 26 6.5t10 23.5q0 14 -11 20.5t-23 6.5q-43 0 -43 -34h-100
q-1 63 39.5 96t106.5 33q26 0 50.5 -6t43.5 -19t30.5 -34t11.5 -50q0 -20 -7.5 -39.5t-27.5 -31.5z" />
    <glyph glyph-name="acute" unicode="&#xb4;" horiz-adv-x="421" 
d="M96 584l121 195h168l-150 -195h-139z" />
    <glyph glyph-name="cedilla" unicode="&#xb8;" horiz-adv-x="621" 
d="M348 50q-5 -15 -10 -35t-10 -37q44 0 74.5 -24.5t30.5 -75.5q0 -36 -14.5 -61t-38 -41t-52.5 -23.5t-58 -7.5q-33 0 -66 6v91q15 -2 28 -3.5t24 -1.5q32 0 46 9.5t14 26.5q0 21 -18.5 27.5t-40.5 6.5q-15 0 -29 -1.5t-22 -3.5q11 38 21.5 74.5t21.5 73.5h99z" />
    <glyph glyph-name="guillemotright" unicode="&#xbb;" horiz-adv-x="602" 
d="M46 468h151l135 -195l-135 -194h-151l138 194zM288 468h151l137 -195l-137 -194h-151l138 194z" />
    <glyph glyph-name="Acircumflex" unicode="&#xc2;" horiz-adv-x="731" 
d="M406 950q21 -25 42 -51l83 -102q21 -25 42 -51h-146l-62 80l-61 -80h-146l166 204h82zM220 117l-44 -117h-176l279 708h174l276 -708h-177l-42 117h-290zM366 530q-19 -50 -37 -100l-23 -67q-18 -50 -37 -100h191q-24 67 -47.5 133.5t-46.5 133.5z" />
    <glyph glyph-name="Adieresis" unicode="&#xc4;" horiz-adv-x="731" 
d="M243 927q38 0 64 -22.5t26 -64.5t-26 -65t-64 -23t-64 23t-26 65t26 64.5t64 22.5zM491 927q38 0 64.5 -22.5t26.5 -64.5t-26.5 -65t-64.5 -23t-64 23t-26 65t26.5 64.5t63.5 22.5zM220 117l-44 -117h-176l279 708h174l276 -708h-177l-42 117h-290zM366 530
q-19 -50 -37 -100l-23 -67q-18 -50 -37 -100h191q-24 67 -47.5 133.5t-46.5 133.5z" />
    <glyph glyph-name="Ccedilla" unicode="&#xc7;" horiz-adv-x="725" 
d="M203 356q0 -40 10 -78t31.5 -68t56 -48.5t82.5 -18.5q62 0 100.5 27t49.5 77h157q-5 -57 -28 -101.5t-58.5 -76t-82 -50t-97.5 -23.5l-2 -8l-4 -14l-2 -8h8q40 0 68.5 -23.5t28.5 -75.5q0 -35 -14 -60t-36.5 -41.5t-51.5 -24.5t-58 -8q-21 0 -37 2l-32 4v91
q15 -2 27.5 -3t23.5 -1q33 0 47 9.5t14 26.5q0 21 -19.5 27t-41.5 6q-15 0 -28.5 -1t-20.5 -3l30 106q-69 8 -123 37t-91 75.5t-56 109t-19 136.5q0 80 24 146.5t68.5 114.5t109 74.5t145.5 26.5q60 0 112.5 -15.5t93 -47t66.5 -79.5t32 -114h-155q-12 50 -49 78t-99 28
q-49 0 -83 -18t-55.5 -47.5t-31.5 -67.5t-10 -78z" />
    <glyph glyph-name="Ecircumflex" unicode="&#xca;" horiz-adv-x="629" 
d="M372 955l168 -204h-147l-63 80l-61 -80h-147l167 204h83zM594 708v-149h-357v-136h303v-145h-303v-131h357v-147h-520v708h520z" />
    <glyph glyph-name="Icircumflex" unicode="&#xce;" horiz-adv-x="253" 
d="M168 951l167 -204h-147l-62 80l-61 -80h-147l166 204h84zM208 0h-163v708h163v-708z" />
    <glyph glyph-name="Odieresis" unicode="&#xd6;" horiz-adv-x="776" 
d="M269 927q38 0 64 -22.5t26 -64.5t-26 -65t-64 -23t-64 23t-26 65t26 64.5t64 22.5zM517 927q38 0 64 -22.5t26 -64.5t-26 -65t-64 -23t-64 23t-26 65t26.5 64.5t63.5 22.5zM389 717q81 0 146.5 -26t111 -73t70 -113t24.5 -147q0 -80 -24.5 -147t-70.5 -116t-111.5 -76
t-147.5 -26q-83 0 -148 26.5t-110.5 74.5t-69.5 114.5t-24 146.5t24.5 146.5t70.5 114.5t111.5 74.5t147.5 26.5zM202 356q0 -41 10.5 -79t33.5 -68t59 -48t86 -18q48 0 82.5 18.5t57 48.5t33 67.5t10.5 76.5q0 38 -10 76t-32.5 68.5t-57.5 49.5t-85 19t-85 -18t-58 -48
t-33.5 -68t-10.5 -77z" />
    <glyph glyph-name="multiply" unicode="&#xd7;" horiz-adv-x="597" 
d="M298 267l-152 -154l-96 97l152 151l-152 150l97 95l152 -151l148 151l98 -94l-152 -151l154 -150l-98 -98z" />
    <glyph glyph-name="Udieresis" unicode="&#xdc;" horiz-adv-x="739" 
d="M245 930q38 0 64 -23t26 -65t-26 -65t-64 -23t-64.5 23t-26.5 65t26.5 65t64.5 23zM493 930q38 0 64 -23t26 -65t-26 -65t-64 -23t-64 23t-26 65t26 65t64 23zM369 -8q-82 0 -139 23.5t-93 67t-52 106.5t-16 143v376h163v-390q0 -36 6 -68t22 -56.5t42.5 -38.5t68.5 -14
q43 0 69.5 14.5t41.5 39.5t20 56.5t5 66.5v390h163v-376q0 -79 -16 -142t-51.5 -107t-93 -67.5t-140.5 -23.5z" />
    <glyph glyph-name="acircumflex" unicode="&#xe2;" horiz-adv-x="580" 
d="M334 781q43 -52 85 -104l84 -104h-148l-63 81q-16 -20 -31.5 -40.5t-30.5 -40.5h-148l167 208h85zM381 0v17l-1 34v17q-18 -25 -40 -40t-44 -23t-44 -10.5t-41 -2.5q-35 0 -67 10t-55.5 31t-38 52t-14.5 73q0 45 21 79.5t55 52.5t77.5 24.5t91.5 6.5h94q0 37 -21.5 60
t-63.5 23q-28 0 -53.5 -10.5t-30.5 -34.5h-160q6 48 28 82t55.5 55.5t74 31t84.5 9.5q71 0 117 -20t73.5 -54.5t38 -81t10.5 -97.5v-284h-146zM376 223h-91q-44 0 -67.5 -14t-23.5 -41q0 -26 20 -40t48 -14q22 0 42.5 6.5t37 20.5t25.5 34.5t9 47.5z" />
    <glyph glyph-name="adieresis" unicode="&#xe4;" horiz-adv-x="580" 
d="M175 746q38 0 64.5 -23t26.5 -65q0 -44 -26.5 -67t-64.5 -23q-39 0 -65.5 23t-26.5 67q0 41 26.5 64.5t65.5 23.5zM418 746q39 0 65 -23t26 -65q0 -44 -26 -67t-65 -23q-38 0 -64.5 23t-26.5 67q0 41 26.5 64.5t64.5 23.5zM381 0v17l-1 34v17q-18 -25 -40 -40t-44 -23
t-44 -10.5t-41 -2.5q-35 0 -67 10t-55.5 31t-38 52t-14.5 73q0 45 21 79.5t55 52.5t77.5 24.5t91.5 6.5h94q0 37 -21.5 60t-63.5 23q-28 0 -53.5 -10.5t-30.5 -34.5h-160q6 48 28 82t55.5 55.5t74 31t84.5 9.5q71 0 117 -20t73.5 -54.5t38 -81t10.5 -97.5v-284h-146z
M376 223h-91q-44 0 -67.5 -14t-23.5 -41q0 -26 20 -40t48 -14q22 0 42.5 6.5t37 20.5t25.5 34.5t9 47.5z" />
    <glyph glyph-name="ccedilla" unicode="&#xe7;" horiz-adv-x="571" 
d="M295 134q36 0 58 17.5t27 43.5h162q-4 -47 -21.5 -82t-45 -60t-63 -39.5t-75.5 -18.5l-8 -30h8q41 0 69.5 -23.5t28.5 -76.5q0 -36 -14 -61.5t-36.5 -43t-51.5 -26t-59 -8.5q-21 0 -37.5 2t-32.5 5v92q15 -2 27.5 -3.5t24.5 -1.5q33 0 47 10t14 28q0 21 -17.5 27.5
t-38.5 6.5q-17 0 -31.5 -1.5t-23.5 -2.5l30 109q-101 15 -153 84t-52 183q0 63 19 114t53.5 86.5t84 54.5t112.5 19q48 0 90 -13t73.5 -38.5t51 -64t24.5 -89.5h-159q-6 27 -28 43.5t-57 16.5q-30 0 -51 -11.5t-33 -30.5t-17 -42.5t-5 -47.5q0 -27 5.5 -49.5t18.5 -39.5
t33 -27.5t49 -10.5z" />
    <glyph glyph-name="ecircumflex" unicode="&#xea;" horiz-adv-x="576" 
d="M336 783q43 -52 85 -104l84 -104h-148l-63 82l-31 -41q-16 -21 -31 -41h-148l167 208h85zM296 123q31 0 52 10.5t31 29.5h160q-11 -46 -34 -78t-56 -53t-72.5 -30.5t-82.5 -9.5q-125 0 -194.5 71.5t-69.5 202.5q0 58 18.5 108t52 86.5t82 57t109.5 20.5q60 0 107.5 -19
t79.5 -54t48.5 -83t16.5 -104q0 -16 -1.5 -30.5t-4.5 -31.5h-350q4 -38 29.5 -65t78.5 -28zM393 322q0 37 -26.5 61t-72.5 24q-51 0 -76 -25.5t-28 -59.5h203z" />
    <glyph glyph-name="icircumflex" unicode="&#xee;" horiz-adv-x="337" 
d="M205 779l170 -208h-149l-63 81l-62 -81h-148l167 208h85zM242 0h-157v527h157v-527z" />
    <glyph glyph-name="odieresis" unicode="&#xf6;" horiz-adv-x="600" 
d="M179 745q38 0 64.5 -23t26.5 -65q0 -44 -26.5 -67t-64.5 -23q-39 0 -65 23t-26 67q0 41 26 64.5t65 23.5zM429 745q39 0 65 -23t26 -65q0 -44 -26 -67t-65 -23q-38 0 -64.5 23t-26.5 67q0 41 27 64.5t64 23.5zM300 -8q-61 0 -111 18t-85 53t-54.5 86t-19.5 117
q0 63 20 113.5t55.5 86t85 54t109.5 18.5t109.5 -18.5t85 -54t55.5 -86t20 -113.5q0 -66 -19.5 -117t-54 -86t-84.5 -53t-112 -18zM300 392q-31 0 -53 -10.5t-35.5 -29t-19.5 -41t-6 -46.5q0 -27 6 -50t19.5 -40.5t35.5 -28t53 -10.5t52.5 11t34.5 28t19 40t6 50
q0 24 -6 46.5t-19 41t-34.5 29t-52.5 10.5z" />
    <glyph glyph-name="divide" unicode="&#xf7;" horiz-adv-x="567" 
d="M282 653q40 0 66 -25t26 -68q0 -45 -26 -68.5t-66 -23.5q-39 0 -66 23t-27 69q0 43 27.5 68t65.5 25zM46 294v134h475v-134h-475zM282 253q40 0 66 -25t26 -69q0 -45 -26 -68.5t-66 -23.5q-39 0 -66 23.5t-27 68.5q0 44 27.5 69t65.5 25z" />
    <glyph glyph-name="udieresis" unicode="&#xfc;" horiz-adv-x="597" 
d="M174 747q38 0 64.5 -23t26.5 -65q0 -44 -26.5 -67t-64.5 -23q-39 0 -65 23t-26 67q0 42 26 65t65 23zM424 747q39 0 65.5 -23t26.5 -65q0 -44 -26.5 -67t-65.5 -23q-38 0 -64.5 23t-26.5 67q0 42 27 65t64 23zM299 133q27 0 44.5 8.5t27 23.5t13 34.5t3.5 41.5v286h157
v-295q0 -68 -18.5 -114.5t-52 -75t-78.5 -41t-97 -12.5q-53 0 -97.5 12.5t-78 41.5t-51.5 75.5t-18 113.5v295h157v-286q0 -48 19 -78t70 -30z" />
    <glyph glyph-name="Abreve" unicode="&#x102;" horiz-adv-x="731" 
d="M370 752q-84 0 -138.5 40.5t-61.5 127.5h132q4 -29 23 -44t45 -15t45 15t22 44h133q-8 -87 -62 -127.5t-138 -40.5zM220 117l-44 -117h-176l279 708h174l276 -708h-177l-42 117h-290zM366 530q-19 -50 -37 -100l-23 -67q-18 -50 -37 -100h191q-24 67 -47.5 133.5
t-46.5 133.5z" />
    <glyph glyph-name="abreve" unicode="&#x103;" horiz-adv-x="580" 
d="M298 579q-86 0 -140.5 41.5t-61.5 129.5h133q4 -29 23.5 -44t45.5 -15q27 0 46 15.5t22 43.5h134q-7 -88 -61.5 -129.5t-140.5 -41.5zM381 0v17l-1 34v17q-18 -25 -40 -40t-44 -23t-44 -10.5t-41 -2.5q-35 0 -67 10t-55.5 31t-38 52t-14.5 73q0 45 21 79.5t55 52.5
t77.5 24.5t91.5 6.5h94q0 37 -21.5 60t-63.5 23q-28 0 -53.5 -10.5t-30.5 -34.5h-160q6 48 28 82t55.5 55.5t74 31t84.5 9.5q71 0 117 -20t73.5 -54.5t38 -81t10.5 -97.5v-284h-146zM376 223h-91q-44 0 -67.5 -14t-23.5 -41q0 -26 20 -40t48 -14q22 0 42.5 6.5t37 20.5
t25.5 34.5t9 47.5z" />
    <glyph glyph-name="Idotaccent" unicode="&#x130;" horiz-adv-x="311" 
d="M156 939q40 0 67.5 -24.5t27.5 -68.5q0 -46 -27.5 -69.5t-67.5 -23.5q-41 0 -68.5 24t-27.5 69q0 44 28.5 68.5t67.5 24.5zM236 0h-163v708h163v-708z" />
    <glyph glyph-name="dotlessi" unicode="&#x131;" horiz-adv-x="267" 
d="M212 0h-157v527h157v-527z" />
    <glyph glyph-name="Scedilla" unicode="&#x15e;" horiz-adv-x="647" 
d="M436 492q-6 38 -37.5 58t-82.5 20q-18 0 -35.5 -3.5t-31.5 -11t-22.5 -19.5t-8.5 -28q0 -17 9.5 -29t26 -20.5t38.5 -15t48 -12.5l76 -18q39 -9 74 -22t61 -35t42 -55.5t18 -84.5q0 -56 -19.5 -96.5t-52.5 -67.5t-77 -41t-93 -17l-2 -8l-3 -14l-2 -8h8q40 0 68.5 -23.5
t28.5 -76.5q0 -35 -14.5 -60t-37 -41.5t-51.5 -24.5t-57 -8q-21 0 -37 2t-32 5v91q15 -2 28 -3.5t24 -1.5q32 0 46 9.5t14 26.5q0 20 -17.5 26.5t-38.5 6.5q-16 0 -30 -1t-24 -3l30 109q-46 6 -86.5 22.5t-72 45t-52 69.5t-24.5 95h165q6 -25 20 -41.5t34 -26.5t44.5 -14
t50.5 -4q19 0 36.5 3t31 10t22 19.5t8.5 30.5q0 15 -7 25.5t-18.5 17.5t-26.5 12t-32 9l-64 15q-53 12 -97.5 27.5t-77 40t-50.5 60t-18 88.5q0 62 25 103.5t64.5 66.5t88 35.5t95.5 10.5q54 0 100 -13.5t81 -41.5t57 -70.5t28 -99.5h-159z" />
    <glyph glyph-name="scedilla" unicode="&#x15f;" horiz-adv-x="527" 
d="M256 409q-24 0 -41.5 -8t-17.5 -25q0 -14 8.5 -22.5t31.5 -14.5q26 -7 55 -12t57.5 -11.5t54.5 -16.5t46.5 -27t32.5 -43t13 -63q-1 -45 -17 -76t-43 -52t-61 -31.5t-70 -13.5l-8 -30h8q40 0 69 -23.5t29 -74.5q0 -37 -14.5 -63t-38 -43t-51.5 -24.5t-57 -7.5
q-19 0 -35.5 1.5t-34.5 4.5q0 24 0.5 46.5t0.5 45.5q15 -2 27.5 -3.5t23.5 -1.5q33 0 47 10t14 28q0 20 -17.5 26.5t-38.5 6.5q-15 0 -30.5 -1.5t-24.5 -2.5l32 112q-31 5 -61 17.5t-54 34t-40.5 51.5t-20.5 71h162q6 -27 30.5 -39.5t57.5 -12.5q23 0 42 8.5t19 28.5
t-14.5 28t-34.5 13q-43 10 -86.5 19.5t-79.5 27t-59 46.5t-23 79q0 46 19.5 78t50 51.5t69.5 28.5t80 9q42 0 80.5 -9.5t67.5 -30.5t48 -54.5t23 -80.5h-153q-3 26 -24 36t-49 10z" />
    <glyph glyph-name="uni0162" unicode="&#x162;" horiz-adv-x="606" 
d="M5 559v149h596v-149h-216v-559h-33l-10 -35h8q20 0 38 -6t31.5 -18t21 -31t7.5 -46q-2 -35 -16.5 -59.5t-36.5 -41t-50 -24t-57 -7.5q-21 0 -37 2t-33 4v23l1 45v23q15 -2 28 -3.5t24 -1.5q32 0 45.5 10t13.5 27q0 22 -18.5 27.5t-41.5 5.5q-15 0 -28.5 -1t-21.5 -3
q4 13 8 27l16 56q4 13 8 27h-30v559h-217z" />
    <glyph glyph-name="uni0163" unicode="&#x163;" horiz-adv-x="392" 
d="M251 386v-187q0 -26 12 -42.5t45 -16.5h50v-140h-89l-10 -35h8q42 0 70.5 -25t28.5 -79q-11 -72 -54.5 -103.5t-113.5 -31.5q-20 0 -35 2t-29 5v92q15 -2 28 -3.5t24 -1.5q33 0 46.5 10t13.5 28q0 11 -5 18t-13.5 10.5t-19.5 4.5t-22 1q-15 0 -29 -1t-22 -3l39 132
q-43 18 -61.5 56.5t-18.5 99.5v210h-78v141h78v137h157v-137h112v-141h-112z" />
    <glyph glyph-name="uni0218" unicode="&#x218;" horiz-adv-x="647" 
d="M436 492q-6 38 -37.5 58t-82.5 20q-18 0 -35.5 -3.5t-31.5 -11t-22.5 -19.5t-8.5 -28q0 -17 7.5 -28t22 -19t35 -14t46.5 -13q52 -14 102 -25t89.5 -32t64 -58t26.5 -103q0 -60 -22.5 -102t-60 -69t-87 -39.5t-103.5 -12.5q-56 0 -108 12.5t-94 40.5t-69 73t-32 110h165
q6 -25 20 -41.5t33.5 -26.5t44 -14.5t50.5 -4.5q16 0 34 3t32 10.5t23.5 20t9.5 30.5q0 26 -18.5 39.5t-46.5 20.5q-68 16 -127 30.5t-103.5 39t-70 63t-25.5 102.5t26 106t66.5 66.5t90.5 34t98 9.5q52 -2 96.5 -15.5t78.5 -41.5t55.5 -69.5t27.5 -98.5h-159zM316 -180
q-26 2 -44.5 18.5t-18.5 46.5q0 33 21.5 51t53.5 18q38 0 58 -27t20 -63q0 -29 -10.5 -55t-28 -48t-41 -37.5t-47.5 -24.5l-33 48q10 6 21.5 14t21 17.5t17 20.5t10.5 21z" />
    <glyph glyph-name="uni0219" unicode="&#x219;" horiz-adv-x="527" 
d="M257 409q-21 0 -40 -7.5t-20 -26.5q-1 -14 8 -23t32 -15q27 -7 56 -12t58 -11.5t54.5 -16.5t45.5 -26.5t32 -42t13 -62.5q-1 -49 -20 -81.5t-49.5 -53t-69 -29t-76.5 -8.5q-43 0 -85 8.5t-77 29.5t-59 55t-30 86h162q6 -27 30.5 -39.5t57.5 -12.5q21 0 41 8t20 29
q0 15 -9 23.5t-22.5 13t-29.5 7.5t-32 7q-39 7 -76 18t-65 29t-45.5 45t-17.5 69q0 46 19 78.5t49.5 52t70 28.5t80.5 9q42 0 80.5 -9.5t67.5 -30.5t48 -54.5t23 -80.5h-153q-3 26 -23.5 36t-48.5 10zM269 -182q-27 2 -45.5 19t-18.5 47q0 33 21.5 51.5t54.5 18.5
q38 0 58.5 -27.5t20.5 -63.5q0 -30 -11 -56t-28.5 -48.5t-41 -38t-48.5 -24.5l-33 48q10 7 21.5 15t21 17.5t17.5 20.5t11 21z" />
    <glyph glyph-name="uni021A" unicode="&#x21a;" horiz-adv-x="603" 
d="M5 559v149h593v-149h-215v-559h-163v559h-215zM290 -180q-26 2 -44.5 18.5t-18.5 46.5q0 33 22 51.5t53 17.5q38 0 58 -27t20 -63q0 -29 -10.5 -55t-28 -48t-41 -37.5t-47.5 -24.5l-33 48q10 6 21.5 14t21 17.5t17 20.5t10.5 21z" />
    <glyph glyph-name="uni021B" unicode="&#x21b;" horiz-adv-x="389" 
d="M251 386v-187q0 -26 12.5 -42.5t44.5 -16.5h50v-140h-67q-50 0 -86.5 8.5t-61.5 29.5t-37 54t-12 84v210h-78v141h78v137h157v-137h112v-141h-112zM212 -182q-26 2 -45 19t-19 47q0 33 22.5 52t53.5 18q39 0 59 -27.5t20 -63.5q0 -30 -10.5 -56t-28.5 -48.5t-41.5 -38
t-47.5 -24.5l-34 48q11 7 22.5 15t21 17.5t17 20.5t10.5 21z" />
    <glyph glyph-name="circumflex" unicode="&#x2c6;" horiz-adv-x="623" 
d="M353 758l167 -204h-147l-62 81l-61 -81h-147l166 204h84z" />
    <glyph glyph-name="breve" unicode="&#x2d8;" horiz-adv-x="601" 
d="M301 566q-85 0 -139.5 40.5t-61.5 128.5h132q4 -29 23 -44t45 -15q28 0 46 15t22 44h132q-8 -88 -61 -128.5t-138 -40.5z" />
    <glyph glyph-name="uni0326" unicode="&#x326;" horiz-adv-x="459" 
d="M219 -180q-26 2 -44.5 18.5t-18.5 46.5q0 33 21.5 51t53.5 18q38 0 58 -27t20 -63q0 -29 -10.5 -55t-28 -48t-41 -37.5t-47.5 -24.5l-33 48q10 6 21.5 14t21 17.5t17 20.5t10.5 21z" />
    <glyph glyph-name="uni0401" unicode="&#x401;" horiz-adv-x="629" 
d="M215 941q38 0 64 -22.5t26 -64.5t-26 -65t-64 -23t-64 23t-26 65q0 41 26 64t64 23zM463 941q38 0 64 -22.5t26 -64.5t-26 -65t-64 -23t-64 23t-26 65q0 41 26 64t64 23zM594 708v-149h-357v-136h303v-145h-303v-131h357v-147h-520v708h520z" />
    <glyph glyph-name="uni0404" unicode="&#x404;" horiz-adv-x="725" 
d="M207 425h261v-142h-262q2 -35 16.5 -61t37 -43.5t52 -26.5t61.5 -9q26 0 51.5 5t47 17t38 31.5t23.5 47.5h157q-7 -63 -34.5 -110.5t-70.5 -78.5t-97 -46.5t-114 -15.5q-83 0 -146 26.5t-106 74.5t-65 114.5t-22 146.5q0 81 22.5 148t66 114.5t107 73.5t146.5 26
q60 0 113.5 -16.5t94.5 -48.5t67.5 -79.5t33.5 -108.5h-158q-7 28 -23 48t-37.5 32.5t-47 18t-52.5 5.5q-68 0 -112 -37t-49 -106z" />
    <glyph glyph-name="uni0406" unicode="&#x406;" horiz-adv-x="311" 
d="M237 0h-163v708h163v-708z" />
    <glyph glyph-name="uni0407" unicode="&#x407;" horiz-adv-x="311" 
d="M61 928q38 0 61 -22.5t23 -62.5t-23 -63t-61 -23q-37 0 -60 23t-23 63q0 39 23.5 62t59.5 23zM250 928q37 0 60 -22.5t23 -62.5t-23 -63t-60 -23q-38 0 -61 23t-23 63q0 39 24 62t60 23zM237 0h-163v708h163v-708z" />
    <glyph glyph-name="uni0410" unicode="&#x410;" horiz-adv-x="730" 
d="M219 117l-43 -117h-176l279 708h174l275 -708h-177l-42 117h-290zM269 263h190q-23 67 -46.5 133.5t-47.5 133.5z" />
    <glyph glyph-name="uni0411" unicode="&#x411;" horiz-adv-x="692" 
d="M74 0v708h530v-149h-367v-117h157q56 0 103 -10t81 -34.5t53 -65t19 -101.5q-1 -70 -28 -114.5t-69 -70t-94.5 -35.5t-103.5 -11h-281zM237 147h122q23 0 46 2.5t42 10.5t30.5 24.5t11.5 43.5q0 25 -10.5 39t-27.5 21.5t-39 9.5t-45 2h-130v-153z" />
    <glyph glyph-name="uni0412" unicode="&#x412;" horiz-adv-x="692" 
d="M73 0v708h333q43 0 82.5 -9.5t69.5 -31t48 -56.5t18 -86q0 -44 -17.5 -80.5t-55.5 -59.5q52 -20 78.5 -63.5t26.5 -104.5q0 -66 -27.5 -108t-70 -66t-95.5 -33.5t-105 -9.5h-285zM351 427q50 0 81.5 15.5t31.5 55.5q0 20 -8.5 32.5t-22 19t-31 8.5t-36.5 2h-130v-133h115
zM236 147h123q28 0 52.5 3t42.5 11t28.5 23.5t10.5 40.5q0 22 -9.5 35.5t-25.5 20.5t-37 9t-44 2h-141v-145z" />
    <glyph glyph-name="uni0413" unicode="&#x413;" horiz-adv-x="595" 
d="M74 0v708h501v-149h-338v-559h-163z" />
    <glyph glyph-name="uni0414" unicode="&#x414;" horiz-adv-x="749" 
d="M740 -173h-160v173h-412v-173h-159v320q36 3 57 22t32.5 46t16 59.5t6.5 63.5q3 46 5.5 100t4 105t2 95t0.5 70h521v-561h86v-320zM491 147v412h-207q-1 -74 -1.5 -120.5t-2.5 -86.5q0 -20 -2 -48.5t-6.5 -58t-11 -56t-15.5 -42.5h246z" />
    <glyph glyph-name="uni0415" unicode="&#x415;" horiz-adv-x="629" 
d="M594 708v-149h-357v-136h303v-145h-303v-131h357v-147h-520v708h520z" />
    <glyph glyph-name="uni0416" unicode="&#x416;" horiz-adv-x="999" 
d="M581 279v-279h-163v279h-84l-145 -279h-188l204 369l-203 339h186l153 -283h77v283h163v-283h76l155 283h185l-203 -339l204 -369h-189l-144 279h-84z" />
    <glyph glyph-name="uni0417" unicode="&#x417;" horiz-adv-x="674" 
d="M186 232q6 -28 22.5 -45t39 -26.5t49 -13t52.5 -3.5q23 0 45.5 3.5t40.5 12.5t29.5 25t11.5 40q0 22 -9.5 35.5t-25 21t-35 10t-39.5 2.5h-112v133h82q23 0 43.5 3.5t36 11.5t25 22.5t9.5 35.5q-1 21 -12 34t-28 20.5t-38 10.5t-40 3q-54 0 -90 -18.5t-41 -60.5h-156
q2 63 26.5 106t64.5 70t92 39t109 12q45 0 93.5 -8.5t88.5 -30t66 -58.5t26 -94q0 -91 -75 -142q54 -20 77.5 -63t23.5 -97q0 -69 -27.5 -113.5t-70.5 -70.5t-94.5 -36t-100.5 -10q-61 0 -116 12t-97 40t-69 74t-32 113h155z" />
    <glyph glyph-name="uni0418" unicode="&#x418;" horiz-adv-x="770" 
d="M237 281l329 427h130v-708h-163v421l-329 -421h-130v708h163v-427z" />
    <glyph glyph-name="uni0419" unicode="&#x419;" horiz-adv-x="770" 
d="M392 745q-85 0 -139 41.5t-61 129.5h132q4 -29 22.5 -44t45.5 -15q28 0 46 15t21 44h133q-8 -88 -62 -129.5t-138 -41.5zM237 281l329 427h130v-708h-163v421l-329 -421h-130v708h163v-427z" />
    <glyph glyph-name="uni041A" unicode="&#x41a;" horiz-adv-x="692" 
d="M237 278v-278h-163v708h163v-282h87l179 282h187l-230 -338l231 -370h-190l-168 278h-96z" />
    <glyph glyph-name="uni041B" unicode="&#x41b;" horiz-adv-x="702" 
d="M270 559l-1 -169q0 -36 -1 -76.5t-5.5 -80.5t-13.5 -77.5t-26 -67.5q-27 -48 -76 -68.5t-117 -20.5h-29v149q34 0 53.5 11.5t30.5 30t16.5 43t7.5 50.5q4 65 5.5 119.5t2 105t0.5 99t1 101.5h510v-708h-163v559h-195z" />
    <glyph glyph-name="uni041C" unicode="&#x41c;" horiz-adv-x="914" 
d="M269 708l192 -322l190 322h189v-708h-163v470l-185 -309h-68l-187 309v-470h-163v708h195z" />
    <glyph glyph-name="uni041D" unicode="&#x41d;" horiz-adv-x="752" 
d="M237 423h278v285h163v-708h-163v276h-278v-276h-163v708h163v-285z" />
    <glyph glyph-name="uni041E" unicode="&#x41e;" horiz-adv-x="782" 
d="M392 717q81 0 146.5 -25.5t112 -73t71.5 -113.5t25 -147q0 -80 -25 -147t-71.5 -116t-112.5 -76t-148 -26q-83 0 -148.5 26.5t-111.5 74.5t-70.5 114.5t-24.5 146.5q0 81 25.5 147.5t72 114.5t112.5 74t147 26zM202 356q0 -41 11.5 -79t35 -67.5t59.5 -47.5t86 -19
q48 0 83 18t58 48t34 68t11 77t-10.5 77t-33.5 68t-58.5 49t-85.5 19q-49 0 -85 -18t-59 -47.5t-34.5 -67.5t-11.5 -78z" />
    <glyph glyph-name="uni041F" unicode="&#x41f;" horiz-adv-x="748" 
d="M674 708v-708h-163v560h-274v-560h-163v708h600z" />
    <glyph glyph-name="uni0420" unicode="&#x420;" horiz-adv-x="669" 
d="M358 708q62 0 113.5 -13t88.5 -42t57.5 -76t20.5 -115q0 -65 -21 -113t-58.5 -80.5t-88.5 -48.5t-110 -16h-123v-204h-163v708h284zM356 348q53 0 86.5 27t35.5 78q0 57 -31 81.5t-92 24.5h-118v-211h119z" />
    <glyph glyph-name="uni0421" unicode="&#x421;" horiz-adv-x="725" 
d="M203 356q0 -40 10 -78t31.5 -68t55.5 -48.5t82 -18.5q62 0 101 27t50 77h157q-5 -63 -32 -110.5t-69.5 -79.5t-96.5 -48t-112 -16q-83 0 -147 26t-108 73.5t-67 114t-23 148.5q0 80 23.5 146.5t68.5 114.5t109 74.5t145 26.5q60 0 112.5 -15.5t93.5 -47t67 -79.5t32 -114
h-155q-12 50 -49.5 78t-99.5 28q-49 0 -83 -18t-55.5 -47.5t-31 -67.5t-9.5 -78z" />
    <glyph glyph-name="uni0422" unicode="&#x422;" horiz-adv-x="606" 
d="M5 559v149h596v-149h-217v-559h-163v559h-216z" />
    <glyph glyph-name="uni0423" unicode="&#x423;" horiz-adv-x="655" 
d="M482 708h178q-48 -112 -95 -221.5t-95 -220.5q-24 -54 -47.5 -102.5t-57 -85t-83 -57.5t-124.5 -21h-44v150h28q19 0 37.5 2.5t35 9.5t31 20t26.5 35l-270 491h189q42 -83 83 -165.5t83 -164.5z" />
    <glyph glyph-name="uni0424" unicode="&#x424;" horiz-adv-x="884" 
d="M360 639v98h163v-98q71 0 130.5 -15.5t103 -48.5t68 -84.5t24.5 -123.5q-1 -75 -23.5 -127t-64.5 -85t-102.5 -48t-135.5 -15v-109h-163v109q-72 0 -132 15t-102.5 47.5t-66.5 84t-24 124.5q1 70 22.5 122t61 86t95.5 51t125 17h21zM523 500v-269q85 0 126 31.5t41 102.5
q0 61 -38 98t-110 37h-19zM360 231v269q-37 0 -68 -6.5t-53 -21.5t-34 -41t-12 -65q0 -63 38 -99t110 -36h19z" />
    <glyph glyph-name="uni0425" unicode="&#x425;" horiz-adv-x="693" 
d="M496 708h190l-239 -354l245 -354h-193l-154 234l-160 -234h-184l248 355l-240 353h193l148 -235z" />
    <glyph glyph-name="uni0426" unicode="&#x426;" horiz-adv-x="752" 
d="M499 147v561h163v-561h84v-321h-163v174h-509v708h163v-561h262z" />
    <glyph glyph-name="uni0427" unicode="&#x427;" horiz-adv-x="703" 
d="M51 708h163v-220q0 -34 7.5 -56t24 -35t42 -18t60.5 -5q30 0 58 2.5t60 8.5v323h163v-708h-163v233q-39 -6 -77 -8.5t-75 -1.5q-54 1 -102.5 13t-85.5 41q-40 32 -57.5 81.5t-17.5 115.5v234z" />
    <glyph glyph-name="uni0428" unicode="&#x428;" horiz-adv-x="1019" 
d="M74 0v708h163v-561h191v561h163v-561h191v561h163v-708h-871z" />
    <glyph glyph-name="uni0429" unicode="&#x429;" horiz-adv-x="1034" 
d="M74 0v708h163v-561h191v561h163v-561h190v561h163v-561h84v-321h-163v174h-791z" />
    <glyph glyph-name="uni042A" unicode="&#x42a;" horiz-adv-x="771" 
d="M159 0v559h-158v149h321v-249h152q52 0 99 -10.5t83 -36.5t57 -69t21 -107q0 -69 -24.5 -114.5t-65 -72.5t-93 -38t-107.5 -11h-285zM322 147h116q27 0 52 3t43.5 12.5t30 27.5t11.5 47q0 45 -32 61.5t-80 16.5h-141v-168z" />
    <glyph glyph-name="uni042B" unicode="&#x42b;" horiz-adv-x="936" 
d="M74 0v708h163v-249h114q53 0 100.5 -11.5t83.5 -37.5t57 -68.5t21 -105.5q-2 -69 -26.5 -114.5t-65.5 -72.5t-94.5 -38t-111.5 -11h-241zM699 708h163v-708h-163v708zM237 147h81q27 0 51.5 3.5t43 13.5t29.5 27.5t11 45.5q0 25 -10 40.5t-27.5 23.5t-39.5 11t-46 3h-93
v-168z" />
    <glyph glyph-name="uni042C" unicode="&#x42c;" horiz-adv-x="684" 
d="M73 0v708h163v-249h150q58 0 106 -11.5t82.5 -38t53.5 -69t19 -104.5q0 -69 -25.5 -114.5t-67.5 -72.5t-96 -38t-112 -11h-273zM236 147h117q27 0 51 3.5t43 13t29.5 27t10.5 46.5q0 24 -9.5 39t-25 23.5t-36.5 12t-45 3.5h-135v-168z" />
    <glyph glyph-name="uni042D" unicode="&#x42d;" horiz-adv-x="725" 
d="M518 425q-2 28 -12.5 54t-30 46t-49 31.5t-69.5 11.5q-66 0 -107 -28t-53 -76h-158q7 63 35.5 110t72 79t98 48t113.5 16q84 0 146.5 -27.5t104 -76t61.5 -115t20 -143.5q0 -80 -22 -146.5t-64.5 -114.5t-105.5 -74.5t-145 -26.5q-56 0 -110 14.5t-98 45t-73.5 78
t-36.5 113.5h157q8 -30 26.5 -49.5t42 -31t49 -16t47.5 -4.5q74 2 116 39.5t46 100.5h-262v142h261z" />
    <glyph glyph-name="uni042E" unicode="&#x42e;" horiz-adv-x="1031" 
d="M237 422h80q7 65 34 119t70 93t101 60.5t127 21.5q82 0 146.5 -25.5t109 -72.5t68 -113.5t23.5 -147.5q0 -80 -23 -147.5t-67.5 -115.5t-109 -75t-146.5 -26q-71 0 -129 20.5t-100 58t-68 90t-34 115.5h-82v-277h-163v708h163v-286zM473 356q0 -40 9.5 -78.5t30.5 -68.5
t55 -48.5t82 -18.5t82 18.5t55.5 48.5t31.5 68.5t10 77.5t-9.5 77t-30.5 68t-55.5 48.5t-83.5 18.5t-83 -19t-55 -49.5t-30 -68t-9 -74.5z" />
    <glyph glyph-name="uni042F" unicode="&#x42f;" horiz-adv-x="718" 
d="M644 708v-708h-163v232h-84l-162 -232h-193l192 254q-83 23 -123.5 78t-40.5 138q0 70 24 116t64 73t93 38t112 11h281zM481 375v184h-143q-23 -1 -42.5 -6.5t-34.5 -16.5t-23 -28t-8 -42q0 -27 12.5 -44.5t32 -28t43.5 -14.5t49 -4h114z" />
    <glyph glyph-name="uni0430" unicode="&#x430;" horiz-adv-x="580" 
d="M381 0l-1 68q-18 -25 -42.5 -41.5t-54 -25.5t-72.5 -9q-35 0 -65.5 9.5t-55.5 31t-39.5 52.5t-14.5 73q0 45 21 79.5t55 52.5t77.5 24.5t91.5 6.5h94q0 37 -21.5 60t-63.5 23q-29 1 -54 -10t-30 -35h-160q6 48 28 82.5t55.5 56t74 31t84.5 9.5q71 0 117 -20t73.5 -54.5
t38 -81.5t10.5 -98v-284h-146zM376 223h-92q-43 0 -66.5 -14t-23.5 -41q0 -26 18.5 -40t49.5 -14q22 0 42.5 6.5t37 20.5t25.5 34.5t9 47.5z" />
    <glyph glyph-name="uni0431" unicode="&#x431;" horiz-adv-x="628" 
d="M34 334q0 99 20 177t73 133q27 26 58 42.5t66 25.5t73 14.5t75 8.5q31 3 58.5 6.5t46.5 6.5t33 5t26 7v-160q-24 -8 -54 -11t-63 -5q-26 -1 -56 -2.5t-59.5 -6t-57 -13.5t-48 -26.5t-32.5 -44.5t-12 -69q18 23 39.5 39t46 25.5t49 13.5t48.5 4q53 0 96 -18t73 -50.5
t45.5 -76t15.5 -94.5q0 -64 -20.5 -114.5t-56.5 -86t-87 -54t-112 -18.5q-79 1 -133 31t-87 77.5t-48 109t-16 124.5zM319 133q28 0 50.5 9.5t36.5 24.5t21.5 36.5t7.5 42.5q0 46 -28 79t-83 33q-53 0 -86.5 -30.5t-33.5 -78.5q0 -21 6.5 -42t20 -37t36 -26.5t52.5 -10.5z
" />
    <glyph glyph-name="uni0432" unicode="&#x432;" horiz-adv-x="578" 
d="M344 527q32 0 64 -6t58 -22t42 -44t16 -70q0 -31 -15 -59.5t-41 -43.5q36 -15 54.5 -46.5t18.5 -73.5q0 -51 -21 -83t-53.5 -49.5t-70.5 -23.5t-72 -6h-269v527h289zM322 323q20 0 35 10.5t15 29.5q1 18 -12 29t-35 11h-113v-80h110zM322 124q24 0 43 10.5t19 36.5
q0 21 -13.5 30.5t-38.5 9.5h-120v-87h110z" />
    <glyph glyph-name="uni0433" unicode="&#x433;" horiz-adv-x="457" 
d="M446 527v-140h-234v-387h-157v527h391z" />
    <glyph glyph-name="uni0434" unicode="&#x434;" horiz-adv-x="639" 
d="M563 527v-387h67v-282h-156v142h-310v-142h-155v280q24 0 41 15t28.5 36.5t17.5 47t9 47.5q8 61 10 122t2 121h446zM405 140v247h-148q-2 -29 -2.5 -61t-3.5 -64.5t-9.5 -63t-19.5 -58.5h183z" />
    <glyph glyph-name="uni0435" unicode="&#x435;" horiz-adv-x="582" 
d="M300 123q31 0 52 10.5t31 29.5h160q-11 -46 -34 -78t-56 -53t-72.5 -30.5t-82.5 -9.5q-125 0 -194.5 71.5t-69.5 202.5q0 58 18.5 108t52 86.5t82 57t109.5 20.5t108 -19t79 -54t48.5 -83t16.5 -104q0 -16 -1.5 -30.5t-4.5 -31.5h-350q4 -38 29.5 -65t78.5 -28zM397 322
q0 37 -26.5 61t-72.5 24q-51 0 -76 -25.5t-28 -59.5h203z" />
    <glyph glyph-name="uni0436" unicode="&#x436;" horiz-adv-x="859" 
d="M508 191v-191h-158v191h-76l-92 -191h-181l145 276l-137 251h173l96 -196h72v196h158v-196h73l94 196h174l-139 -251l147 -276h-181l-91 191h-77z" />
    <glyph glyph-name="uni0437" unicode="&#x437;" horiz-adv-x="547" 
d="M452 285q33 -16 49 -48.5t16 -68.5q-2 -53 -24 -87.5t-57 -54t-78 -27t-85 -7.5t-84.5 9.5t-77.5 31.5t-59 57.5t-28 88.5h154q3 -16 12.5 -27t24 -17.5t31.5 -9t34 -2.5q15 0 30 2t27 7.5t20.5 14.5t8.5 22q0 40 -62 40h-86v113h66q38 0 54 11t16 33q0 12 -7 20.5
t-18 13t-24.5 6.5t-27.5 2q-15 0 -31 -3t-29 -9t-22.5 -16t-11.5 -25h-149q7 55 31.5 91t59 56t75.5 28t84 8q37 0 76 -7.5t70.5 -25.5t51 -49.5t19.5 -78.5q0 -31 -14 -54.5t-35 -37.5z" />
    <glyph glyph-name="uni0438" unicode="&#x438;" horiz-adv-x="623" 
d="M212 244l225 283h132v-527h-158v272l-217 -272h-139v527h157v-283z" />
    <glyph glyph-name="uni0439" unicode="&#x439;" horiz-adv-x="623" 
d="M321 562q-42 0 -77.5 10.5t-61.5 31.5t-42.5 53t-19.5 74h133q5 -29 23.5 -44t44.5 -15q60 0 69 59h132q-8 -86 -61.5 -127.5t-139.5 -41.5zM212 244l225 283h132v-527h-158v272l-217 -272h-139v527h157v-283z" />
    <glyph glyph-name="uni043A" unicode="&#x43a;" horiz-adv-x="581" 
d="M212 191v-191h-157v527h157v-195h74l112 195h181l-157 -248l159 -279h-184l-105 191h-80z" />
    <glyph glyph-name="uni043B" unicode="&#x43b;" horiz-adv-x="589" 
d="M534 527v-527h-157v386h-131q-1 -55 -2.5 -117t-12.5 -121q-8 -47 -25.5 -76.5t-41.5 -45.5t-53.5 -21t-62.5 -5h-42v137q26 0 43.5 14t27 36.5t14.5 53.5t7 65q2 27 3 60.5t1.5 62.5t0.5 54.5v43.5h431z" />
    <glyph glyph-name="uni043C" unicode="&#x43c;" horiz-adv-x="742" 
d="M351 94l-139 205v-299h-157v527h172l146 -220l145 220h170v-527h-158v298l-136 -204h-43z" />
    <glyph glyph-name="uni043D" unicode="&#x43d;" horiz-adv-x="604" 
d="M212 333h180v194h157v-527h-157v193h-180v-193h-157v527h157v-194z" />
    <glyph glyph-name="uni043E" unicode="&#x43e;" horiz-adv-x="608" 
d="M303 -8q-60 0 -109.5 18t-84.5 53t-55 86t-20 117q0 63 21 113.5t57 86t86 54t110 18.5t109 -18.5t83.5 -54t54 -86t19.5 -113.5q0 -66 -20 -117t-55 -86t-85 -53t-111 -18zM304 392q-30 0 -51.5 -10.5t-35.5 -29t-20.5 -41t-6.5 -46.5q0 -27 6.5 -50t20.5 -40.5
t35.5 -28t51.5 -10.5t51.5 11t35 28t19.5 40t6 50q0 24 -6 46.5t-19.5 41t-35 29t-51.5 10.5z" />
    <glyph glyph-name="uni043F" unicode="&#x43f;" horiz-adv-x="601" 
d="M546 527v-527h-157v387h-177v-387h-157v527h491z" />
    <glyph glyph-name="uni0440" unicode="&#x440;" horiz-adv-x="638" 
d="M211 464q32 39 75 56t89 17q54 0 97 -19t73.5 -54.5t46.5 -85t16 -109.5q0 -61 -15.5 -112t-45 -87.5t-73 -57t-97.5 -20.5q-105 0 -165 60v-262h-157v737h147zM332 394q-29 0 -51 -10.5t-37.5 -28.5t-23.5 -40.5t-8 -47.5q0 -55 31 -93t92 -40q32 0 54 11t35.5 29
t19.5 41.5t6 50.5q0 24 -7 47t-21 41.5t-36 29t-54 10.5z" />
    <glyph glyph-name="uni0441" unicode="&#x441;" horiz-adv-x="574" 
d="M298 134q36 0 58 17.5t27 43.5h162q-5 -53 -26 -91t-54.5 -63t-76.5 -37t-89 -12q-128 0 -196.5 71t-68.5 201q0 63 19 114t53.5 86.5t84 54.5t112.5 19q48 0 90 -13t73.5 -38.5t51 -64t24.5 -89.5h-159q-6 27 -28 43.5t-57 16.5q-30 0 -50.5 -11t-33 -29.5t-17.5 -42
t-5 -47.5q0 -27 5.5 -50t18.5 -40t33 -28t49 -11z" />
    <glyph glyph-name="uni0442" unicode="&#x442;" horiz-adv-x="491" 
d="M-4 387v140h499v-140h-171v-387h-157v387h-171z" />
    <glyph glyph-name="uni0443" unicode="&#x443;" horiz-adv-x="589" 
d="M414 527h174l-146 -472q-24 -78 -50 -137t-62.5 -99.5t-87 -61.5t-123.5 -21h-38v154h18q50 0 81 17t51 56l-230 564h186l129 -373z" />
    <glyph glyph-name="uni0444" unicode="&#x444;" horiz-adv-x="803" 
d="M481 705v-168q63 -1 117 -18t93 -51.5t60.5 -86t21.5 -120.5q-2 -67 -24.5 -116t-61 -82t-91.5 -50t-115 -20v-204h-158v205q-62 2 -115 19t-92 50.5t-61.5 83.5t-23.5 117t21 118.5t61 86t93 51.5t117 17v168h158zM323 395q-63 0 -97 -36t-34 -94q0 -59 34.5 -95
t96.5 -37v262zM481 133q62 1 96.5 37t34.5 95q0 58 -34 94t-97 36v-262z" />
    <glyph glyph-name="uni0445" unicode="&#x445;" horiz-adv-x="563" 
d="M372 527h178l-171 -261l183 -266h-183l-101 164l-100 -164h-177l178 268l-169 259h183l90 -157z" />
    <glyph glyph-name="uni0446" unicode="&#x446;" horiz-adv-x="630" 
d="M55 0v527h157v-387h181v387h157v-387h71v-282h-154v142h-412z" />
    <glyph glyph-name="uni0447" unicode="&#x447;" horiz-adv-x="560" 
d="M31 527h158v-131q0 -22 3 -39t11.5 -28.5t24.5 -17t43 -6.5q20 0 40.5 2t35.5 4v216h158v-527h-158v170q-32 -4 -54.5 -5.5t-49.5 -1.5q-51 2 -92 14t-69 41q-27 28 -39 68t-12 100v141z" />
    <glyph glyph-name="uni0448" unicode="&#x448;" horiz-adv-x="859" 
d="M55 0v527h157v-387h138v387h158v-387h138v387h158v-527h-749z" />
    <glyph glyph-name="uni0449" unicode="&#x449;" horiz-adv-x="885" 
d="M55 0v527h157v-387h139v387h158v-387h138v387h158v-387h71v-282h-156v142h-665z" />
    <glyph glyph-name="uni044A" unicode="&#x44a;" horiz-adv-x="614" 
d="M1 387v140h273v-152h99q45 0 84 -9t67.5 -29.5t45.5 -55t17 -83.5q0 -60 -23 -98t-58 -60.5t-78.5 -31t-85.5 -8.5h-226v387h-115zM354 136q35 0 55 13t20 43q0 26 -19 37.5t-47 11.5h-89v-105h80z" />
    <glyph glyph-name="uni044B" unicode="&#x44b;" horiz-adv-x="779" 
d="M212 527v-152h82q43 0 82 -8.5t68 -29t46 -55.5t17 -86q0 -59 -22.5 -96.5t-57.5 -60t-77.5 -31t-81.5 -8.5h-213v527h157zM724 0h-157v527h157v-527zM275 136q35 0 54.5 13.5t19.5 42.5q0 27 -20 38t-46 11h-71v-105h63z" />
    <glyph glyph-name="uni044C" unicode="&#x44c;" horiz-adv-x="567" 
d="M212 527v-152h110q46 0 84.5 -9t67.5 -30.5t45 -56t16 -83.5q0 -59 -22.5 -96.5t-58 -60t-78 -31t-82.5 -8.5h-239v527h157zM303 136q32 0 53 13.5t21 42.5t-20 39t-47 10h-98v-105h91z" />
    <glyph glyph-name="uni044D" unicode="&#x44d;" horiz-adv-x="565" 
d="M280 125q48 0 73.5 24t25.5 52h-177v125h176q-4 31 -28.5 52.5t-69.5 21.5q-32 0 -58.5 -12.5t-34.5 -31.5h-161q9 45 33.5 79t58.5 56.5t75 33.5t86 11q124 0 189.5 -72t65.5 -200q0 -127 -65 -200t-195 -73q-40 0 -79.5 9t-73.5 30t-59.5 53t-35.5 79h160
q13 -18 38 -27.5t56 -9.5z" />
    <glyph glyph-name="uni044E" unicode="&#x44e;" horiz-adv-x="822" 
d="M212 334h61q17 93 82 148.5t171 55.5q61 0 110 -18.5t83.5 -54t53.5 -86.5t19 -114q0 -131 -69.5 -202t-196.5 -71q-107 0 -172 52.5t-81 148.5h-61v-193h-157v527h157v-193zM526 394q-29 0 -49.5 -11t-34.5 -29.5t-20.5 -42t-6.5 -48.5q0 -27 6.5 -50t20.5 -40t34.5 -28
t49.5 -11q28 0 49 11t34.5 28.5t19.5 40.5t6 49q0 25 -6 48.5t-19 42t-33.5 29.5t-50.5 11z" />
    <glyph glyph-name="uni044F" unicode="&#x44f;" horiz-adv-x="591" 
d="M536 527v-527h-157v159h-60l-109 -159h-189l146 188q-52 17 -83.5 59.5t-31.5 99.5q0 53 18.5 87.5t50 55t71 29t81.5 8.5h263zM379 288v106h-104q-30 0 -47 -13t-17 -39q0 -16 7 -26.5t17.5 -16.5t24.5 -8.5t27 -2.5h92z" />
    <glyph glyph-name="uni0451" unicode="&#x451;" horiz-adv-x="582" 
d="M174 749q38 0 65 -23t27 -65q0 -44 -27 -67t-65 -23q-39 0 -65 23t-26 67q0 42 26.5 65t64.5 23zM425 749q39 0 65 -23t26 -65q0 -44 -26 -67t-65 -23q-38 0 -64.5 23t-26.5 67q0 42 26.5 65t64.5 23zM300 123q31 0 52 10.5t31 29.5h160q-11 -46 -34 -78t-56 -53
t-72.5 -30.5t-82.5 -9.5q-125 0 -194.5 71.5t-69.5 202.5q0 58 18.5 108t52 86.5t82 57t109.5 20.5t108 -19t79 -54t48.5 -83t16.5 -104q0 -16 -1.5 -30.5t-4.5 -31.5h-350q4 -38 29.5 -65t78.5 -28zM397 322q0 37 -26.5 61t-72.5 24q-51 0 -76 -25.5t-28 -59.5h203z" />
    <glyph glyph-name="uni0454" unicode="&#x454;" horiz-adv-x="564" 
d="M291 125q24 0 50 7t38 30h158q-9 -44 -32 -76t-55 -53.5t-71.5 -31.5t-80.5 -10q-131 0 -199.5 71.5t-68.5 201.5q0 61 17.5 111.5t51 86.5t83 55t114.5 19q43 0 83 -11t72 -33.5t54.5 -56.5t31.5 -79h-159q-11 26 -37 35t-52 9q-36 0 -66.5 -17.5t-35.5 -56.5h178v-125
h-179q0 -20 10 -34t25 -23.5t34 -14t36 -4.5z" />
    <glyph glyph-name="uni0456" unicode="&#x456;" horiz-adv-x="287" 
d="M143 774q42 0 69.5 -25t27.5 -69q0 -46 -27.5 -70.5t-69.5 -24.5q-40 0 -68.5 24t-28.5 71q0 44 29 69t68 25zM222 0h-157v527h157v-527z" />
    <glyph glyph-name="uni0457" unicode="&#x457;" horiz-adv-x="286" 
d="M47 763q39 0 62 -23t23 -63q0 -42 -23 -65t-62 -23q-37 0 -60 23t-23 65q0 39 23.5 62.5t59.5 23.5zM238 763q38 0 61 -23t23 -63q0 -42 -23 -65t-61 -23t-61 23t-23 65q0 39 24 62.5t60 23.5zM222 0h-157v527h157v-527z" />
    <glyph glyph-name="uni0490" unicode="&#x490;" horiz-adv-x="595" 
d="M74 0v708h338v161h163v-310h-338v-559h-163z" />
    <glyph glyph-name="uni0491" unicode="&#x491;" horiz-adv-x="468" 
d="M452 682v-295h-240v-387h-157v527h243v155h154z" />
    <glyph glyph-name="uni04C1" unicode="&#x4c1;" horiz-adv-x="999" 
d="M501 759q-85 0 -139 40.5t-61 126.5h132q4 -29 22.5 -44t45.5 -15q28 0 46 15t21 44h133q-8 -86 -61.5 -126.5t-138.5 -40.5zM581 279v-279h-163v279h-69l-158 -279h-190l217 369l-216 339h187l165 -283h64v283h163v-283h63l166 283h187l-216 -339l217 -369h-191
l-157 279h-69z" />
    <glyph glyph-name="uni04C2" unicode="&#x4c2;" horiz-adv-x="852" 
d="M426 567q-86 0 -140.5 40t-61.5 129h134q4 -29 22.5 -44.5t45.5 -15.5q29 0 47 15.5t21 44.5h134q-8 -89 -62 -129t-140 -40zM505 191v-191h-158v191h-63l-100 -191h-183l157 276l-149 251h175l104 -196h59v196h158v-196h61l102 196h175l-149 -251l157 -276h-183l-99 191
h-64z" />
    <glyph glyph-name="uni2009" unicode="&#x2009;" horiz-adv-x="130" 
 />
    <glyph glyph-name="endash" unicode="&#x2013;" horiz-adv-x="635" 
d="M574 224h-513v138h513v-138z" />
    <glyph glyph-name="emdash" unicode="&#x2014;" horiz-adv-x="856" 
d="M795 224h-734v138h734v-138z" />
    <glyph glyph-name="quoteleft" unicode="&#x2018;" horiz-adv-x="311" 
d="M168 608q33 -2 56 -24.5t23 -60.5q0 -45 -28.5 -68.5t-66.5 -22.5q-25 0 -43.5 10t-30.5 26.5t-17.5 38.5t-5.5 46q0 37 13.5 71t36 62t51 49t59.5 32l42 -62q-13 -8 -27 -18.5t-26.5 -23.5t-22 -27t-13.5 -28z" />
    <glyph glyph-name="quoteright" unicode="&#x2019;" horiz-adv-x="311" 
d="M142 563q-33 2 -55.5 24.5t-22.5 61.5q0 45 27.5 67.5t66.5 22.5q25 0 43.5 -10t30.5 -26.5t18 -38t6 -45.5q0 -37 -14 -71.5t-36.5 -63t-51.5 -49.5t-59 -30l-10 16l-21 30l-10 16q13 7 27 18t26.5 24t22 27t12.5 27z" />
    <glyph glyph-name="quotesinglbase" unicode="&#x201a;" horiz-adv-x="311" 
d="M142 -7q-33 2 -55.5 24.5t-22.5 61.5q0 45 27.5 67.5t66.5 22.5q25 0 43.5 -10t30.5 -26.5t18 -38t6 -45.5q0 -37 -14 -71.5t-36.5 -63t-51.5 -49.5t-59 -30l-41 61q13 7 27 18.5t26.5 24t22 26.5t12.5 28z" />
    <glyph glyph-name="quotedblleft" unicode="&#x201c;" horiz-adv-x="550" 
d="M407 608q34 -2 56.5 -24.5t22.5 -60.5q0 -45 -28 -68.5t-66 -22.5q-26 0 -44.5 10t-30.5 26.5t-17.5 38.5t-5.5 46q0 37 13.5 71t36 62t51.5 49t60 32l10 -16l21 -30l10 -16q-13 -8 -27 -18.5t-26.5 -23.5t-22 -27t-13.5 -28zM168 608q34 -2 56.5 -24.5t22.5 -60.5
q0 -45 -28 -68.5t-67 -22.5q-25 0 -43.5 10t-30.5 26.5t-17.5 38.5t-5.5 46q0 37 13.5 71t36 62t51.5 49t60 32l10 -16l21 -30l10 -16q-13 -8 -27 -18.5t-26.5 -23.5t-22 -27t-13.5 -28z" />
    <glyph glyph-name="quotedblright" unicode="&#x201d;" horiz-adv-x="550" 
d="M143 563q-34 2 -56.5 24.5t-22.5 61.5q0 45 27.5 67.5t66.5 22.5q25 0 43.5 -10t30.5 -26.5t18 -38t6 -45.5q0 -37 -13.5 -71.5t-36 -62.5t-51.5 -49t-60 -31l-10 16l-21 30l-10 16q13 7 27 18t26.5 24t22 27t13.5 27zM382 563q-34 2 -56.5 24.5t-22.5 61.5q0 45 28 67.5
t67 22.5q25 0 43.5 -10t30.5 -26.5t17.5 -38t5.5 -45.5q0 -37 -13.5 -71.5t-36 -62.5t-51.5 -49t-60 -31l-10 16l-21 30l-10 16q13 7 27 18t26.5 24t22 27t13.5 27z" />
    <glyph glyph-name="quotedblbase" unicode="&#x201e;" horiz-adv-x="550" 
d="M143 -7q-34 2 -56.5 24.5t-22.5 61.5q0 45 27.5 67.5t66.5 22.5q25 0 43.5 -10t30.5 -26.5t18 -38t6 -45.5q0 -37 -13.5 -71t-36 -62.5t-51.5 -49.5t-60 -31l-41 61q13 7 27 18.5t26.5 24t22 26.5t13.5 28zM382 -7q-34 2 -56.5 24.5t-22.5 61.5q0 45 28 67.5t67 22.5
q25 0 43.5 -10t30.5 -26.5t17.5 -38t5.5 -45.5q0 -37 -13.5 -71t-36 -62.5t-51.5 -49.5t-60 -31l-41 61q13 7 27 18.5t26.5 24t22 26.5t13.5 28z" />
    <glyph glyph-name="bullet" unicode="&#x2022;" horiz-adv-x="384" 
d="M193 509q31 0 58 -10.5t46 -29.5t30 -46t11 -60q0 -69 -41 -107t-104 -38q-64 0 -105.5 38t-41.5 107t41.5 107.5t105.5 38.5z" />
    <glyph glyph-name="ellipsis" unicode="&#x2026;" horiz-adv-x="800" 
d="M140 184q41 0 68.5 -25.5t27.5 -71.5q0 -48 -27.5 -72t-68.5 -24q-40 0 -68 24t-28 72q0 46 28.5 71.5t67.5 25.5zM401 184q41 0 68.5 -25.5t27.5 -71.5q0 -48 -27.5 -72t-68.5 -24q-40 0 -68 24t-28 72q0 46 28.5 71.5t67.5 25.5zM661 184q40 0 67.5 -25.5t27.5 -71.5
q0 -48 -27.5 -72t-67.5 -24q-41 0 -69 24t-28 72q0 46 29 71.5t68 25.5z" />
    <glyph glyph-name="uni202F" unicode="&#x202f;" horiz-adv-x="130" 
 />
    <glyph glyph-name="guilsinglleft" unicode="&#x2039;" horiz-adv-x="371" 
d="M187 274l138 -195h-164l-135 195l135 194h164z" />
    <glyph glyph-name="guilsinglright" unicode="&#x203a;" horiz-adv-x="372" 
d="M46 468h164l136 -194l-136 -195h-164l139 195z" />
    <glyph glyph-name="Euro" unicode="&#x20ac;" horiz-adv-x="751" 
d="M475 -8q-60 0 -112 14t-94 42t-71.5 68.5t-43.5 93.5h-118l24 121h76v47h-93q5 30 11.5 60t11.5 61h90q19 54 50.5 94.5t72.5 67.5t90 40.5t103 13.5q73 0 128.5 -19.5t106.5 -70.5l-81 -109q-14 13 -29 23.5t-32.5 18.5t-38.5 12.5t-48 4.5q-44 0 -85.5 -18t-63.5 -58
h238l-23 -121h-248q-1 -12 -0.5 -24t0.5 -23h242q-6 -31 -12 -60.5t-11 -60.5h-187q17 -38 59 -55.5t91 -17.5q47 0 84.5 15t69.5 47l83 -111q-46 -51 -105.5 -73.5t-134.5 -22.5z" />
    <glyph glyph-name="uni20B4" unicode="&#x20b4;" horiz-adv-x="599" 
d="M319 715q39 0 79.5 -8.5t73.5 -29t54.5 -53.5t21.5 -82q0 -17 -5.5 -37.5t-16.5 -34.5h39v-97h-119l-72 -45h191v-95h-323q-11 -7 -17.5 -18.5t-6.5 -21.5q0 -28 22 -42t58 -15q41 -1 66 12t30 45h155q0 -57 -22 -96t-58 -62.5t-82.5 -34t-95.5 -10.5q-38 0 -79 9t-75 29
t-56 53.5t-22 82.5q0 19 5.5 38.5t14.5 30.5h-45v95h124q17 10 39 23.5t36 21.5h-199v96h326q14 8 21 21.5t7 25.5q0 22 -20 37t-59 16q-20 0 -33.5 -2.5t-26.5 -8.5t-22 -18t-11 -30h-156q0 59 23 98.5t60 63t83 33.5t93 10z" />
    <glyph glyph-name="uni20BD" unicode="&#x20bd;" horiz-adv-x="705" 
d="M390 708q58 0 109 -10.5t89 -36.5t59.5 -70t21.5 -111q0 -61 -21 -104t-57 -70.5t-84.5 -40t-103.5 -12.5h-113v-60h182v-121h-182v-72h-163v72h-81v121h81v60h-81v130h81v325h263zM385 383q26 0 48.5 5t39 15.5t26 27.5t9.5 41q0 51 -33 69t-91 18h-94v-176h95z" />
    <glyph glyph-name="uni2116" unicode="&#x2116;" horiz-adv-x="1095" 
d="M870 366q-40 0 -73 12.5t-56.5 35.5t-36.5 55.5t-13 72.5t13 72t36 55t56 35.5t74 12.5q42 0 75 -12.5t56 -36t35.5 -55.5t12.5 -71q0 -40 -13 -72.5t-37 -55.5t-57 -35.5t-72 -12.5zM200 708l262 -418v418h160v-708h-152l-264 416v-416h-160v708h154zM870 601
q-16 0 -27 -5.5t-18 -14.5t-10 -19.5t-3 -19.5q0 -21 13 -40t45 -19q31 0 44 19t13 40q0 9 -3 19.5t-10 19.5t-18 14.5t-26 5.5zM708 334h323v-120h-323v120z" />
    <glyph glyph-name="uni2117" unicode="&#x2117;" horiz-adv-x="918" 
d="M461 -84q-91 0 -167 27.5t-131 79t-86 127t-31 171.5q0 94 31.5 169t87 127.5t131.5 81t165 28.5q87 0 162 -29t130.5 -82.5t87 -128.5t31.5 -166q0 -96 -30 -171t-84.5 -127t-130 -79.5t-166.5 -27.5zM465 30q71 0 125.5 20.5t91 58.5t55.5 91.5t19 119.5
q0 64 -19.5 117.5t-57 91.5t-91.5 59.5t-123 21.5t-124 -21t-93.5 -59t-59 -91.5t-20.5 -118.5q0 -66 20 -120t58 -91.5t93 -58t126 -20.5zM425 219v-132h-110v451h173q39 0 72 -8t57 -27t37.5 -49.5t13.5 -75.5q-1 -41 -14.5 -70.5t-37 -49.5t-55 -29.5t-68.5 -9.5h-68z
M425 440v-128h64q33 0 52 18t19 46q0 64 -72 64h-63z" />
    <glyph glyph-name="trademark" unicode="&#x2122;" horiz-adv-x="789" 
d="M139 599h-93v109h299v-109h-94v-215h-112v215zM551 438q-17 26 -35 54.5t-36 54.5v-163h-101v324h106q19 -31 38 -61.5t39 -60.5l76 122h105v-324h-100v163q-18 -26 -35.5 -54.5t-34.5 -54.5h-22z" />
    <glyph glyph-name="arrowleft" unicode="&#x2190;" horiz-adv-x="765" 
d="M402 4l-360 336l360 337l92 -109l-186 -159h414v-136h-414l186 -160z" />
    <glyph glyph-name="arrowup" unicode="&#x2191;" horiz-adv-x="765" 
d="M46 320l336 360l337 -360l-109 -92l-159 186v-414h-136v414l-160 -186z" />
    <glyph glyph-name="arrowright" unicode="&#x2192;" horiz-adv-x="765" 
d="M362 676l360 -336l-360 -337l-92 109l186 159h-414v136h414l-186 160z" />
    <glyph glyph-name="arrowdown" unicode="&#x2193;" horiz-adv-x="765" 
d="M155 449l160 -186v414h136v-414l159 186l109 -93l-337 -359l-336 359z" />
    <glyph glyph-name="uni2196" unicode="&#x2196;" horiz-adv-x="765" 
d="M159 88l-17 492l492 -16l-12 -142l-244 19l293 -293l-96 -96l-293 293l19 -245z" />
    <glyph glyph-name="uni2197" unicode="&#x2197;" horiz-adv-x="765" 
d="M130 563l492 17l-16 -492l-142 12l19 244l-293 -293l-96 96l293 293l-245 -19z" />
    <glyph glyph-name="uni2198" unicode="&#x2198;" horiz-adv-x="765" 
d="M605 592l17 -492l-492 16l12 142l244 -19l-293 293l96 96l293 -293l-19 245z" />
    <glyph glyph-name="uni2199" unicode="&#x2199;" horiz-adv-x="765" 
d="M634 117l-492 -17l16 492l142 -12l-19 -244l293 293l96 -96l-293 -293l245 19z" />
    <glyph glyph-name="uni21A9" unicode="&#x21a9;" horiz-adv-x="1189" 
d="M167 536v138h644q72 0 132.5 -26t105 -71.5t69.5 -107t25 -133.5q0 -71 -25.5 -132t-70 -106.5t-105 -71.5t-131.5 -26h-490l183 -154l-85 -108l-373 331l372 330l86 -109l-182 -153h471q44 0 82 15t65.5 41.5t43 63.5t15.5 81t-16 80.5t-43.5 62.5t-65.5 40.5t-81 14.5
h-626z" />
    <glyph glyph-name="uni21B6" unicode="&#x21b6;" horiz-adv-x="1047" 
d="M254 171q-26 42 -40 91t-13 100q1 84 30.5 152t81.5 117t124 75.5t159 26.5t160.5 -27t127.5 -77.5t84.5 -123t32.5 -163.5h-145q-2 56 -21.5 102t-53 78.5t-79 50.5t-100.5 18q-60 0 -107.5 -19t-80.5 -52t-50.5 -78t-17.5 -96q0 -34 10 -67.5t27 -62.5l54 171l130 -44
l-139 -379l-382 147l50 126z" />
    <glyph glyph-name="uni21B7" unicode="&#x21b7;" horiz-adv-x="1047" 
d="M951 237l50 -126l-382 -147l-139 380l130 44l54 -177q17 29 27 65t10 70q0 51 -17.5 96t-50.5 78t-80.5 52t-106.5 19q-55 0 -101 -18t-80 -50.5t-53.5 -78.5t-20.5 -102h-145q2 91 32.5 163.5t84.5 123t127.5 77.5t161.5 27q87 0 158.5 -27t123.5 -75.5t80.5 -117
t30.5 -152.5q2 -51 -12 -99.5t-40 -90.5z" />
    <glyph glyph-name="uni21BA" unicode="&#x21ba;" horiz-adv-x="967" 
d="M736 619q30 -26 54 -59t40.5 -71.5t25 -79.5t8.5 -81q-1 -83 -31 -151t-83.5 -117.5t-128.5 -76.5t-167 -27t-166.5 29t-127.5 81.5t-82.5 126t-30.5 161.5q0 100 41 186t126 146l96 -108q-60 -44 -87 -104t-27 -121q0 -49 16.5 -95t49.5 -82t81.5 -58t112.5 -22
q61 0 109 20t81 54t50.5 77.5t17.5 91.5q0 16 -2.5 39t-11 49t-25 54.5t-43.5 57.5v-45l1 -89v-45h-125l8 398l405 -35l-14 -125z" />
    <glyph glyph-name="uni21BB" unicode="&#x21bb;" horiz-adv-x="966" 
d="M60 598q-4 32 -7.5 62.5t-6.5 62.5l405 35l8 -398h-126l2 179q-46 -45 -65 -96t-19 -98t16.5 -91t49 -78.5t80.5 -56t110 -22.5q64 0 113 21t82.5 56t51 80.5t17.5 95.5q0 62 -26.5 122.5t-87.5 105.5q12 14 23 27l49 54q12 14 23 27q85 -59 126 -144.5t41 -184.5
q0 -89 -29 -163t-82.5 -127t-129 -82.5t-168.5 -29.5q-92 0 -167.5 28t-128.5 78.5t-82 119.5t-29 152q0 39 8.5 79.5t25 78t40 70.5t53.5 58z" />
    <glyph glyph-name="minus" unicode="&#x2212;" horiz-adv-x="585" 
d="M61 292v138h463v-138h-463z" />
    <glyph glyph-name="approxequal" unicode="&#x2248;" horiz-adv-x="648" 
d="M56 386q0 36 8 70.5t27 61.5t51.5 43.5t81.5 16.5q38 0 67 -13.5t51.5 -29t40.5 -29t34 -13.5q12 0 18.5 5.5t9.5 14.5t4 19.5t1 20.5h141q0 -35 -7 -69t-25 -61t-49 -44t-79 -17q-37 0 -67 14t-54 30.5t-43.5 30t-34.5 13.5q-12 0 -19.5 -6t-11 -15.5t-4 -20.5t-0.5 -22
h-141zM56 154q0 36 8 70.5t27 61t51.5 43t81.5 16.5q38 0 67 -13.5t51.5 -29t40.5 -29t34 -13.5q12 0 18.5 6t9.5 15t4 19.5t1 20.5h141q0 -35 -7 -69.5t-25 -61.5t-49 -44t-79 -17q-37 0 -67 14t-54 30.5t-43.5 30.5t-34.5 14q-12 0 -19.5 -6t-11 -15.5t-4 -21t-0.5 -21.5
h-141z" />
    <glyph glyph-name="notequal" unicode="&#x2260;" horiz-adv-x="582" 
d="M56 410v137h250l71 156h149l-71 -156h65v-137h-128l-53 -116h181v-138h-244l-71 -156h-149l71 156h-71v138h134l53 116h-187z" />
    <glyph glyph-name="lessequal" unicode="&#x2264;" horiz-adv-x="554" 
d="M504 507l-230 -102l230 -104v-156l-454 214v84l454 218v-154zM50 0v138h454v-138h-454z" />
    <glyph glyph-name="greaterequal" unicode="&#x2265;" horiz-adv-x="554" 
d="M50 300l230 102l-230 103v156l454 -214v-83l-454 -219v155zM50 0v138h454v-138h-454z" />
    <glyph glyph-name="uni2713" unicode="&#x2713;" horiz-adv-x="1092" 
d="M400 209l538 617l108 -103l-644 -739l-356 388l105 105z" />
    <glyph glyph-name="uni27F5" unicode="&#x27f5;" horiz-adv-x="1406" 
d="M506 494l-183 -152h1037v-138h-1037l183 -153l-87 -108l-373 331l372 330z" />
    <glyph glyph-name="uni27F6" unicode="&#x27f6;" horiz-adv-x="1406" 
d="M987 604l373 -330l-373 -331l-87 108l182 153h-1036v138h1036l-182 152z" />
    <glyph glyph-name="uniE000" unicode="&#xe000;" 
d="M337 717q70 0 123 -25t88.5 -72t53.5 -114t18 -151q0 -85 -17.5 -152t-53 -113.5t-89 -71.5t-125.5 -25t-126 25t-89 71.5t-52.5 113.5t-17.5 152q0 84 18 151.5t54 114t90 71.5t125 25zM335 141q36 0 60.5 17t38.5 46.5t20 68t6 82.5q0 42 -5.5 80.5t-20 68t-38 46.5
t-59.5 17q-37 0 -61.5 -17t-39 -46t-20.5 -67.5t-6 -81.5t5.5 -82t20 -68t38.5 -46.5t61 -17.5z" />
    <glyph glyph-name="uniE001" unicode="&#xe001;" 
d="M417 0h-163v504h-139v120q60 0 107 18.5t75 65.5h120v-708z" />
    <glyph glyph-name="uniE002" unicode="&#xe002;" 
d="M86 133q48 39 95.5 78.5t95.5 81.5q68 59 90.5 82.5t38 51t15.5 58.5q0 34 -21.5 57.5t-66.5 23.5q-51 0 -73.5 -22t-27.5 -53h-151q2 56 23 98.5t56 70.5t81.5 42t99.5 14q49 0 93.5 -14t77.5 -41.5t52.5 -68.5t19.5 -96q0 -59 -25 -109t-64.5 -92t-85.5 -78.5
t-88 -69.5h255v-147h-490v133z" />
    <glyph glyph-name="uniE003" unicode="&#xe003;" 
d="M72 497q5 57 27.5 98.5t57.5 68.5t80.5 40t97.5 13q46 0 90.5 -10.5t79 -33.5t55.5 -59.5t21 -89.5q0 -43 -21.5 -81t-57.5 -59q53 -20 79.5 -65.5t25.5 -102.5q-1 -65 -26.5 -108t-65 -69t-87.5 -36t-94 -10q-115 0 -192.5 57t-89.5 173h160q10 -44 45 -62.5t79 -18.5
q20 0 38.5 4t32.5 13.5t22.5 25t8.5 37.5q0 28 -19 49t-67 21h-82v134h55q29 0 47 8.5t27.5 20.5t12 25.5t2.5 22.5q-1 31 -24.5 48.5t-59.5 17.5q-41 0 -67.5 -19t-32.5 -53h-158z" />
    <glyph glyph-name="uniE004" unicode="&#xe004;" 
d="M553 272h76v-145h-76v-127h-163v127h-345v120l317 461h191v-436zM229 272h161v247z" />
    <glyph glyph-name="uniE005" unicode="&#xe005;" 
d="M87 297q7 103 14.5 206.5t12.5 204.5h460v-146h-318q-2 -29 -4.5 -59t-5.5 -59q32 17 63.5 23.5t62.5 6.5q55 0 98 -16.5t72.5 -46.5t44.5 -72.5t15 -94.5q0 -60 -20.5 -106.5t-56 -79t-84.5 -49t-106 -16.5q-109 0 -178 53.5t-82 172.5h159q7 -32 32.5 -53.5t65.5 -23.5
q55 0 80 27t25 69q0 18 -6.5 35.5t-19.5 31t-31.5 22t-43.5 8.5q-32 0 -58 -10t-49 -28h-142z" />
    <glyph glyph-name="uniE006" unicode="&#xe006;" 
d="M437 509q-8 29 -33 45t-61 16t-63.5 -15t-44.5 -40t-25.5 -56.5t-8.5 -63.5q17 20 38 33.5t42.5 21.5t43 11.5t39.5 3.5q106 0 166.5 -58.5t60.5 -168.5q0 -57 -20.5 -102t-55 -76.5t-80 -48.5t-96.5 -17q-79 0 -134 28.5t-89 76.5t-49 111t-15 132q0 70 15 135.5
t51.5 120t94.5 86t137 32.5q48 0 88 -12t72.5 -37.5t53.5 -64.5t26 -93h-153zM330 139q46 0 72.5 27.5t26.5 65.5q0 42 -24.5 69.5t-75.5 26.5q-41 -1 -67.5 -27t-28.5 -62q0 -19 5.5 -37t17.5 -31.5t30.5 -22t43.5 -9.5z" />
    <glyph glyph-name="uniE007" unicode="&#xe007;" 
d="M146 0l260 559h-321v149h507v-119l-264 -589h-182z" />
    <glyph glyph-name="uniE008" unicode="&#xe008;" 
d="M605 206q-1 -58 -24.5 -98.5t-61.5 -66t-86 -37.5t-97 -12q-51 0 -99 12t-86 37.5t-61.5 66.5t-24.5 100q0 60 23.5 104.5t77.5 68.5q-35 23 -55 59.5t-20 78.5q0 55 21 92.5t55.5 61t78.5 34t91 10.5q46 0 90 -10.5t77.5 -34.5t54 -61.5t20.5 -91.5q0 -42 -21 -79.5
t-55 -58.5q53 -23 77.5 -67.5t24.5 -107.5zM335 578q-41 0 -64 -20t-23 -56q0 -35 23.5 -56t63.5 -21q42 0 64 21.5t22 56.5t-24 55t-62 20zM442 221q0 43 -31 64t-77 21t-77 -21.5t-31 -63.5q0 -22 8.5 -38.5t23.5 -27t35 -16t42 -5.5t41.5 5.5t34 16t23 27t8.5 38.5z" />
    <glyph glyph-name="uniE009" unicode="&#xe009;" 
d="M236 199q8 -30 37 -45t64 -15q32 0 56.5 14t40.5 38t24.5 54.5t9.5 63.5q-17 -19 -37 -31.5t-41 -20t-42 -10.5t-39 -3q-52 0 -94.5 15.5t-72.5 45t-46.5 71t-16.5 93.5q0 60 21 106t57 77t84 47t102 16q80 0 133 -32.5t84.5 -84.5t44.5 -117.5t13 -131.5
q0 -69 -15 -133.5t-49 -114t-87.5 -79t-130.5 -29.5q-49 0 -93 12t-78 37.5t-56 64.5t-28 92h155zM342 570q-48 0 -75.5 -25.5t-27.5 -67.5t26.5 -69t75.5 -27q24 0 42.5 8t31 21t18.5 29.5t6 33.5q0 43 -27 70t-70 27z" />
    <glyph glyph-name="uniE010" unicode="&#xe010;" horiz-adv-x="339" 
d="M170 180q40 0 67 -25t27 -72q0 -48 -27 -72t-67 -24q-41 0 -68 24t-27 72q0 46 27.5 71.5t67.5 25.5z" />
    <glyph glyph-name="uniE011" unicode="&#xe011;" horiz-adv-x="359" 
d="M162 -9q-34 3 -59 25.5t-25 64.5q0 47 30 71t70 24q52 0 78.5 -37t24.5 -91q-1 -39 -16 -75.5t-39 -66t-54 -50.5t-61 -31l-43 65q13 7 27.5 18t28 24.5t23.5 28.5t15 30z" />
    <glyph glyph-name="uniE012" unicode="&#xe012;" horiz-adv-x="342" 
d="M171 528q42 0 69 -26.5t27 -71.5q0 -48 -27 -72t-69 -24q-41 0 -68.5 24t-27.5 72q0 45 28 71.5t68 26.5zM171 184q42 0 69 -26t27 -71q0 -48 -27 -72t-69 -24q-41 0 -68.5 24t-27.5 72q0 45 28 71t68 26z" />
    <glyph glyph-name="uniE013" unicode="&#xe013;" horiz-adv-x="357" 
d="M180 528q41 0 68 -26.5t27 -71.5q0 -48 -27 -72t-68 -24q-42 0 -69.5 24t-27.5 72q0 45 28 71.5t69 26.5zM163 -8q-35 3 -59 26t-24 64q0 48 29 71.5t70 23.5q27 0 46 -10t32 -27.5t19 -40.5t6 -48q0 -39 -14 -75t-37.5 -66t-54 -52t-63.5 -33l-44 66q13 7 28 18.5t28 25
t23 28.5t15 29z" />
    <glyph glyph-name="uniE014" unicode="&#xe014;" horiz-adv-x="334" 
d="M219 425h-106l-22 283h152z" />
    <glyph glyph-name="uniE015" unicode="&#xe015;" horiz-adv-x="445" 
d="M371 425h-106l-20 283h150zM175 425h-106l-19 283h148z" />
    <glyph glyph-name="uniE016" unicode="&#xe016;" horiz-adv-x="345" 
d="M156 563q-33 2 -55.5 24.5t-22.5 61.5q0 45 27.5 67.5t66.5 22.5q25 0 43.5 -10t30.5 -26.5t18 -38t6 -45.5q0 -37 -14 -71.5t-36.5 -63t-51.5 -49.5t-59 -30l-10 16l-21 30l-10 16q13 7 27 18t26.5 24t22 27t12.5 27z" />
    <glyph glyph-name="uniE017" unicode="&#xe017;" horiz-adv-x="486" 
d="M111 563q-34 2 -56.5 24.5t-22.5 61.5q0 45 27.5 67.5t66.5 22.5q25 0 43.5 -10t30.5 -26.5t18 -38t6 -45.5q0 -37 -13.5 -71.5t-36 -62.5t-51.5 -49t-60 -31l-10 16l-21 30l-10 16q13 7 27 18t26.5 24t22 27t13.5 27zM350 563q-34 2 -56.5 24.5t-22.5 61.5q0 45 28 67.5
t67 22.5q25 0 43.5 -10t30.5 -26.5t17.5 -38t5.5 -45.5q0 -37 -13.5 -71.5t-36 -62.5t-51.5 -49t-60 -31l-10 16l-21 30l-10 16q13 7 27 18t26.5 24t22 27t13.5 27z" />
    <glyph glyph-name="uniE018" unicode="&#xe018;" horiz-adv-x="346" 
d="M182 608q33 -2 56 -24.5t23 -60.5q0 -45 -28.5 -68.5t-66.5 -22.5q-25 0 -43.5 10t-30.5 26.5t-17.5 38.5t-5.5 46q0 37 13.5 71t36 62t51 49t59.5 32l42 -62q-13 -8 -27 -18.5t-26.5 -23.5t-22 -27t-13.5 -28z" />
    <glyph glyph-name="uniE019" unicode="&#xe019;" horiz-adv-x="486" 
d="M374 608q34 -2 56.5 -24.5t22.5 -60.5q0 -45 -28 -68.5t-66 -22.5q-26 0 -44.5 10t-30.5 26.5t-17.5 38.5t-5.5 46q0 37 13.5 71t36 62t51.5 49t60 32l10 -16l21 -30l10 -16q-13 -8 -27 -18.5t-26.5 -23.5t-22 -27t-13.5 -28zM135 608q34 -2 56.5 -24.5t22.5 -60.5
q0 -45 -28 -68.5t-67 -22.5q-25 0 -43.5 10t-30.5 26.5t-17.5 38.5t-5.5 46q0 37 13.5 71t36 62t51.5 49t60 32l10 -16l21 -30l10 -16q-13 -8 -27 -18.5t-26.5 -23.5t-22 -27t-13.5 -28z" />
    <glyph glyph-name="uniE020" unicode="&#xe020;" horiz-adv-x="346" 
d="M156 -7q-33 2 -55.5 24.5t-22.5 61.5q0 45 27.5 67.5t66.5 22.5q25 0 43.5 -10t30.5 -26.5t18 -38t6 -45.5q0 -37 -14 -71.5t-36.5 -63t-51.5 -49.5t-59 -30l-41 61q13 7 27 18.5t26.5 24t22 26.5t12.5 28z" />
    <glyph glyph-name="uniE021" unicode="&#xe021;" horiz-adv-x="486" 
d="M111 -7q-34 2 -56.5 24.5t-22.5 61.5q0 45 27.5 67.5t66.5 22.5q25 0 43.5 -10t30.5 -26.5t18 -38t6 -45.5q0 -37 -13.5 -71t-36 -62.5t-51.5 -49.5t-60 -31l-41 61q13 7 27 18.5t26.5 24t22 26.5t13.5 28zM350 -7q-34 2 -56.5 24.5t-22.5 61.5q0 45 28 67.5t67 22.5
q25 0 43.5 -10t30.5 -26.5t17.5 -38t5.5 -45.5q0 -37 -13.5 -71t-36 -62.5t-51.5 -49.5t-60 -31l-41 61q13 7 27 18.5t26.5 24t22 26.5t13.5 28z" />
    <glyph glyph-name="uniE022" unicode="&#xe022;" horiz-adv-x="342" 
d="M171 606q42 0 69 -26t27 -71q0 -48 -27 -72t-69 -24q-41 0 -68.5 24t-27.5 72q0 45 28 71t68 26zM171 262q42 0 69 -26t27 -71q0 -48 -27 -72t-69 -24q-41 0 -68.5 24t-27.5 72q0 45 28 71t68 26z" />
    <glyph glyph-name="u_alt" horiz-adv-x="617" 
d="M414 64q-31 -44 -74.5 -58t-88.5 -14q-59 0 -98.5 19.5t-62.5 53t-32 77.5t-9 93v292h158v-273q0 -22 3.5 -43.5t14 -38.5t30 -28t49.5 -10t50.5 14t31.5 30q13 20 16 46t3 43v260h158v-527h-144z" />
    <glyph glyph-name="uni0431_alt" horiz-adv-x="616" 
d="M370 746q46 16 82 32t50 30l83 -113q-20 -40 -65 -61q-34 -16 -71.5 -26.5t-73.5 -21t-68.5 -22t-58.5 -28t-42 -41t-19 -60.5q36 38 79.5 53t94.5 15q48 0 89.5 -16t71 -47t47 -75.5t17.5 -99.5q0 -64 -20 -114.5t-55.5 -86t-86 -54t-112.5 -18.5q-80 1 -134 31t-86 78
t-46.5 109.5t-14.5 123.5q0 63 8 116t27.5 96t51.5 77.5t81 60.5q40 20 83 33.5t88 28.5zM314 134q28 0 50 10t35.5 26t20.5 36t7 40q0 46 -27 78.5t-82 32.5q-51 0 -84 -29t-33 -78q0 -21 7 -42t20.5 -37t35 -26.5t50.5 -10.5z" />
    <glyph glyph-name="y_alt" horiz-adv-x="633" 
d="M311 -115q35 0 57 13.5t34 36t16 51.5t4 61q-28 -32 -68.5 -43.5t-84.5 -11.5q-56 0 -95.5 17t-64.5 49t-36 77t-11 99v293h157v-266q0 -23 3.5 -45.5t14 -40.5t30.5 -29.5t52 -11.5q29 0 49.5 12.5t31.5 28.5q18 25 19.5 58.5t1.5 65.5v228h158v-422q0 -38 -1 -74.5
t-6 -71t-16 -65t-30 -58.5q-35 -50 -90 -74t-128 -24q-47 0 -89.5 12t-76 36t-56.5 62t-31 90h165q5 -22 29 -37.5t62 -15.5z" />
    <glyph glyph-name="y2_alt" horiz-adv-x="589" 
d="M416 527h172l-146 -472q-24 -78 -50 -137t-62.5 -99.5t-87 -61.5t-123.5 -21h-38v154h18q50 0 81 17t51 56l-230 564h186l129 -374z" />
    <glyph glyph-name="K_alt" horiz-adv-x="705" 
d="M237 421l263 287h204l-290 -308l279 -400h-194l-203 293l-59 -58v-235h-163v708h163v-287z" />
    <glyph glyph-name="k_alt" horiz-adv-x="583" 
d="M385 527h197l-211 -219l209 -308h-179l-140 207l-49 -48v-159h-157v708h157v-372z" />
    <glyph glyph-name="i_alt" horiz-adv-x="297" 
d="M154 777q41 0 68.5 -25t27.5 -70q0 -47 -27.5 -71t-68.5 -24q-42 0 -69.5 24.5t-27.5 70.5q0 45 28.5 70t68.5 25zM-1 527h235v-527h-157v386h-78v141z" />
    <glyph glyph-name="j_alt" horiz-adv-x="298" 
d="M155 778q40 0 68 -25.5t28 -70.5q0 -47 -28 -71t-68 -24q-43 0 -71 24.5t-28 70.5q0 45 29 70.5t70 25.5zM-9 527h241v-576q2 -91 -41 -136.5t-137 -45.5h-85v142h36q22 0 36 6t21.5 16t10 23t2.5 26v404h-84v141z" />
    <glyph glyph-name="s_alt" horiz-adv-x="557" 
d="M274 409q-30 1 -51.5 -6.5t-21.5 -29.5q0 -14 13.5 -22.5t34.5 -14.5q45 -12 93.5 -18.5t89.5 -21t67 -45t26 -88.5q0 -53 -24 -86.5t-59.5 -53t-76 -27t-73.5 -7.5q-48 0 -93 11t-81.5 34.5t-60.5 60t-27 88.5h159q2 -17 12 -29t24.5 -19.5t33 -10.5t36.5 -3q76 0 76 40
q0 20 -24 29t-60 15.5t-77.5 14t-77.5 24.5t-60 47t-24 81q0 48 22.5 80t56.5 51t74 27t78 8q44 0 85 -10t73.5 -32t52.5 -57.5t23 -84.5h-152q-2 31 -27 42.5t-60 12.5z" />
    <glyph glyph-name="c_alt" horiz-adv-x="572" 
d="M294 132q27 0 48.5 10t30.5 27h164q-9 -48 -32.5 -81t-56 -54.5t-73 -31.5t-82.5 -10q-129 0 -196 71.5t-67 201.5q0 61 18.5 111t52.5 86t84 55.5t113 19.5q47 0 89 -12t74 -37t53 -62.5t27 -89.5h-162q-7 27 -29.5 42.5t-57.5 15.5q-29 0 -49 -11t-33 -29.5
t-18.5 -41.5t-5.5 -47q0 -29 5.5 -53t18.5 -41.5t34 -28t50 -10.5z" />
    <glyph glyph-name="w_alt" horiz-adv-x="830" 
d="M165 0l-164 527h174l89 -341l78 237h153l78 -237l90 341h166l-164 -527h-170l-79 255l-78 -255h-173z" />
    <glyph glyph-name="W_alt" horiz-adv-x="951" 
d="M379 0h-203l-176 708h184l100 -502l100 352h184l100 -352l100 502h183l-176 -708h-205l-95 342z" />
    <glyph glyph-name="t_alt" horiz-adv-x="389" 
d="M251 386v-186q0 -26 13 -43t45 -17h49v-140h-57q-106 -2 -156.5 37.5t-50.5 138.5v210h-78v141h81l24 137h130v-137h112v-141h-112z" />
    <glyph glyph-name="alt_1" horiz-adv-x="528" 
d="M204 505h-148v121q29 0 58 3.5t54 12.5t45.5 25t33.5 41h121v-563h154v-145h-488v145h170v360z" />
    <glyph glyph-name="colon.uc" horiz-adv-x="300" 
d="M150 606q42 0 69 -26t27 -71q0 -48 -27 -72t-69 -24q-41 0 -68.5 24t-27.5 72q0 45 28 71t68 26zM150 262q42 0 69 -26t27 -71q0 -48 -27 -72t-69 -24q-41 0 -68.5 24t-27.5 72q0 45 28 71t68 26z" />
    <glyph glyph-name="t2.alt" horiz-adv-x="438" 
d="M320 138q23 0 43.5 8.5t30.5 15.5l42 -124q-15 -12 -34.5 -20.5t-40 -14t-40 -8t-34.5 -2.5q-97 0 -144.5 50.5t-47.5 140.5v202h-79v141h79v138h158v-138h156v-141h-156v-165q0 -33 13.5 -57.5t53.5 -25.5z" />
    <glyph glyph-name="hyphen.uc" horiz-adv-x="465" 
d="M404 290h-343v138h343v-138z" />
    <glyph glyph-name="uni00AD.uc" horiz-adv-x="465" 
d="M404 290h-343v138h343v-138z" />
    <glyph glyph-name="endash.uc" horiz-adv-x="632" 
d="M61 290v138h510v-138h-510z" />
    <glyph glyph-name="emdash.uc" horiz-adv-x="852" 
d="M61 290v138h730v-138h-730z" />
    <glyph glyph-name="f_alt" horiz-adv-x="385" 
d="M379 527v-141h-126v-386h-158v386h-79v141h79v47q0 48 15 83t43 57.5t65.5 33.5t79.5 11q33 0 65 -6.5t58 -21.5l-40 -127q-11 7 -26.5 11.5t-34.5 4.5q-32 1 -49.5 -16t-17.5 -46v-31h126z" />
    <glyph glyph-name="g_alt" horiz-adv-x="640" 
d="M428 55q-15 -20 -34 -32t-40.5 -18.5t-43.5 -9.5t-42 -3q-59 1 -103.5 21.5t-74 56.5t-45 84.5t-15.5 106.5q0 59 17 109.5t48.5 87.5t77.5 57.5t106 20.5q37 0 77.5 -11.5t74.5 -48.5l15 51h140v-419q0 -36 -0.5 -73.5t-7 -73.5t-19.5 -68.5t-35 -60.5
q-38 -47 -98.5 -70t-133.5 -23q-64 0 -125 16.5t-111 48.5q13 32 24 65.5t22 65.5q26 -17 69.5 -32t98.5 -15q48 0 79 13.5t48.5 36.5t24 53t6.5 64zM308 133q31 0 54 11t37.5 29t21.5 41.5t7 51.5q0 25 -7.5 47.5t-22.5 40.5t-37.5 28t-51.5 10q-32 0 -55 -11t-37.5 -29.5
t-21 -42.5t-6.5 -49q0 -26 7.5 -48.5t22 -40t37 -28t52.5 -10.5z" />
    <glyph glyph-name="a_alt" horiz-adv-x="580" 
d="M383 0q-1 14 -2 29t-3 30q-17 -22 -47.5 -39t-59 -22.5t-55.5 -5.5q-32 0 -63.5 8t-57.5 26.5t-42.5 49t-16.5 74.5q0 58 30.5 95.5t79.5 55.5q27 10 57.5 16.5t60.5 9.5t58 4t53 2q0 39 -22 55.5t-60 16.5q-30 0 -54.5 -10t-32.5 -36h-161q7 50 29 84.5t55.5 55t74 29.5
t84.5 9q60 0 108.5 -16.5t84.5 -55.5q28 -36 37 -82t9 -99v-284h-144zM376 227q-24 -1 -55 -3t-62 -7t-48 -18t-17 -34q0 -25 17 -37.5t46 -12.5q25 0 46.5 9t37.5 24.5t25 35.5t10 43z" />
    <glyph glyph-name="map" horiz-adv-x="657" 
d="M35 668l16 16q2 2 4 2h39q3 0 4 1l19 19q2 2 4 2h96q2 0 4 -2l46 -46q1 -1 3 -1h33q5 0 5 -5v-25q0 -5 6 -5h6q3 0 4 1l16 17q1 1 4 1h32q5 0 5 -5v-26q0 -2 2 -4l20 -20q4 -3 7 0l10 10q1 1 4 1h6q6 0 6 -5v-79q0 -2 -2 -4l-6 -6q-4 -4 0 -8l59 -59q1 -1 3 -1h12
q5 0 5 -5v-71q0 -2 2 -4l22 -22q2 -2 4 -2h12q3 0 4 -1l16 -17q2 -2 2 -4v-37q0 -2 -2 -4l-6 -5q-4 -4 0 -8l21 -20q1 -1 1 -4q0 -5 -5 -5h-33q-2 0 -3 1l-9 9q-3 4 -7 0l-11 -11q-5 -3 -8 0l-15 15q-3 3 -8 0l-27 -27q-2 -2 -3 -2h-9q-5 0 -5 6v34q0 4 -3.5 5t-5.5 -1
l-22 -22q-1 -1 -1 -3v-27q0 -3 1 -4l10 -10q4 -3 0 -7l-20 -20q-1 -1 -1 -4v-25q0 -2 -2 -4l-22 -22q-1 -1 -1 -3v-12q0 -2 -2 -4l-12 -12q-2 -2 -3 -2h-9q-2 0 -3 -1l-10 -10q-2 -2 -2 -4v-38q0 -6 -5 -6h-20q-3 0 -4 -1l-14 -15q-1 0 -1.5 -0.5t-2.5 -0.5h-3q-5 0 -5 5v23
q0 2 -2 4l-9 9q-3 4 0 7l12 12q6 4 0 8l-12 12q-1 1 -1 4v85q0 3 1 4l14 13q1 1 1 4v119q0 3 -1 4l-13 12q-1 1 -1 4v23q0 3 -2 3l-46 47q-2 2 -2 4v21q0 3 -1 4l-46 46q-2 2 -2 3v26q0 3 -1 4l-31 30q-1 1 -1 4v29q0 2 -2 4l-21 21q-2 2 -2 4v26q0 3 -1 4l-23 23q-2 2 -4 2
h-42q-5 0 -5 5v2q0 3 1 4z" />
    <glyph glyph-name="logo" horiz-adv-x="2914" 
d="M785 505q-4 -9 -14 -12q0 -8 -6 -13.5t-14 -5.5q-3 -15 -19 -15q-7 0 -14 5l-12 13q-6 6 -6 14v26l-25 20h-118l-26 -26v-36h144q9 0 14 -5l25 -26q6 -6 6 -14t-5.5 -13.5t-13.5 -5.5h-38q-8 0 -14 6l-20 19h-109l-94 -94q-2 0 -6 -3.5t-9 -3.5q-6 0 -10 3.5t-6 3.5
l-93 94h-110l-20 -19q-4 -6 -14 -6h-37q-8 0 -14.5 5.5t-6.5 13.5q0 7 7 14l25 26q7 5 14 5h144v36l-26 26h-118l-25 -20v-26q0 -8 -6 -14l-12 -13q-7 -5 -14 -5q-17 0 -19 15q-8 0 -13.5 5.5t-5.5 13.5q-7 2 -12 6.5t-5 12.5q0 7 7 14l12 13q6 6 14 6h27l2 2l31 25
q5 4 12 4h39q5 13 18 13q8 0 14 -6l7 -7h55q7 0 14 -5l4 -5v20l-26 27h-135l-20 -20q-7 -5 -14 -5h-12q-7 0 -14 5l-13 13q-5 7 -5 14q0 8 4 12q-4 5 -4 13q0 7 5 14l13 12q6 6 14 6h12q8 0 14 -6l20 -19h35v28q-12 0 -18.5 15t-6.5 26v37q0 8 5.5 14t13.5 6h51q8 0 13.5 -6
t5.5 -14v-37q0 -11 -6.5 -26t-18.5 -15v-28h25q-1 2 -1 5q0 8 5.5 14t14.5 6q8 0 14 -6l36 -36q5 4 13 4t13.5 -5.5t5.5 -13.5v-156l62 -62v71l-32 32q-6 6 -6 14t6 13.5t14 5.5q7 0 14 -5l4 -5v84l-95 95q-6 5 -6 14v18h-6q-8 0 -13.5 5.5t-5.5 13.5t5.5 14t13.5 6h6v6
q0 8 6 13.5t14 5.5t13.5 -5.5t5.5 -13.5v-6h6q8 0 13.5 -6t5.5 -14t-5.5 -13.5t-13.5 -5.5h-6v-10l62 -62v120q-2 2 -2 3l-55 55q-6 6 -6 14t6 14l12 13q2 2 3.5 2.5t3.5 1.5v20q0 8 6 14l13 12q5 6 13 6q7 0 11 -3q6 6 15 6q8 0 14 -6q5 3 11 3q8 0 14 -6l12 -12
q6 -6 6 -14v-20q5 -1 7 -4l12 -13q6 -6 6 -14t-6 -14l-55 -55q0 -1 -2 -3v-120l62 62v10h-6q-8 0 -13.5 5.5t-5.5 13.5t5.5 14t13.5 6h6v6q0 8 5.5 13.5t13.5 5.5t14 -5.5t6 -13.5v-6h6q8 0 13.5 -6t5.5 -14t-5.5 -13.5t-13.5 -5.5h-6v-18q0 -9 -6 -14l-95 -95v-84l5 5
q5 5 13 5q11 0 15.5 -6t4.5 -13q0 -8 -6 -14l-32 -32v-71l62 62v156q0 8 5.5 13.5t13.5 5.5t13 -4l37 36q5 6 14 6q8 0 13.5 -6t5.5 -14q0 -1 -0.5 -2t-0.5 -3h25v28q-12 0 -18.5 15t-6.5 26v37q0 8 5.5 14t13.5 6h51q8 0 13.5 -6t5.5 -14v-37q0 -11 -6.5 -26t-18.5 -15v-28
h36l19 19q6 6 14 6h12q8 0 14 -6l13 -12q6 -6 6 -14q0 -6 -5 -13q5 -5 5 -12q0 -8 -6 -14l-13 -13q-7 -5 -14 -5h-12q-7 0 -14 5l-19 20h-136l-26 -27v-20l4 5q7 5 14 5h55l7 7q6 6 14 6q13 0 18 -13h39q7 0 12 -4l31 -25q1 0 1 -1h1l1 -1h26q8 0 14 -6l12 -13q6 -6 6 -14
q0 -5 -1 -7zM889 381q43 0 79.5 -13.5t63 -38.5t41.5 -60.5t15 -80.5q0 -43 -15 -78.5t-41.5 -61t-63 -40t-79.5 -14.5t-79.5 13.5t-63 38.5t-41.5 61t-15 81q0 41 14.5 76t40.5 61t62.5 41t81.5 15zM1988 381q43 0 79.5 -13.5t63 -38.5t41.5 -60.5t15 -80.5
q0 -43 -15 -78.5t-41.5 -61t-63 -40t-79.5 -14.5t-79.5 13.5t-63 38.5t-41.5 61t-15 81q0 41 14.5 76t40.5 61t62.5 41t81.5 15zM1418 366q0 9 9 9h22.5t31 0.5t31.5 0.5h24q56 0 96 -15t65.5 -40.5t37 -59t11.5 -70.5q0 -39 -13.5 -74t-40.5 -61.5t-67 -41.5t-93 -15
q-15 0 -46.5 0.5t-58.5 0.5q-9 0 -9 9v357zM262 13q0 -13 -12 -13h-61q-12 0 -12 13v349q0 13 12 13h61q12 0 21 -9l132 -132q2 -2 6 -2q5 0 7 2l132 132q9 9 21 9h61q12 0 12 -13v-349q0 -13 -12 -13h-61q-13 0 -13 13v219q0 3 -4 3q-1 0 -2 -1l-118 -118q-11 -9 -22 -9h-1
q-11 0 -22 9l-118 118q-1 1 -3 1q-4 0 -4 -3v-219zM1132 366q0 9 9 9h67q9 0 9 -9v-281q0 -4 5 -4h139q9 0 9 -9v-63q0 -9 -9 -9h-220q-9 0 -9 9v357zM2405 9q-4 -9 -13 -9h-49q-8 0 -12 9l-146 357q-1 1 -1 3q0 6 6 6h76q8 0 12 -9l91 -234q0 -2 2 -2q1 1 1 2l87 234
q4 9 13 9h70q6 0 6 -6v-1l-1 -1v-1zM2618 367q4 8 12 8h56q8 0 12 -8l141 -358v-1l1 -1v-1q0 -6 -6 -6h-70q-9 0 -11 9l-25 66q-2 4 -6 4h-133q-4 0 -6 -4l-24 -66q-4 -9 -12 -9h-65q-6 0 -6 6q0 2 1 3zM889 74q53 0 80.5 33.5t27.5 80.5q0 51 -31.5 82t-76.5 31
q-47 0 -77.5 -31t-30.5 -82q0 -24 8.5 -45t23 -36.5t34.5 -24t42 -8.5zM1988 74q53 0 80.5 33.5t27.5 80.5q0 51 -31.5 82t-76.5 31q-47 0 -77.5 -31t-30.5 -82q0 -24 8.5 -45t23 -36.5t34.5 -24t42 -8.5zM1508 295q-5 0 -5 -5v-205q0 -6 11.5 -5.5t19.5 0.5q56 0 88.5 28.5
t32.5 82.5q0 52 -34 78.5t-86 26.5h-13t-14 -1zM2617 163v-1q0 -3 3 -3h71q3 0 3 3v1l-37 98l-1 1l-2 -1z" />
    <glyph glyph-name="t0163.alt" horiz-adv-x="438" 
d="M322 138q21 0 41.5 8.5t30.5 15.5l42 -124q-15 -12 -34.5 -20.5t-40 -14t-40 -8t-34.5 -2.5h-6l-7 -28h8q42 0 70.5 -25t28.5 -79q-2 -64 -50 -99.5t-118 -35.5q-20 0 -34.5 2t-29.5 5v92q16 -2 28.5 -3.5t23.5 -1.5q33 0 47 10t14 28q0 11 -5.5 18t-14.5 10.5t-19.5 4.5
t-21.5 1q-15 0 -28.5 -1t-22.5 -3l35 124q-25 12 -43 31q-47 51 -47 141v202h-79v141h79v138h158v-138h156v-141h-156v-163q0 -47 17.5 -66.5t51.5 -18.5z" />
    <glyph glyph-name="t021b.alt" horiz-adv-x="438" 
d="M320 138q23 0 43.5 8.5t30.5 15.5l42 -124q-15 -12 -34.5 -20.5t-40 -14t-40 -8t-34.5 -2.5q-97 0 -144.5 50.5t-47.5 140.5v202h-79v141h79v138h158v-138h156v-141h-156v-165q0 -33 13.5 -57.5t53.5 -25.5zM234 -182q-26 2 -44.5 19t-18.5 47q0 33 22 52t53 18
q39 0 59 -27.5t20 -63.5q0 -30 -10.5 -56t-28 -48.5t-41.5 -38t-48 -24.5l-33 48q10 7 21.5 15t21 17.5t17 20.5t10.5 21z" />
    <glyph glyph-name="a00E2.alt" horiz-adv-x="580" 
d="M336 781q43 -52 85 -104l84 -104h-148l-63 81q-16 -20 -31.5 -40.5t-30.5 -40.5h-148l167 208h85zM383 0q-1 14 -2 29t-3 30q-17 -22 -38.5 -35t-43 -20t-43 -9.5t-37.5 -2.5q-32 0 -64 8t-57.5 26.5t-42 49t-16.5 74.5q0 58 31 95.5t78 55.5q28 10 58.5 16.5t60.5 9.5
t58 4t53 2q0 39 -22 55.5t-60 16.5q-30 0 -54.5 -10t-32.5 -36h-161q7 50 29 84.5t55.5 55t74 29.5t84.5 9q60 0 108.5 -16.5t84.5 -55.5q28 -36 37 -82t9 -99v-284h-144zM376 227q-24 -1 -55 -3t-60.5 -7.5t-48 -19.5t-18.5 -36q0 -25 19.5 -35.5t43.5 -10.5q25 0 46.5 9
t37.5 24.5t25 35.5t10 43z" />
    <glyph glyph-name="a0103.alt" horiz-adv-x="580" 
d="M297 579q-86 0 -140.5 41.5t-61.5 129.5h133q4 -29 23.5 -44t45.5 -15q27 0 46 15.5t22 43.5h134q-7 -88 -61.5 -129.5t-140.5 -41.5zM383 0q-1 14 -2 29t-3 30q-17 -22 -38.5 -35t-43 -20t-43 -9.5t-37.5 -2.5q-32 0 -64 8t-57.5 26.5t-42 49t-16.5 74.5q0 58 31 95.5
t78 55.5q28 10 58.5 16.5t60.5 9.5t58 4t53 2q0 39 -22 55.5t-60 16.5q-30 0 -54.5 -10t-32.5 -36h-161q7 50 29 84.5t55.5 55t74 29.5t84.5 9q60 0 108.5 -16.5t84.5 -55.5q28 -36 37 -82t9 -99v-284h-144zM376 227q-24 -1 -55 -3t-60.5 -7.5t-48 -19.5t-18.5 -36
q0 -25 19.5 -35.5t43.5 -10.5q25 0 46.5 9t37.5 24.5t25 35.5t10 43z" />
    <glyph glyph-name="a00E4.alt" horiz-adv-x="580" 
d="M175 746q38 0 64.5 -23t26.5 -65q0 -44 -26.5 -67t-64.5 -23q-39 0 -65.5 23t-26.5 67q0 41 26.5 64.5t65.5 23.5zM418 746q39 0 65 -23t26 -65q0 -44 -26 -67t-65 -23q-38 0 -64.5 23t-26.5 67q0 41 26.5 64.5t64.5 23.5zM383 0q-1 14 -2 29t-3 30q-17 -22 -38.5 -35
t-43 -20t-43 -9.5t-37.5 -2.5q-32 0 -64 8t-57.5 26.5t-42 49t-16.5 74.5q0 58 31 95.5t78 55.5q28 10 58.5 16.5t60.5 9.5t58 4t53 2q0 39 -22 55.5t-60 16.5q-30 0 -54.5 -10t-32.5 -36h-161q7 50 29 84.5t55.5 55t74 29.5t84.5 9q60 0 108.5 -16.5t84.5 -55.5
q28 -36 37 -82t9 -99v-284h-144zM376 227q-24 -1 -55 -3t-60.5 -7.5t-48 -19.5t-18.5 -36q0 -25 19.5 -35.5t43.5 -10.5q25 0 46.5 9t37.5 24.5t25 35.5t10 43z" />
    <glyph glyph-name="uni2702_alt" horiz-adv-x="643" 
d="M436 43q-36 -31 -75 -41.5t-80 -10.5q-61 0 -109 21t-77.5 58.5t-45 86.5t-15.5 106q0 60 18 110.5t51 87t80 56.5t113 20q38 0 74.5 -12.5t65.5 -40.5l8 43h145v-527h-146zM312 133q29 0 51.5 11t37 28.5t22 41t7.5 50.5q0 54 -29.5 91t-88.5 37q-30 0 -53 -10t-38 -28
t-22 -41t-7 -48q0 -27 7.5 -50.5t22 -41.5t37.5 -29t53 -11z" />
    <glyph glyph-name="logom" horiz-adv-x="825" 
d="M789 508q-4 -9 -15 -12q0 -8 -5.5 -13.5t-13.5 -5.5q-2 -11 -13.5 -14.5t-19.5 4.5l-12 12t-5.5 8.5t-1.5 11.5v21l-25 20h-118l-27 -26v-36h146q8 0 14 -6l25 -25q9 -9 4 -21.5t-18 -12.5q-20 0 -29.5 -0.5t-15 1.5t-10.5 7.5t-17 17.5h-110l-95 -95q-7 -8 -15.5 -8
t-14.5 8l-95 95h-110l-20 -20q-6 -6 -14 -6h-38q-13 0 -18 12t4 22l25 25q6 6 14 6h146v36l-27 26h-118l-25 -20v-21t-1.5 -11.5t-5.5 -8.5l-12 -12t-19.5 -5t-13.5 15q-8 0 -13.5 5.5t-5.5 13.5q-12 2 -15 13.5t5 19.5l12 12t8.5 5.5t11.5 1.5h21l34 27q5 5 12 5h39
q4 10 14 12t18 -5l7 -7h55q7 0 10.5 -3t8.5 -8v21l-27 26h-136q-10 -10 -14.5 -15t-8.5 -7t-8.5 -2.5t-14.5 -0.5q-8 0 -14 5.5t-13 12.5q-11 13 -1 27q-10 13 -1.5 22.5t15.5 16.5q5 6 12 6h15t14 -6l19 -19h36v28q-12 5 -19 16t-7 25v38q0 8 6 14t14 6h51q8 0 14 -6t6 -14
v-38q0 -14 -7 -25t-19 -16v-28h25q-2 8 1 14t8 9t12 2.5t12 -6.5l37 -36q2 1 3 2q6 2 9 2q8 0 14 -6t6 -14v-156l62 -63v72l-32 32q-7 7 -6 14.5t6 13t13 6.5t15 -6l4 -5v84l-95 96q-6 6 -6 14v18h-6q-10 0 -14.5 6.5t-4.5 14t4.5 13.5t14.5 6h6v5q0 10 6 15t13.5 5t13.5 -5
t6 -15v-5h6q10 0 15 -6t5 -13.5t-5 -14t-15 -6.5h-6v-10l62 -62v121q0 2 -8 10l-18 18l-19 19l-12 12q-6 5 -6 13.5t6 14.5q4 4 9 9.5t10 7.5v17.5t1.5 9.5t5.5 7.5t12 11.5q10 12 24 3q8 7 17 6t13 -6q6 4 11 3.5t9.5 -3.5t8.5 -7.5t8 -8.5q6 -6 6 -14.5v-18.5
q5 -2 10 -7.5t9 -9.5q6 -6 6 -14.5t-6 -13.5l-12 -12l-19 -19l-18 -18t-8 -10v-121l62 62v10h-6q-10 0 -14.5 6.5t-4.5 14t4.5 13.5t14.5 6h6v5q0 10 6 15t13.5 5t13.5 -5t6 -15v-5h6q10 0 15 -6t5 -13.5t-5 -14t-15 -6.5h-6v-18t-5 -14l-96 -96v-84q4 5 7.5 8t10.5 3
q14 0 18.5 -12.5t-4.5 -21.5l-32 -32v-72l62 63v156q0 13 11 18.5t21 -2.5l37 36q5 6 12 6.5t12 -2.5t8 -9t1 -14h25v28q-12 5 -19 16t-7 25v38q0 8 6 14t14 6h51q8 0 14 -6t6 -14v-38q0 -14 -7 -25t-19 -16v-28h36q10 10 14.5 15t8.5 7.5t8.5 2.5h14.5q8 0 14 -5.5
t13 -12.5q11 -13 1 -27q5 -6 5 -11.5t-3 -10.5t-8 -9.5t-8 -7.5q-5 -5 -12 -5.5t-15 -0.5t-14 6l-19 19h-136l-27 -26v-21q5 5 8.5 8t10.5 3h55q5 5 9 8.5t12 3.5q13 0 18 -12h39q7 0 12 -5l34 -27h22t11 -1.5t8 -5.5l12 -12q10 -9 5 -21zM263 13q0 -13 -13 -13h-61
q-13 0 -13 13v351q0 13 13 13h61q11 0 22 -9l132 -133q7 -6 13 0l133 133q11 9 22 9h61q12 0 12 -13v-351q0 -13 -12 -13h-61q-13 0 -13 13v220q0 2 -2.5 3.5t-4.5 -0.5l-119 -120q-9 -8 -22 -8t-22 8l-120 120q-2 2 -4 0.5t-2 -3.5v-220z" />
    <glyph glyph-name="tab_1" 
d="M261 505h-151v121q14 0 30.5 0.5t30.5 2.5t27 4.5t26 7.5q26 9 46 26q21 17 34 41h121v-559h155v-149h-488v149h169v356z" />
    <glyph glyph-name="I_alt" horiz-adv-x="609" 
d="M572 708v-149h-186v-410h186v-149h-535v149h186v410h-186v149h535z" />
    <glyph glyph-name="l_alt" horiz-adv-x="331" 
d="M212 199q0 -59 60 -59h43v-140h-59q-54 0 -89.5 8.5t-61.5 28.5q-50 41 -50 139v532h157v-509z" />
    <glyph glyph-name="l2_alt" horiz-adv-x="392" 
d="M280 138q19 0 36 6.5t32 17.5l42 -124q-28 -23 -65.5 -34t-72.5 -11q-96 0 -146.5 47t-50.5 144v524h158v-487q0 -35 14 -58.5t53 -24.5z" />
    </font>
</defs>
</svg>
