<?xml version="1.0" standalone="no"?>
<!DOCTYPE svg PUBLIC "-//W3C//DTD SVG 1.1//EN" "http://www.w3.org/Graphics/SVG/1.1/DTD/svg11.dtd" >
<svg xmlns="http://www.w3.org/2000/svg" xmlns:xlink="http://www.w3.org/1999/xlink" version="1.1">
<metadata>
Created by FontForge 20170731 at Wed Feb 16 14:27:42 2022
 By Aleksey,,,
Copyright (c) 2021-2022, Dmitri Voloshin, Andrey Kudryavtsev
</metadata>
<defs>
<font id="Onest-Light" horiz-adv-x="671" >
  <font-face 
    font-family="Onest Light"
    font-weight="300"
    font-stretch="normal"
    units-per-em="1000"
    panose-1="0 0 0 0 0 0 0 0 0 0"
    ascent="800"
    descent="-200"
    x-height="527"
    cap-height="707"
    bbox="-64 -304 2854 951.125"
    underline-thickness="50"
    underline-position="-150"
    unicode-range="U+000D-E022"
  />
<missing-glyph horiz-adv-x="189" 
 />
    <glyph glyph-name=".notdef" horiz-adv-x="189" 
 />
    <glyph glyph-name="uni0000" horiz-adv-x="0" 
 />
    <glyph glyph-name="uni0000" horiz-adv-x="0" 
 />
    <glyph glyph-name="uni000D" unicode="&#xd;" horiz-adv-x="189" 
 />
    <glyph glyph-name="space" unicode=" " horiz-adv-x="270" 
 />
    <glyph glyph-name="exclam" unicode="!" horiz-adv-x="263" 
d="M102 195l-2 512h64l-2 -512h-60zM132 93q21 0 35 -14.5t14 -35.5q0 -22 -13.5 -36.5t-35.5 -14.5q-23 0 -36.5 14t-13.5 37t13.5 36.5t36.5 13.5z" />
    <glyph glyph-name="quotedbl" unicode="&#x22;" horiz-adv-x="335" 
d="M120 486h-46l-10 221h65zM262 486h-46l-10 221h65z" />
    <glyph glyph-name="numbersign" unicode="#" horiz-adv-x="655" 
d="M64 245h107l23 218h-100v58h106l20 186h63l-20 -186h166l19 186h63l-20 -186h100v-58h-107l-23 -218h100v-58h-106l-20 -187h-62l19 187h-165l-20 -187h-62l19 187h-100v58zM233 245h167l22 218h-166z" />
    <glyph glyph-name="dollar" unicode="$" horiz-adv-x="656" 
d="M308 848h66v-136q37 -4 70.5 -15.5t59.5 -32t44 -50.5t23 -71h-65q-6 32 -22.5 53.5t-40 34.5t-52 19t-58.5 6q-31 0 -62.5 -5.5t-57 -20t-41.5 -39t-16 -61.5q0 -30 10.5 -51.5t28.5 -37t41.5 -25.5t49.5 -17q30 -8 59 -15l38 -8q29 -7 59 -15q31 -9 58 -22.5t47.5 -33
t32 -46.5t11.5 -61q0 -53 -17.5 -91t-47.5 -62.5t-71 -37t-87 -15.5v-134h-65v135q-41 3 -79 14.5t-69.5 32.5t-55 52.5t-35.5 75.5h70q13 -33 36 -55.5t52 -36t62 -19.5t66 -6q31 0 62 7t56 22.5t40.5 40.5t15.5 61q0 28 -10 49t-27.5 35.5t-40.5 24.5t-48 16
q-40 10 -78.5 18t-78.5 19q-68 15 -110.5 59.5t-42.5 118.5q0 50 18 85.5t48.5 58.5t70 34.5t83.5 13.5v134z" />
    <glyph glyph-name="percent" unicode="%" horiz-adv-x="809" 
d="M203 415q-33 0 -59 11.5t-44 31.5t-27 47.5t-9 59.5t9 59.5t26.5 47.5t43.5 31.5t60 11.5t59.5 -12t42.5 -32.5t25.5 -47.5t8.5 -58t-8.5 -58.5t-26 -47.5t-43 -32t-58.5 -12zM149 0l435 707h75l-434 -707h-76zM203 658q-23 0 -38.5 -8t-25 -21t-14 -29.5t-4.5 -34.5
t4.5 -34.5t14 -30t25 -21.5t38.5 -8q22 0 37 8.5t24 22t12.5 30t3.5 33.5q0 16 -3.5 32.5t-12.5 30t-24 22t-37 8.5zM609 -8q-33 0 -59 11.5t-44 31.5t-27 47.5t-9 59.5t9 59.5t26.5 47.5t43.5 31.5t60 11.5t59.5 -12t42.5 -32.5t25.5 -47.5t8.5 -58t-8.5 -58.5t-26 -47.5
t-43 -32t-58.5 -12zM609 235q-23 0 -38.5 -8t-25 -21t-14 -29.5t-4.5 -34.5t4.5 -34.5t14 -30t25 -21.5t38.5 -8q22 0 37 8.5t24 22t12.5 30t3.5 33.5q0 16 -3.5 32.5t-12.5 30t-24 22t-37 8.5z" />
    <glyph glyph-name="ampersand" unicode="&#x26;" horiz-adv-x="668" 
d="M489 69q-45 -40 -96 -58.5t-111 -18.5q-43 0 -81.5 12t-67 35t-45 58t-16.5 81q0 37 13.5 67.5t35 55t50 44t58.5 35.5q-35 33 -60.5 74.5t-25.5 92.5q0 40 13.5 71.5t37 53t56.5 32.5t72 11q34 0 63 -10.5t50 -30t32.5 -47t11.5 -62.5t-12.5 -63.5t-34.5 -52
t-51.5 -43.5t-63.5 -38l174 -205q23 31 36 64.5t19 71.5h63q-6 -51 -26.5 -95t-48.5 -86l105 -118h-87zM282 405q21 12 45.5 27.5t44.5 34.5t33.5 42.5t13.5 51.5q0 45 -30.5 70.5t-73.5 24.5q-51 -1 -80 -27t-29 -77q0 -25 6 -44.5t16.5 -36.5t24.5 -32.5t29 -33.5z
M261 337q-23 -12 -45 -27.5t-38.5 -35t-26.5 -43t-10 -51.5q0 -32 13 -56.5t35 -40.5t50 -24t57 -8q43 0 84 16.5t71 48.5z" />
    <glyph glyph-name="quotesingle" unicode="'" horiz-adv-x="209" 
d="M127 486h-46l-9 221h65z" />
    <glyph glyph-name="parenleft" unicode="(" horiz-adv-x="293" 
d="M318 -218h-68q-43 52 -76.5 114.5t-56.5 130t-35 137.5t-12 138t11.5 138t34 137t55.5 129t77 115h68q-43 -61 -76.5 -121.5t-57 -123.5t-35.5 -130.5t-12 -143.5q0 -75 12 -143.5t35 -132t57.5 -124t78.5 -120.5z" />
    <glyph glyph-name="parenright" unicode=")" horiz-adv-x="293" 
d="M-25 -218q44 60 78 120.5t57.5 124t35.5 132t12 143.5q0 76 -12.5 143.5t-35.5 130.5t-56.5 123.5t-76.5 121.5h68q44 -53 77 -115t55.5 -129t34 -137t11.5 -138t-12 -138t-35 -137.5t-56.5 -130t-76.5 -114.5h-68z" />
    <glyph glyph-name="asterisk" unicode="*" horiz-adv-x="423" 
d="M236 637l95 31l18 -49l-97 -32l60 -81l-41 -30l-60 82l-60 -82l-41 30l60 81l-96 32l15 49l97 -31v101h50v-101z" />
    <glyph glyph-name="plus" unicode="+" horiz-adv-x="518" 
d="M290 542v-157h149v-60h-149v-160h-65v160h-146v60h146v157h65z" />
    <glyph glyph-name="comma" unicode="," horiz-adv-x="252" 
d="M126 94q29 -1 41.5 -20.5t11.5 -46.5q1 -45 -23.5 -86.5t-67.5 -59.5l-16 26q22 14 36.5 35t19.5 50q-26 -2 -40 12.5t-14 39.5q0 22 14.5 36t37.5 14z" />
    <glyph glyph-name="hyphen" unicode="-" horiz-adv-x="453" 
d="M79 311h295v-60h-295v60z" />
    <glyph glyph-name="period" unicode="." horiz-adv-x="245" 
d="M123 94q23 0 36.5 -14t13.5 -36t-13.5 -37t-36.5 -15t-37 15t-14 37t14 36t37 14z" />
    <glyph glyph-name="slash" unicode="/" horiz-adv-x="470" 
d="M356 804h70l-312 -977h-70z" />
    <glyph glyph-name="zero" unicode="0" horiz-adv-x="668" 
d="M607 353q0 -67 -13 -132t-44.5 -116t-84 -82t-131.5 -31t-131.5 31t-83.5 81.5t-44 115.5t-13 133q0 67 13 132t44.5 116t83.5 82.5t131 31.5t131.5 -31.5t84 -82.5t44.5 -116t13 -132zM129 353q0 -53 8 -106.5t30 -97t62 -71t105 -27.5t105 27.5t62.5 71t30 97
t7.5 106.5q0 52 -8 105.5t-30.5 97.5t-62.5 72t-104 28t-104 -28t-62.5 -72t-30.5 -97.5t-8 -105.5z" />
    <glyph glyph-name="one" unicode="1" horiz-adv-x="349" 
d="M237 0h-65v585h-142v39q27 1 51.5 4t45.5 11.5t37.5 24.5t28.5 43h44v-707z" />
    <glyph glyph-name="two" unicode="2" horiz-adv-x="567" 
d="M438 513q0 35 -12 62t-33 45t-50 27t-62 9q-49 0 -91 -20t-61 -65h-73q10 37 33.5 64.5t55 45.5t68 26t72.5 8q47 0 87 -13t69.5 -38t46 -62.5t16.5 -86.5q0 -48 -14.5 -87t-38.5 -73t-55.5 -63.5t-65.5 -58.5l-202 -173h384v-60h-477v62l204 174q31 27 66.5 57t64.5 63
t48.5 73t19.5 84z" />
    <glyph glyph-name="three" unicode="3" horiz-adv-x="598" 
d="M106 141q8 -26 28 -43.5t45.5 -27.5t53.5 -14.5t52 -4.5q36 -1 69 5.5t58.5 23t41 44.5t15.5 69q0 44 -17 71t-44.5 41.5t-62.5 19.5t-71 5h-73v60h48q38 0 75 8.5t67 32.5q22 17 35.5 42t14.5 53q1 36 -12 61t-35.5 40t-51.5 22t-61 7q-25 0 -50 -4t-46 -14.5t-37 -27.5
t-22 -42h-68q5 41 27.5 69t55 45.5t70.5 25t74 7.5q42 0 81.5 -9t70 -30t49 -54.5t18.5 -82.5q0 -57 -31.5 -103.5t-86.5 -63.5q70 -14 110 -60.5t40 -118.5q0 -55 -21 -93.5t-56.5 -62.5t-81 -34.5t-93.5 -10.5q-39 0 -79.5 7.5t-74.5 24.5t-59 46t-33 71h68z" />
    <glyph glyph-name="four" unicode="4" horiz-adv-x="623" 
d="M428 146h-381v52l350 509h96v-501h88v-60h-88v-146h-65v146zM428 647l-302 -441h302v441z" />
    <glyph glyph-name="five" unicode="5" horiz-adv-x="615" 
d="M85 320l34 387h411v-60h-353l-24 -261q38 31 84 45.5t97 14.5q50 0 91 -16t70 -45t45 -70t16 -91q0 -57 -19.5 -100t-53.5 -72.5t-80 -44.5t-99 -15q-39 0 -77 8.5t-69.5 26.5t-55.5 46.5t-35 69.5h69q10 -23 28 -40t41 -28.5t48 -17.5t48 -6q41 0 75.5 10t59 31
t38.5 52.5t14 74.5q0 81 -47.5 124t-126.5 43q-42 0 -82 -18t-71 -48h-76z" />
    <glyph glyph-name="six" unicode="6" horiz-adv-x="626" 
d="M339 445q52 0 93 -16.5t71 -45.5t47 -70t17 -90q0 -52 -18 -94.5t-50 -73t-75.5 -47t-95.5 -16.5q-73 0 -129.5 32t-90.5 97q-26 51 -36 113.5t-8 117.5q1 38 6 78t16.5 79t30.5 74t47 62q34 34 79.5 52t101.5 18q70 0 127 -35t84 -101h-70q-21 38 -61 57.5t-82 19.5
q-63 0 -104 -28t-65 -72q-27 -50 -36 -111.5t-9 -114.5q30 56 88 85.5t122 29.5zM500 214q0 37 -12 68t-33.5 54t-52.5 36t-68 13q-35 0 -68 -12.5t-57.5 -35t-39.5 -53t-14 -66.5t15 -66.5t38 -53t55 -35t66 -12.5t66 12t54 33.5t37 51.5t14 66z" />
    <glyph glyph-name="seven" unicode="7" horiz-adv-x="505" 
d="M112 0l295 647h-390v60h460v-61l-291 -646h-74z" />
    <glyph glyph-name="eight" unicode="8" horiz-adv-x="615" 
d="M553 192q0 -54 -20.5 -92t-54.5 -62t-78.5 -35t-92.5 -11t-92.5 10.5t-78.5 34.5t-54 62t-20 93q0 32 10.5 59.5t28.5 49.5t42.5 37.5t52.5 24.5q-54 17 -83 63t-29 106q0 48 19 83t50.5 57t71.5 32.5t83 10.5q42 0 82.5 -10.5t72 -32.5t50.5 -57t19 -83
q0 -60 -31 -104.5t-83 -61.5q60 -17 97.5 -62.5t37.5 -111.5zM308 656q-33 0 -61.5 -7.5t-49.5 -24t-33 -42t-12 -61.5q0 -35 12.5 -60t34 -41.5t50 -24t59.5 -7.5q28 0 56 8t50.5 24t36 40t13.5 57q0 37 -11.5 63.5t-32.5 43t-49.5 24.5t-62.5 8zM308 331q-33 0 -65 -7.5
t-57.5 -24t-41 -43t-15.5 -65.5t15.5 -66t40.5 -43.5t57 -23.5t66 -7t65.5 7t56.5 23.5t40 43.5t15 66t-15.5 65.5t-40.5 43t-56.5 24t-64.5 7.5z" />
    <glyph glyph-name="nine" unicode="9" horiz-adv-x="622" 
d="M283 264q-48 0 -89 16t-71 45t-47 69.5t-17 90.5q0 53 18 95.5t49.5 72.5t75.5 46t96 16q138 0 208 -119q16 -27 26 -57.5t16 -62.5t9 -63.5t3 -59.5q1 -61 -9 -126t-41 -119q-35 -63 -91.5 -89.5t-127.5 -26.5q-35 0 -70 7.5t-64.5 24t-52.5 42.5t-34 62h75
q21 -40 61.5 -58.5t86.5 -18.5q126 0 174 116q18 43 24 92.5t6 95.5v8l-1 17v7q-8 -24 -24.5 -44.5t-36.5 -35.5q-32 -23 -72 -33.5t-80 -9.5zM126 493q0 -78 45.5 -123t123.5 -45q34 0 65 11.5t54.5 32t37.5 49.5t14 65q0 37 -12.5 68.5t-35 55t-53.5 36.5t-69 13
q-35 0 -66 -12t-54 -34t-36.5 -51.5t-13.5 -65.5z" />
    <glyph glyph-name="colon" unicode=":" horiz-adv-x="245" 
d="M123 459q23 0 36.5 -14.5t13.5 -36.5t-13.5 -37t-36.5 -15t-37 15t-14 37t14 36.5t37 14.5zM123 94q23 0 36.5 -14t13.5 -36t-13.5 -37t-36.5 -15t-37 15t-14 37t14 36t37 14z" />
    <glyph glyph-name="semicolon" unicode=";" horiz-adv-x="252" 
d="M127 459q23 0 37 -14.5t14 -36.5t-13.5 -37t-37.5 -15q-23 0 -36.5 15t-13.5 37t13.5 36.5t36.5 14.5zM126 94q29 -1 41.5 -20.5t11.5 -46.5q1 -45 -23.5 -86.5t-67.5 -59.5l-16 26q22 14 36.5 35t19.5 50q-26 -2 -40 12.5t-14 39.5q0 22 14.5 36t37.5 14z" />
    <glyph glyph-name="less" unicode="&#x3c;" horiz-adv-x="441" 
d="M44 367l323 223v-71l-253 -166l253 -171v-71l-323 222v34z" />
    <glyph glyph-name="equal" unicode="=" horiz-adv-x="539" 
d="M74 507h391v-60h-391v60zM74 251h391v-60h-391v60z" />
    <glyph glyph-name="greater" unicode="&#x3e;" horiz-adv-x="441" 
d="M397 333l-323 -222v71l253 168l-253 169v71l323 -223v-34z" />
    <glyph glyph-name="question" unicode="?" horiz-adv-x="510" 
d="M198 216q-2 24 4 48.5t19 44.5q20 31 48.5 57t54.5 52q25 26 43 56t18 65q0 29 -11 51t-29 36.5t-42.5 22t-51.5 7.5q-23 0 -45 -4t-40.5 -13.5t-33 -25t-21.5 -39.5h-69q7 36 28 63t50 44.5t63.5 25.5t69.5 8q40 0 76 -10.5t63 -32t42.5 -53.5t15.5 -76
q0 -59 -27.5 -99.5t-68.5 -78.5l-31.5 -31.5t-30.5 -33.5q-16 -20 -21 -40t-6 -44h-67zM231 94q23 0 37 -14t14 -36t-14 -37t-37 -15t-36.5 15t-13.5 37t13.5 36t36.5 14z" />
    <glyph glyph-name="at" unicode="@" horiz-adv-x="995" 
d="M630 131q-28 -47 -70.5 -70t-91.5 -22q-43 0 -75 15.5t-52.5 42.5t-30.5 62.5t-10 75.5q0 47 13 91t39 78t64.5 54.5t90.5 20.5q19 0 38.5 -4t37 -13t31.5 -22.5t22 -32.5l8 55h58q-4 -34 -9.5 -72.5t-8.5 -72.5q-2 -31 -5 -61.5t-3 -62.5q0 -20 3 -39t11.5 -34t23 -24.5
t38.5 -9.5q30 0 50.5 16.5t33 43t18 60t6.5 68.5q2 78 -17.5 147.5t-60.5 121.5t-104.5 82.5t-149.5 30.5q-93 0 -164.5 -33t-120 -90t-74 -133.5t-25.5 -163.5q0 -80 24.5 -145.5t71 -112.5t112.5 -73.5t150 -29.5q25 -1 48 1t47 7l6 -61q-28 -5 -55 -6.5t-56 -0.5
q-94 1 -170.5 31t-131 83.5t-84 129t-30.5 169.5q-1 105 29 194t88 154.5t143 102t193 36.5q93 0 166 -32t123.5 -88t76.5 -132.5t26 -166.5q0 -47 -8.5 -94t-29 -84.5t-54 -60.5t-82.5 -23q-47 0 -79.5 24.5t-37.5 72.5zM360 237q0 -28 7 -54t21.5 -46.5t37 -33t53.5 -12.5
q33 0 60 15.5t46.5 43t30 59t10.5 61.5q0 29 -6.5 56.5t-21 49t-38 34.5t-56.5 13q-38 0 -65 -16.5t-44.5 -43.5t-26 -60t-8.5 -66z" />
    <glyph glyph-name="A" unicode="A" horiz-adv-x="648" 
d="M146 157l-58 -157h-73l264 707h91l263 -707h-73l-58 157h-356zM168 217h313l-157 429z" />
    <glyph glyph-name="B" unicode="B" horiz-adv-x="657" 
d="M91 707h244q46 0 87.5 -6.5t73 -25.5t50.5 -53t19 -89q0 -60 -29.5 -101.5t-85.5 -59.5q72 -12 112.5 -59t40.5 -121q0 -59 -24.5 -96t-63.5 -58.5t-88 -29.5t-98 -8h-238v707zM156 647v-256h158q34 0 67.5 6.5t60.5 22.5t44 42.5t17 66.5q0 39 -14 62.5t-37.5 35.5
t-53.5 16t-62 4h-180zM326 60q36 0 73.5 4t68 17.5t50 40.5t19.5 74q0 41 -15.5 67t-40.5 41t-58 21t-67 6h-200v-271h170z" />
    <glyph glyph-name="C" unicode="C" horiz-adv-x="705" 
d="M377 656q-68 0 -116.5 -24t-79.5 -65.5t-46 -96t-15 -115.5q0 -62 15 -117t46.5 -96.5t80 -66t116.5 -24.5q31 0 63 6.5t60 21t50 36.5t34 53h73q-15 -47 -43.5 -80.5t-66 -54.5t-82 -31t-90.5 -10q-83 0 -144 27.5t-100.5 75.5t-59 114t-19.5 144q0 77 20 143.5
t60.5 115t101.5 76t143 27.5q46 0 88.5 -10t78 -31t61 -54.5t39.5 -80.5h-66q-12 31 -33.5 53t-48.5 36.5t-58 21t-62 6.5z" />
    <glyph glyph-name="D" unicode="D" horiz-adv-x="724" 
d="M92 707h247q82 0 144 -25.5t103.5 -72t62.5 -112t21 -144.5q0 -78 -21.5 -143t-63 -111.5t-103.5 -72.5t-143 -26h-247v707zM157 648v-589h175q67 0 118 21.5t85 60.5t51 93t17 119q0 63 -16 117t-49 93.5t-83 62t-117 22.5h-181z" />
    <glyph glyph-name="E" unicode="E" horiz-adv-x="610" 
d="M92 707h465v-60h-400v-266h360v-60h-360v-261h400v-60h-465v707z" />
    <glyph glyph-name="F" unicode="F" horiz-adv-x="599" 
d="M92 0v707h465v-60h-400v-289h342v-60h-342v-298h-65z" />
    <glyph glyph-name="G" unicode="G" horiz-adv-x="726" 
d="M375 656q-69 0 -117.5 -25.5t-79 -68t-44.5 -98t-13 -115.5q1 -61 16 -115t46 -94.5t79 -64.5t115 -24q55 0 98.5 17t73.5 47.5t46.5 74t17.5 96.5h-240v60h300v-50q0 -68 -21 -123.5t-59.5 -96t-93.5 -62.5t-123 -22q-81 0 -141 26.5t-100 73.5t-60 111.5t-21 140.5
t17.5 144t58 118t100 79.5t144.5 29.5q47 0 90.5 -10t80 -31t64 -54.5t42.5 -80.5h-73q-12 31 -33.5 53t-49 36t-58.5 21t-62 7z" />
    <glyph glyph-name="H" unicode="H" horiz-adv-x="730" 
d="M573 377v330h65v-707h-65v317h-416v-317h-65v707h65v-330h416z" />
    <glyph glyph-name="I" unicode="I" horiz-adv-x="249" 
d="M157 0h-65v707h65v-707z" />
    <glyph glyph-name="J" unicode="J" horiz-adv-x="557" 
d="M115 179q8 -66 46.5 -97t103.5 -31q45 0 72.5 15.5t42.5 41.5t20 60.5t5 72.5v466h65v-468q0 -47 -9 -91.5t-32 -79t-65 -55.5t-104 -21q-91 0 -146.5 44t-66.5 143h68z" />
    <glyph glyph-name="K" unicode="K" horiz-adv-x="616" 
d="M92 0v707h65v-335h124l237 335h77l-253 -352l255 -355h-78l-227 312h-135v-312h-65z" />
    <glyph glyph-name="L" unicode="L" horiz-adv-x="602" 
d="M92 0v707h65v-647h400v-60h-465z" />
    <glyph glyph-name="M" unicode="M" horiz-adv-x="836" 
d="M744 707v-707h-65v646q-45 -83 -91 -170l-62 -118q-46 -87 -91 -170h-31l-247 458v-646h-65v707h105l225 -415l221 415h101z" />
    <glyph glyph-name="N" unicode="N" horiz-adv-x="748" 
d="M92 0v707h101l398 -643v643h65v-707h-99l-400 641v-641h-65z" />
    <glyph glyph-name="O" unicode="O" horiz-adv-x="767" 
d="M384 -8q-82 0 -144 27t-103.5 75.5t-62.5 114.5t-21 144t21 144.5t62.5 114.5t103.5 75.5t144 27.5t143.5 -27.5t103 -76t62.5 -114.5t21 -144t-21 -144t-62.5 -114t-103 -75.5t-143.5 -27.5zM384 656q-67 0 -117 -24t-83 -65.5t-49 -96.5t-16 -117t16.5 -117t49.5 -96
t82.5 -65t116.5 -24t117 23.5t82 64.5t48 96t16 118q0 62 -16 117t-48.5 96.5t-82 65.5t-116.5 24z" />
    <glyph glyph-name="P" unicode="P" horiz-adv-x="631" 
d="M92 707h240q115 0 180 -56t65 -175q0 -60 -20.5 -104t-56 -73.5t-84 -43.5t-104.5 -14h-155v-241h-65v707zM310 301q45 0 82 10t63 32t40.5 56t14.5 81q0 90 -49 128.5t-134 38.5h-170v-346h153z" />
    <glyph glyph-name="Q" unicode="Q" horiz-adv-x="767" 
d="M384 -8q-82 0 -144 27t-103.5 75.5t-62.5 114.5t-21 144t21 144.5t62.5 114.5t103.5 75.5t144 27.5t143.5 -27.5t103 -76t62.5 -114.5t21 -144q0 -94 -30.5 -170.5t-91.5 -124.5l108 -150l-53 -39l-111 154q-67 -31 -152 -31zM384 656q-67 0 -117 -24t-83 -65.5
t-49 -96.5t-16 -117t16.5 -117t49.5 -96t82.5 -65t116.5 -24t117 23.5t82 64.5t48 96t16 118q0 62 -16 117t-48.5 96.5t-82 65.5t-116.5 24z" />
    <glyph glyph-name="R" unicode="R" horiz-adv-x="660" 
d="M157 276v-276h-65v707h261q55 0 101 -11.5t79 -37t51 -67t18 -101.5q0 -81 -42 -132t-121 -71l154 -287h-72l-149 276h-215zM330 336q40 0 77.5 6t65.5 23.5t45 48t17 79.5q0 46 -14.5 76t-40 47t-60.5 24t-76 7h-187v-311h173z" />
    <glyph glyph-name="S" unicode="S" horiz-adv-x="652" 
d="M331 656q-31 0 -62.5 -5.5t-57 -20t-41.5 -39t-16 -61.5q0 -30 10.5 -51.5t28.5 -37t41.5 -25.5t49.5 -17q40 -11 78 -19.5t79 -19.5q31 -9 58 -22t47 -32.5t31.5 -46t11.5 -61.5q0 -56 -20 -95.5t-53.5 -64t-78.5 -35.5t-96 -11q-47 0 -91 9t-81.5 30t-65.5 54.5
t-41 82.5h70q13 -33 36 -55.5t52.5 -36t62 -19.5t65.5 -6q31 0 62 7t56 22.5t40.5 40.5t15.5 61q0 29 -10 49.5t-27 35.5t-40 24.5t-49 15.5q-40 10 -78.5 18t-78.5 19q-68 18 -110.5 61t-42.5 117q0 54 20.5 90.5t55 59.5t78.5 33t91 10q43 0 83 -9.5t72.5 -30t54.5 -53
t28 -79.5h-66q-6 33 -22.5 54.5t-40 34.5t-51.5 18.5t-58 5.5z" />
    <glyph glyph-name="T" unicode="T" horiz-adv-x="571" 
d="M552 647h-234v-647h-65v647h-234v60h533v-60z" />
    <glyph glyph-name="U" unicode="U" horiz-adv-x="722" 
d="M635 707v-406q0 -68 -15.5 -124.5t-49 -97.5t-85.5 -64t-124 -23t-124 23t-85.5 64t-49 97.5t-15.5 124.5v406h65v-402q0 -53 11 -99.5t36 -81t65 -54t98 -19.5t98 20t64.5 54.5t35 80.5t10.5 99v402h65z" />
    <glyph glyph-name="V" unicode="V" horiz-adv-x="663" 
d="M333 60l238 647h73l-266 -707h-92l-267 707h74z" />
    <glyph glyph-name="W" unicode="W" horiz-adv-x="953" 
d="M211 0l-192 707h75l168 -647l163 647h105l162 -647l168 647h74l-192 -707h-101l-165 648l-163 -648h-102z" />
    <glyph glyph-name="X" unicode="X" horiz-adv-x="581" 
d="M472 707h81l-220 -350l229 -357h-81l-191 303l-192 -303h-79l228 354l-221 353h82l182 -300z" />
    <glyph glyph-name="Y" unicode="Y" horiz-adv-x="603" 
d="M509 707h75l-249 -440v-267h-65v267l-251 440h77l208 -373z" />
    <glyph glyph-name="Z" unicode="Z" horiz-adv-x="599" 
d="M63 647v60h487v-56l-423 -591h418v-60h-496v57l417 590h-403z" />
    <glyph glyph-name="bracketleft" unicode="[" horiz-adv-x="317" 
d="M92 -191v984h185v-56h-120v-872h120v-56h-185z" />
    <glyph glyph-name="backslash" unicode="\" horiz-adv-x="470" 
d="M114 804l312 -977h-70l-312 977h70z" />
    <glyph glyph-name="bracketright" unicode="]" horiz-adv-x="316" 
d="M224 793v-984h-184v56h119v872h-119v56h184z" />
    <glyph glyph-name="asciicircum" unicode="^" horiz-adv-x="433" 
d="M216 663l-90 -135h-62l131 187h43l131 -187h-61z" />
    <glyph glyph-name="underscore" unicode="_" horiz-adv-x="463" 
d="M2 -122h459v-60h-459v60z" />
    <glyph glyph-name="grave" unicode="`" horiz-adv-x="310" 
d="M122 799l74 -124h-54l-88 124h68z" />
    <glyph glyph-name="a" unicode="a" horiz-adv-x="563" 
d="M430 76q-38 -46 -86.5 -64t-106.5 -18q-35 0 -67.5 8.5t-58.5 27.5t-41.5 48.5t-15.5 66.5q0 45 17 75t44.5 48t63.5 25.5t75 7.5h173q0 36 -7.5 68t-24.5 56t-44.5 38t-67.5 14q-19 0 -38.5 -3t-37 -10t-32 -19.5t-23.5 -30.5h-72q9 33 30 55.5t49.5 37t61 20.5t64.5 6
q58 0 98 -19t64.5 -52.5t35 -78.5t10.5 -97v-286h-54zM288 248q-26 0 -55.5 -2t-54.5 -11.5t-41.5 -29t-16.5 -53.5q0 -27 10.5 -46t28 -32t40 -19t46.5 -6q39 0 72.5 10t58 30.5t38 51t13.5 71.5v36h-139z" />
    <glyph glyph-name="b" unicode="b" horiz-adv-x="613" 
d="M136 0h-64v707h66v-266q32 49 82.5 72t110.5 23q62 0 106 -23t72 -62t40 -90.5t11 -107.5q-2 -68 -23.5 -123t-66.5 -89q-27 -21 -64.5 -33.5t-82.5 -12.5q-25 0 -51 4t-50.5 13.5t-46.5 25.5t-38 40zM319 50q47 0 80 17t54 46.5t31 68t10 80.5q0 43 -9.5 82.5
t-30.5 68.5t-54.5 46.5t-82.5 17.5q-43 0 -79 -19.5t-59 -50.5q-23 -29 -33 -66.5t-10 -78.5q0 -49 16.5 -97.5t57.5 -79.5q47 -35 109 -35z" />
    <glyph glyph-name="c" unicode="c" horiz-adv-x="558" 
d="M299 -6q-62 0 -108 20t-77 56t-46.5 85t-15.5 107q0 60 16 109.5t48 85.5t79 56t109 20q72 0 126.5 -35t73.5 -107h-67q-14 44 -52.5 65t-84.5 21q-47 0 -81.5 -17t-57 -46.5t-33.5 -68.5t-11 -83q0 -43 11 -81.5t33.5 -67.5t58 -46t83.5 -17t86 18t55 67h68
q-11 -37 -32 -63.5t-49.5 -44t-62.5 -25.5t-69 -8z" />
    <glyph glyph-name="d" unicode="d" horiz-adv-x="613" 
d="M475 707h66v-707h-66v83q-33 -45 -83 -67t-110 -22q-62 0 -106.5 23t-72 62t-40 90.5t-10.5 107.5q1 55 17.5 101.5t47.5 81t75.5 54t101.5 19.5q26 0 52 -4.5t49.5 -14.5t43.5 -26t35 -39v258zM294 477q-47 0 -80 -17.5t-54 -47t-31 -67.5t-10 -80q0 -44 9.5 -83
t30.5 -68t54.5 -46.5t82.5 -17.5q44 0 79.5 19.5t58.5 49.5t33 67.5t10 78.5q0 49 -16 97t-57 79q-23 17 -51 26.5t-59 9.5z" />
    <glyph glyph-name="e" unicode="e" horiz-adv-x="577" 
d="M117 242q2 -42 14.5 -77t35.5 -60.5t56.5 -40t78.5 -14.5q21 0 42.5 4t41 12.5t35.5 22.5t25 35h69q-11 -35 -33.5 -60t-51.5 -40.5t-63 -22.5t-68 -7q-62 0 -108.5 20t-77.5 55.5t-46 85t-15 108.5q0 60 16 110t47.5 85.5t78 55t106.5 19.5q63 0 106.5 -25t70.5 -65.5
t38.5 -93t9.5 -107.5h-408zM458 297q-1 36 -11.5 69t-31 57.5t-51.5 39t-72 14.5t-72.5 -15t-53.5 -40t-34 -57.5t-14 -67.5h340z" />
    <glyph glyph-name="f" unicode="f" horiz-adv-x="366" 
d="M126 472h-89v55h89v53q0 37 3 65.5t16 51.5q18 32 50.5 48.5t92.5 16.5h51v-55h-44q-23 0 -45.5 -3.5t-37.5 -22.5q-15 -20 -17.5 -45.5t-2.5 -60.5v-48h147v-55h-147v-472h-66v472z" />
    <glyph glyph-name="g" unicode="g" horiz-adv-x="613" 
d="M479 527h62v-510q0 -66 -13 -112.5t-41.5 -80t-74 -51.5t-109.5 -18q-39 0 -74 7.5t-63.5 24.5t-49 43.5t-30.5 64.5h68q8 -24 24.5 -40t37.5 -25.5t44.5 -14t46.5 -4.5q51 0 83.5 15.5t51 43.5t26 65.5t7.5 82.5v66q-33 -48 -81.5 -69t-108.5 -21q-63 0 -108.5 23
t-73 62t-40 90.5t-10.5 107.5q1 55 17.5 101.5t46.5 81t75 54t103 19.5q55 0 102 -19t78 -62zM294 477q-47 0 -80 -17.5t-54 -47t-31 -67.5t-10 -80q0 -44 9.5 -83t30.5 -68t54.5 -46.5t82.5 -17.5q44 0 79.5 19.5t58.5 49.5t33 67.5t10 78.5q0 49 -15.5 97.5t-56.5 79.5
q-47 35 -111 35z" />
    <glyph glyph-name="h" unicode="h" horiz-adv-x="598" 
d="M72 0v707h66v-268q14 24 33.5 41t44.5 30q25 12 54.5 17.5t59.5 5.5q42 0 75 -12t56 -32q38 -32 53 -83t15 -114v-292h-66v268q0 47 -7.5 90.5t-32.5 74.5q-17 20 -42 32t-63 12q-41 0 -75.5 -16.5t-57.5 -44.5q-25 -30 -36 -69t-11 -82v-265h-66z" />
    <glyph glyph-name="i" unicode="i" horiz-adv-x="227" 
d="M113 717q22 0 36 -13t14 -35q0 -23 -14 -36t-36 -13t-35.5 13t-13.5 36t13.5 35.5t35.5 12.5zM80 527h66v-527h-66v527z" />
    <glyph glyph-name="j" unicode="j" horiz-adv-x="251" 
d="M137 717q23 0 36.5 -13t13.5 -35q0 -23 -13.5 -36t-36.5 -13q-22 0 -35.5 13t-13.5 36t13.5 35.5t35.5 12.5zM171 0q0 -19 -0.5 -39t-4.5 -39.5t-11.5 -37t-20.5 -32.5q-36 -39 -124 -39h-36v55h25q20 0 43.5 5t37.5 20q13 15 19 38.5t6 70.5v525h66v-527z" />
    <glyph glyph-name="k" unicode="k" horiz-adv-x="516" 
d="M72 0v707h66v-416h113l163 236h73l-177 -253l194 -274h-76l-170 236h-120v-236h-66z" />
    <glyph glyph-name="l" unicode="l" horiz-adv-x="210" 
d="M72 0v707h66v-707h-66z" />
    <glyph glyph-name="m" unicode="m" horiz-adv-x="834" 
d="M137 457q27 40 68.5 58.5t89.5 17.5q50 -1 89 -25.5t51 -72.5q9 26 26.5 45t40 31t48 17.5t51.5 4.5q87 -2 126.5 -51.5t39.5 -133.5v-348h-66v306q0 29 -3 59t-13.5 54.5t-32.5 40t-59 16.5q-30 2 -53 -9.5t-40 -28.5q-27 -29 -37.5 -70.5t-10.5 -82.5v-285h-66v305
q0 30 -3 60.5t-14 55.5t-33 40.5t-60 14.5q-38 0 -68 -21t-47 -54q-15 -29 -19 -62t-4 -69v-270h-66v527h63z" />
    <glyph glyph-name="n" unicode="n" horiz-adv-x="598" 
d="M72 0v527h64l2 -90q14 24 35 42.5t44 29.5q26 13 53.5 18.5t59.5 5.5q43 0 75.5 -12t55.5 -32q38 -32 53 -83t15 -114v-292h-66v268q0 47 -7.5 90.5t-32.5 74.5q-17 20 -42 32t-63 12q-41 0 -75 -17t-57 -44q-26 -30 -37 -69t-11 -82v-265h-66z" />
    <glyph glyph-name="o" unicode="o" horiz-adv-x="603" 
d="M301 533q62 0 108.5 -20t78 -56t47.5 -85.5t16 -108.5t-16 -108.5t-47.5 -85t-78 -55.5t-108.5 -20t-108.5 20t-78 55.5t-47 85t-15.5 108.5t15.5 108.5t47 85.5t78 56t108.5 20zM301 50q48 0 83 16.5t57.5 45.5t33 68t10.5 83t-10.5 83t-33 68t-57.5 46t-83 17t-83 -17
t-57.5 -46t-33 -68t-10.5 -83t10.5 -83t33 -68t57.5 -45.5t83 -16.5z" />
    <glyph glyph-name="p" unicode="p" horiz-adv-x="613" 
d="M138 -197h-66v724h66v-90q24 37 60 60q32 20 63.5 28t69.5 8q62 0 106 -23t72 -62t40 -90.5t11 -107.5q-2 -68 -23.5 -123t-66.5 -89q-27 -21 -64.5 -32.5t-82.5 -11.5q-26 0 -52 3.5t-50 12.5t-45.5 25t-37.5 41v-273zM319 50q47 0 80 17t54 46.5t31 68t10 80.5
q0 43 -9.5 82.5t-30.5 68.5t-54.5 46.5t-82.5 17.5q-44 0 -79.5 -19.5t-58.5 -50.5q-23 -29 -33 -66.5t-10 -78.5q0 -49 15.5 -98t56.5 -80q46 -34 111 -34z" />
    <glyph glyph-name="q" unicode="q" horiz-adv-x="613" 
d="M479 527h62v-724h-66v279q-11 -17 -23.5 -28t-26.5 -21q-30 -21 -66.5 -30t-76.5 -9q-62 0 -106.5 23t-72 62t-40 90.5t-10.5 107.5q1 55 17.5 101.5t46.5 81t74 54t101 19.5q32 0 60.5 -5.5t54.5 -19.5q19 -10 36.5 -24t31.5 -35zM295 477q-47 0 -80 -17.5t-54.5 -47
t-31.5 -67.5t-10 -80q0 -44 9.5 -83t30.5 -68t54.5 -46.5t82.5 -17.5q44 0 79.5 19.5t58.5 49.5t33 67.5t10 78.5q0 49 -15.5 97.5t-56.5 79.5q-47 35 -110 35z" />
    <glyph glyph-name="r" unicode="r" horiz-adv-x="370" 
d="M72 0v527h64l2 -91q18 30 40.5 49t49.5 30t57 14.5t63 2.5v-60h-18q-48 0 -83 -14.5t-58 -39.5q-32 -33 -41.5 -74t-9.5 -86v-258h-66z" />
    <glyph glyph-name="s" unicode="s" horiz-adv-x="510" 
d="M257 477q-23 0 -46.5 -4t-42.5 -13.5t-31.5 -26.5t-12.5 -44q0 -21 8.5 -36t22 -25t30.5 -16t35 -10q32 -7 63 -13t63 -14q53 -11 86.5 -42t33.5 -89q0 -44 -18.5 -73t-47.5 -46.5t-66 -24t-74 -6.5q-34 0 -69 7t-65 22.5t-52 40.5t-30 63h67q11 -23 27.5 -37.5t36.5 -23
t42.5 -12.5t45.5 -4t47.5 3t44.5 12.5t33 27.5t13 47q0 20 -8 34t-21 23t-29.5 14.5t-33.5 9.5q-31 7 -61 12.5t-62 13.5q-55 13 -91 46.5t-36 93.5q0 43 18 71t46.5 44.5t64.5 23.5t71 7q31 0 62.5 -6.5t57.5 -21.5t44.5 -39t24.5 -58h-61q-7 18 -21 31.5t-32 21.5t-38 12
t-39 4z" />
    <glyph glyph-name="t" unicode="t" horiz-adv-x="370" 
d="M189 527h147v-56h-147v-296q0 -27 5.5 -57t30.5 -46q13 -8 31 -11.5t35 -3.5h40v-57h-46q-34 0 -67.5 8t-58.5 33q-19 20 -27.5 53.5t-8.5 76.5v300h-89v56h89v151h66v-151z" />
    <glyph glyph-name="u" unicode="u" horiz-adv-x="578" 
d="M288 50q43 0 72.5 13.5t47.5 37.5t26 57t8 73v296h66v-298q0 -112 -52 -173.5t-168 -61.5q-113 0 -165.5 61.5t-52.5 173.5v298h66v-296q0 -38 8 -71t26 -57.5t47 -38.5t71 -14z" />
    <glyph glyph-name="v" unicode="v" horiz-adv-x="524" 
d="M12 527h75l175 -472l174 472h76l-204 -527h-93z" />
    <glyph glyph-name="w" unicode="w" horiz-adv-x="819" 
d="M596 55l131 472h75l-160 -527h-93l-138 474l-138 -474h-94l-162 527h75l134 -472l134 472h102z" />
    <glyph glyph-name="x" unicode="x" horiz-adv-x="508" 
d="M251 219l-154 -219h-78l190 267l-181 260h83l144 -215l141 215h80l-179 -261l192 -266h-82z" />
    <glyph glyph-name="y" unicode="y" horiz-adv-x="604" 
d="M532 527v-527q0 -62 -13 -105.5t-44 -77.5q-34 -37 -82 -50t-96 -13q-54 0 -110 16t-98 51l29 54q40 -30 85.5 -46.5t93.5 -16.5q46 0 78 13t53 37t29.5 60t8.5 79v79q-15 -24 -36.5 -41t-46.5 -27.5t-52.5 -15t-54.5 -4.5q-54 0 -92.5 17t-61.5 44q-29 32 -39.5 82
t-10.5 107v285h66v-260q0 -45 4.5 -88t24.5 -73q17 -26 47.5 -41.5t76.5 -14.5q57 1 93.5 25.5t56.5 65.5q14 29 19.5 63t5.5 70v253h66z" />
    <glyph glyph-name="z" unicode="z" horiz-adv-x="524" 
d="M472 468l-345 -413h345v-55h-420v60l342 412h-337v55h415v-59z" />
    <glyph glyph-name="braceleft" unicode="{" horiz-adv-x="384" 
d="M204 -61q0 -26 2.5 -40t12.5 -24q10 -11 27.5 -13t44.5 -2h29v-51h-68q-55 0 -81 22q-28 25 -28 78v225q0 28 -3.5 53t-14.5 44.5t-30.5 32t-52.5 14.5v46q32 2 51.5 14.5t30.5 32.5t15 45.5t4 52.5v225q0 53 27 77q14 12 34.5 17t47.5 5h68v-51h-40q-17 0 -34.5 -1
t-28.5 -14t-12 -36t-1 -39v-212q0 -48 -19 -82.5t-64 -55.5q47 -22 65 -56t18 -84v-223z" />
    <glyph glyph-name="bar" unicode="|" horiz-adv-x="249" 
d="M92 -173v977h65v-977h-65z" />
    <glyph glyph-name="braceright" unicode="}" horiz-adv-x="384" 
d="M180 663q0 25 -3 39.5t-12 24.5q-11 11 -28 13t-45 2h-28v51h68q55 0 80 -22q29 -24 29 -78v-225q0 -28 3.5 -53t14 -44.5t30.5 -32t53 -14.5v-46q-32 -2 -51.5 -14.5t-30.5 -32.5t-15 -45.5t-4 -52.5v-225q0 -55 -29 -78q-27 -21 -80 -21h-68v51h40q17 0 35 1.5t28 13.5
q11 14 12 29.5t1 41.5v216q0 48 19 82.5t64 55.5q-47 22 -65 56t-18 84v223z" />
    <glyph glyph-name="asciitilde" unicode="~" horiz-adv-x="639" 
d="M223 443q35 0 61 -17.5t48.5 -39t43 -39t44.5 -17.5q19 0 30.5 9t17.5 23.5t8.5 31.5t3.5 32h62q-2 -30 -9 -57.5t-21.5 -49t-38 -34t-57.5 -12.5q-36 0 -62.5 17.5t-48.5 38.5t-42.5 38.5t-44.5 17.5q-18 0 -29.5 -9.5t-17.5 -24t-8.5 -31.5t-2.5 -32h-63q1 30 8 58
t22 49.5t38.5 34.5t57.5 13z" />
    <glyph glyph-name="uni00A0" unicode="&#xa0;" horiz-adv-x="270" 
 />
    <glyph glyph-name="cent" unicode="&#xa2;" horiz-adv-x="588" 
d="M271 528v142h65v-140q66 -5 114.5 -39.5t66.5 -101.5h-68q-14 44 -52.5 65t-84.5 21q-48 0 -82.5 -17t-57 -46.5t-33 -68.5t-10.5 -83q0 -43 11 -81.5t33.5 -67.5t58 -46t83.5 -17t86 18t55 67h68q-9 -34 -28 -59t-43.5 -42t-54.5 -26.5t-62 -12.5v-158h-65v159
q-103 14 -155 86.5t-52 179.5q0 54 13 100t39.5 81t65 57.5t89.5 29.5z" />
    <glyph glyph-name="sterling" unicode="&#xa3;" horiz-adv-x="584" 
d="M64 0v60h85v247h-85v60h85v158q0 94 51.5 142t143.5 48q32 0 61 -7.5t52 -24t38.5 -41t20.5 -57.5h-64q-5 19 -15.5 32.5t-25 22t-32 12.5t-34.5 4q-69 0 -101 -34.5t-32 -103.5v-151h214v-60h-214v-247h308v-60h-456z" />
    <glyph glyph-name="yen" unicode="&#xa5;" horiz-adv-x="654" 
d="M534 707h76l-224 -395h121v-59h-148v-96h148v-59h-148v-98h-65v98h-149v59h149v96h-149v59h123l-224 395h76l209 -377z" />
    <glyph glyph-name="section" unicode="&#xa7;" horiz-adv-x="548" 
d="M276 661q-25 1 -46.5 -2.5t-41 -12.5t-32.5 -26t-13 -44q0 -31 22 -49.5t49 -24.5q38 -11 72.5 -19t72.5 -18q25 -6 48 -15t39.5 -22.5t26 -35t8.5 -49.5q-1 -67 -58 -105q60 -26 60 -102q0 -42 -17.5 -69.5t-45 -44.5t-62.5 -23.5t-70 -6.5q-36 0 -71.5 6t-66 20.5
t-53.5 40t-33 64.5h67q9 -21 26 -35.5t37.5 -23.5t42.5 -13t42 -4q19 0 43.5 2t46.5 10.5t36.5 25t14.5 45.5q0 20 -8 33.5t-21.5 22.5t-30 14.5t-32.5 8.5q-32 6 -63 12t-60 12q-58 11 -95 43t-36 90q-1 35 16.5 66t46.5 49q-53 30 -53 93q0 41 17 68.5t45 43.5t62.5 22.5
t69.5 6.5q31 0 62 -6.5t57 -21.5t44 -38.5t23 -57.5h-59q-5 20 -18.5 33.5t-31.5 21.5t-39 11.5t-40 3.5zM185 451q-23 -15 -36 -36.5t-13 -44.5t11.5 -38t29 -24t38 -14.5t37.5 -9.5q29 -7 58 -11t59 -9q17 8 34.5 26.5t17.5 45.5q0 29 -19 47t-45 26q-47 13 -88 20.5
t-84 21.5z" />
    <glyph glyph-name="dieresis" unicode="&#xa8;" horiz-adv-x="563" 
d="M390 707q23 0 37 -14.5t14 -36.5q0 -21 -13.5 -36t-37.5 -15q-23 0 -36.5 15t-13.5 36q0 22 13.5 36.5t36.5 14.5zM172 707q23 0 37 -14.5t14 -36.5q0 -21 -13.5 -36t-37.5 -15q-23 0 -36.5 15t-13.5 36q0 22 13.5 36.5t36.5 14.5z" />
    <glyph glyph-name="copyright" unicode="&#xa9;" horiz-adv-x="938" 
d="M469 715q93 0 168 -31t127.5 -87t81 -133.5t28.5 -169.5t-27.5 -169t-80 -132.5t-127.5 -86.5t-170 -31t-170 31t-127.5 86.5t-80 132.5t-27.5 169t28.5 169.5t81 133.5t127.5 87t168 31zM469 654q-80 0 -143 -27t-106.5 -75t-67 -114t-23.5 -144q0 -77 23 -143t67 -114
t107 -75t143 -27t143.5 27.5t107 75.5t66.5 113.5t23 142.5t-23 143t-67 114t-107 75.5t-143 27.5zM481 84q-48 0 -84 16t-59.5 44t-35.5 67t-12 84q0 44 12 82.5t36 67t59.5 45t85.5 16.5q61 0 105 -27.5t58 -91.5h-59q-11 35 -38.5 49.5t-63.5 14.5t-62.5 -12.5t-42 -34
t-22.5 -50t-7 -59.5q0 -32 7.5 -60t23.5 -49.5t40.5 -34t59.5 -12.5t65 13.5t42 49.5h62q-17 -61 -63 -89.5t-107 -28.5z" />
    <glyph glyph-name="guillemotleft" unicode="&#xab;" horiz-adv-x="466" 
d="M402 93h-65l-112 167l112 169h65l-111 -168zM221 93h-65l-112 167l112 169h65l-111 -168z" />
    <glyph glyph-name="uni00AD" unicode="&#xad;" horiz-adv-x="453" 
d="M79 311h295v-60h-295v60z" />
    <glyph glyph-name="registered" unicode="&#xae;" horiz-adv-x="482" 
d="M242 745q42 0 76 -13.5t58 -38.5t36.5 -59t12.5 -76q0 -84 -49.5 -132.5t-133.5 -48.5t-134.5 48t-50.5 133q0 42 13 76.5t37 59t58.5 38t76.5 13.5zM242 711q-69 0 -108.5 -42.5t-39.5 -110.5t39.5 -107t108.5 -39q68 0 106.5 39t38.5 107t-38 110.5t-107 42.5zM288 471
l-45 69h-37v-69h-31v185h79q29 0 47 -13t18 -44q0 -23 -11.5 -36.5t-29.5 -19.5l48 -72h-38zM206 625v-57h45q14 0 25 6.5t11 23.5q0 15 -10 21t-24 6h-47z" />
    <glyph glyph-name="degree" unicode="&#xb0;" horiz-adv-x="367" 
d="M184 581q-57 0 -88.5 33t-31.5 87q0 53 32.5 86.5t88.5 33.5t87 -34t31 -86q0 -53 -31.5 -86.5t-87.5 -33.5zM184 617q38 0 59 23.5t21 60.5t-21 61t-59 24t-59.5 -24t-21.5 -61q0 -38 21.5 -61t59.5 -23z" />
    <glyph glyph-name="plusminus" unicode="&#xb1;" horiz-adv-x="508" 
d="M285 620v-157h149v-60h-149v-152h-65v152h-146v60h146v157h65zM434 201v-60h-360v60h360z" />
    <glyph glyph-name="twosuperior" unicode="&#xb2;" horiz-adv-x="357" 
d="M156 549q12 10 26 22t27 26t22 30t9 34q1 29 -15.5 44t-45.5 15q-20 0 -37 -9t-22 -31h-57q3 24 13.5 41t27 28.5t37 17t42.5 5.5q24 0 44.5 -7t36 -20t24.5 -32.5t9 -44.5q0 -26 -8.5 -46.5t-22.5 -38t-31.5 -33t-35.5 -30.5q-15 -13 -31 -25t-30 -25h159v-51h-237v47z
" />
    <glyph glyph-name="threesuperior" unicode="&#xb3;" horiz-adv-x="378" 
d="M191 415q-23 0 -45.5 5t-41 16.5t-30.5 29t-14 42.5h58q8 -24 29 -33t44 -9q27 0 48.5 11.5t21.5 43.5q0 16 -6.5 25.5t-16.5 15t-23 7.5t-26 2h-33v49h21q25 0 47.5 10.5t23.5 39.5q1 28 -17 39t-43 11q-21 0 -38.5 -9t-22.5 -32h-56q6 49 41 71t81 22q21 0 41 -5.5
t35.5 -17t25 -28.5t9.5 -41q0 -52 -47 -75q31 -8 46 -29.5t15 -53.5q0 -29 -10.5 -49t-27.5 -33t-40.5 -19t-48.5 -6z" />
    <glyph glyph-name="acute" unicode="&#xb4;" horiz-adv-x="310" 
d="M188 799h68l-88 -124h-54z" />
    <glyph glyph-name="cedilla" unicode="&#xb8;" horiz-adv-x="593" 
d="M278 -80q45 9 77 -9.5t32 -67.5q0 -34 -15.5 -56t-39.5 -34.5t-53 -15.5t-57 1v40q17 -2 37 -0.5t37 7.5t28.5 18.5t11.5 37.5q-1 22 -14.5 32t-36.5 10q-13 0 -30.5 -2t-29.5 -5l27 131h44z" />
    <glyph glyph-name="guillemotright" unicode="&#xbb;" horiz-adv-x="466" 
d="M64 429h65l112 -167l-112 -169h-65l111 168zM245 429h65l112 -167l-112 -169h-65l111 168z" />
    <glyph glyph-name="Acircumflex" unicode="&#xc2;" horiz-adv-x="648" 
d="M325 895l-79 -97h-64l123 146h41l123 -146h-62zM146 157l-58 -157h-73l264 707h91l263 -707h-73l-58 157h-356zM168 217h313l-157 429z" />
    <glyph glyph-name="Adieresis" unicode="&#xc4;" horiz-adv-x="648" 
d="M209 925q20 0 33.5 -12.5t13.5 -33.5q0 -23 -12 -36t-35 -13t-35.5 13t-12.5 36q0 21 14 33.5t34 12.5zM448 925q20 0 33.5 -12.5t13.5 -33.5q0 -23 -12 -36t-35 -13t-35 13t-12 36q0 21 13.5 33.5t33.5 12.5zM146 157l-58 -157h-73l264 707h91l263 -707h-73l-58 157
h-356zM168 217h313l-157 429z" />
    <glyph glyph-name="Ccedilla" unicode="&#xc7;" horiz-adv-x="711" 
d="M377 656q-68 0 -116.5 -24t-79.5 -65.5t-46 -96t-15 -115.5q0 -62 15 -117t47 -96.5t81 -66t117 -24.5q31 0 62.5 6.5t59 21t49.5 36.5t34 53h73q-15 -45 -42 -77.5t-62 -53.5t-77 -32t-86 -12l-15 -73q45 9 77 -9.5t32 -67.5q0 -34 -15.5 -56t-39.5 -34.5t-53 -15.5
t-57 1v40q17 -2 37 -0.5t37 7.5t28.5 19t11.5 35q0 24 -15 34t-36 10q-16 0 -32 -2t-28 -5l24 117q-75 5 -130.5 34t-92 76.5t-54 111.5t-17.5 138q0 77 20 143.5t60.5 115t101.5 76t143 27.5q46 0 88.5 -10t78 -31t61 -54.5t39.5 -80.5h-66q-12 31 -33.5 53t-48.5 36.5
t-58 21t-62 6.5z" />
    <glyph glyph-name="Ecircumflex" unicode="&#xca;" horiz-adv-x="610" 
d="M329 895l-79 -97h-64l123 146h41l123 -146h-62zM92 707h465v-60h-400v-266h360v-60h-360v-261h400v-60h-465v707z" />
    <glyph glyph-name="Icircumflex" unicode="&#xce;" horiz-adv-x="159" 
d="M79 897l-79 -97h-64l123 146h41l123 -146h-62zM111 0h-65v707h65v-707z" />
    <glyph glyph-name="Odieresis" unicode="&#xd6;" horiz-adv-x="767" 
d="M267 925q20 0 33.5 -12.5t13.5 -33.5q0 -23 -12 -36t-35 -13t-35.5 13t-12.5 36q0 21 14 33.5t34 12.5zM506 925q20 0 33.5 -12.5t13.5 -33.5q0 -23 -12 -36t-35 -13t-35 13t-12 36q0 21 13.5 33.5t33.5 12.5zM384 -8q-82 0 -144 27t-103.5 75.5t-62.5 114.5t-21 144
t21 144.5t62.5 114.5t103.5 75.5t144 27.5t143.5 -27.5t103 -76t62.5 -114.5t21 -144t-21 -144t-62.5 -114t-103 -75.5t-143.5 -27.5zM384 656q-67 0 -117 -24t-83 -65.5t-49 -96.5t-16 -117t16.5 -117t49.5 -96t82.5 -65t116.5 -24t117 23.5t82 64.5t48 96t16 118
q0 62 -16 117t-48.5 96.5t-82 65.5t-116.5 24z" />
    <glyph glyph-name="multiply" unicode="&#xd7;" horiz-adv-x="459" 
d="M230 316l-142 -142l-38 38l143 141l-143 142l38 38l142 -143l141 143l38 -38l-142 -142l142 -141l-38 -38z" />
    <glyph glyph-name="Udieresis" unicode="&#xdc;" horiz-adv-x="722" 
d="M248 925q20 0 33.5 -12.5t13.5 -33.5q0 -23 -12 -36t-35 -13t-35.5 13t-12.5 36q0 21 14 33.5t34 12.5zM487 925q20 0 33.5 -12.5t13.5 -33.5q0 -23 -12 -36t-35 -13t-35 13t-12 36q0 21 13.5 33.5t33.5 12.5zM635 707v-406q0 -68 -15.5 -124.5t-49 -97.5t-85.5 -64
t-124 -23t-124 23t-85.5 64t-49 97.5t-15.5 124.5v406h65v-402q0 -53 11 -99.5t36 -81t65 -54t98 -19.5t98 20t64.5 54.5t35 80.5t10.5 99v402h65z" />
    <glyph glyph-name="acircumflex" unicode="&#xe2;" horiz-adv-x="563" 
d="M288 734l-78 -97h-65l123 146h41l123 -146h-62zM430 76q-38 -47 -86.5 -64.5t-106.5 -17.5q-35 0 -68 9t-58.5 28t-41 47t-15.5 67q0 45 17 75t44.5 48t63.5 25.5t75 7.5h173q0 36 -7.5 68t-24.5 56t-44.5 38t-67.5 14q-19 0 -38.5 -3t-37 -10t-32 -19.5t-23.5 -30.5h-72
q9 33 30 55.5t49 36.5t61 20.5t65 6.5q58 0 98 -19t64.5 -52.5t35 -78.5t10.5 -97v-286h-54zM288 248q-26 0 -55.5 -2t-54.5 -11.5t-41.5 -29t-16.5 -53.5q0 -27 10.5 -46t28 -32t40 -19t46.5 -6q39 0 72.5 10t58 30.5t38 51t13.5 71.5v36h-139z" />
    <glyph glyph-name="adieresis" unicode="&#xe4;" horiz-adv-x="563" 
d="M171 719q20 0 35 -13.5t15 -34.5t-15 -34.5t-35 -13.5t-34.5 14t-14.5 34t14.5 34t34.5 14zM401 719q20 0 35 -13.5t15 -34.5t-15 -34.5t-35 -13.5t-34 14t-14 34t14 34t34 14zM430 76q-38 -47 -86.5 -64.5t-106.5 -17.5q-35 0 -68 9t-58.5 28t-41 47t-15.5 67
q0 45 17 75t44.5 48t63.5 25.5t75 7.5h173q0 36 -7.5 68t-24.5 56t-44.5 38t-67.5 14q-19 0 -38.5 -3t-37 -10t-32 -19.5t-23.5 -30.5h-72q9 33 30 55.5t49 36.5t61 20.5t65 6.5q58 0 98 -19t64.5 -52.5t35 -78.5t10.5 -97v-286h-54zM288 248q-26 0 -55.5 -2t-54.5 -11.5
t-41.5 -29t-16.5 -53.5q0 -27 10.5 -46t28 -32t40 -19t46.5 -6q39 0 72.5 10t58 30.5t38 51t13.5 71.5v36h-139z" />
    <glyph glyph-name="ccedilla" unicode="&#xe7;" horiz-adv-x="555" 
d="M294 -76q45 9 77 -9.5t32 -67.5q0 -34 -15.5 -56t-39.5 -34.5t-53 -15.5t-57 1v40q17 -2 37 -0.5t37 7.5t28.5 18.5t11.5 35.5q0 24 -15 34t-36 10q-16 0 -32 -2t-28 -5l24 116q-54 5 -94.5 26.5t-67.5 57t-40.5 82t-13.5 100.5q0 60 16 109.5t48 85.5t79 56t109 20
q72 0 126.5 -35t73.5 -107h-67q-14 44 -52.5 65t-84.5 21q-47 0 -81.5 -17t-57 -46.5t-33.5 -68.5t-11 -83q0 -43 11 -81.5t33.5 -67.5t58 -46t83.5 -17t86 18t55 67h68q-10 -36 -30 -61.5t-47 -43t-58.5 -26.5t-65.5 -10z" />
    <glyph glyph-name="ecircumflex" unicode="&#xea;" horiz-adv-x="571" 
d="M291 734l-78 -97h-65l123 146h41l123 -146h-62zM113 242q2 -42 14.5 -77t35.5 -60.5t56.5 -40t78.5 -14.5q21 0 42.5 4t41 12.5t35.5 22.5t25 35h69q-11 -35 -33.5 -60t-51.5 -40.5t-63 -22.5t-68 -7q-62 0 -108.5 20t-77.5 55.5t-46 85t-15 108.5q0 60 16 110t47.5 85.5
t78 55t106.5 19.5q63 0 106.5 -25t70.5 -65.5t38.5 -93t9.5 -107.5h-408zM454 297q-1 36 -11.5 69t-31 57.5t-51.5 39t-72 14.5t-72.5 -15t-53.5 -40t-34 -57.5t-14 -67.5h340z" />
    <glyph glyph-name="icircumflex" unicode="&#xee;" horiz-adv-x="239" 
d="M114 734l-78 -97h-65l123 146h41l123 -146h-62zM82 527h66v-527h-66v527z" />
    <glyph glyph-name="odieresis" unicode="&#xf6;" horiz-adv-x="595" 
d="M182 719q20 0 35 -13.5t15 -34.5t-15 -34.5t-35 -13.5t-34.5 14t-14.5 34t14.5 34t34.5 14zM412 719q20 0 35 -13.5t15 -34.5t-15 -34.5t-35 -13.5t-34 14t-14 34t14 34t34 14zM297 533q62 0 108.5 -20t78 -56t47.5 -85.5t16 -108.5t-16 -108.5t-47.5 -85t-78 -55.5
t-108.5 -20t-108.5 20t-78 55.5t-47 85t-15.5 108.5t15.5 108.5t47 85.5t78 56t108.5 20zM297 50q48 0 83 16.5t57.5 45.5t33 68t10.5 83t-10.5 83t-33 68t-57.5 46t-83 17t-83 -17t-57.5 -46t-33 -68t-10.5 -83t10.5 -83t33 -68t57.5 -45.5t83 -16.5z" />
    <glyph glyph-name="divide" unicode="&#xf7;" horiz-adv-x="471" 
d="M235 587q23 0 37 -14t14 -36t-13.5 -37t-37.5 -15q-23 0 -36.5 15t-13.5 37t13.5 36t36.5 14zM407 328h-343v60h343v-60zM235 232q23 0 37 -14.5t14 -36.5t-13.5 -37t-37.5 -15q-23 0 -36.5 15t-13.5 37t13.5 36.5t36.5 14.5z" />
    <glyph glyph-name="udieresis" unicode="&#xfc;" horiz-adv-x="578" 
d="M176 719q20 0 35 -13.5t15 -34.5t-15 -34.5t-35 -13.5t-34.5 14t-14.5 34t14.5 34t34.5 14zM406 719q20 0 35 -13.5t15 -34.5t-15 -34.5t-35 -13.5t-34 14t-14 34t14 34t34 14zM288 50q43 0 72.5 13.5t47.5 37.5t26 57t8 73v296h66v-298q0 -112 -52 -173.5t-168 -61.5
q-115 0 -166.5 61.5t-51.5 173.5v298h66v-296q0 -38 8 -71t26 -57.5t47 -38.5t71 -14z" />
    <glyph glyph-name="Abreve" unicode="&#x102;" horiz-adv-x="648" 
d="M326 863q17 0 35 3t33 10.5t25.5 21.5t13.5 37h61q-3 -35 -18.5 -58.5t-39 -38t-52.5 -20.5t-60 -6t-60 6t-51.5 20.5t-37 38t-17.5 58.5h61q3 -23 13.5 -37t25.5 -21.5t33 -10.5t35 -3zM146 157l-58 -157h-73l264 707h91l263 -707h-73l-58 157h-356zM168 217h313
l-157 429z" />
    <glyph glyph-name="abreve" unicode="&#x103;" horiz-adv-x="563" 
d="M283 666q17 0 35 3t33 10.5t25.5 21.5t13.5 37h61q-3 -35 -18.5 -58.5t-39 -38t-52.5 -20.5t-60 -6t-60 6t-51.5 20.5t-37 38t-17.5 58.5h61q3 -23 13.5 -37t25.5 -21.5t33 -10.5t35 -3zM430 76q-38 -47 -86.5 -64.5t-106.5 -17.5q-35 0 -68 9t-58.5 28t-41 47t-15.5 67
q0 45 17 75t44.5 48t63.5 25.5t75 7.5h173q0 36 -7.5 68t-24.5 56t-44.5 38t-67.5 14q-19 0 -38.5 -3t-37 -10t-32 -19.5t-23.5 -30.5h-72q9 33 30 55.5t49 36.5t61 20.5t65 6.5q58 0 98 -19t64.5 -52.5t35 -78.5t10.5 -97v-286h-54zM288 248q-26 0 -55.5 -2t-54.5 -11.5
t-41.5 -29t-16.5 -53.5q0 -27 10.5 -46t28 -32t40 -19t46.5 -6q39 0 72.5 10t58 30.5t38 51t13.5 71.5v36h-139z" />
    <glyph glyph-name="Idotaccent" unicode="&#x130;" horiz-adv-x="255" 
d="M127 904q22 0 36 -13t14 -35q0 -23 -14 -36t-36 -13t-35.5 13t-13.5 36t13.5 35.5t35.5 12.5zM160 0h-65v707h65v-707z" />
    <glyph glyph-name="dotlessi" unicode="&#x131;" horiz-adv-x="210" 
d="M138 0h-66v527h66v-527z" />
    <glyph glyph-name="Scedilla" unicode="&#x15e;" horiz-adv-x="634" 
d="M321 -80q45 9 77 -10t32 -67q0 -34 -15 -56t-39 -34.5t-53.5 -15.5t-57.5 1v40q17 -2 37 -0.5t37 7.5t28.5 18.5t11.5 34.5q0 13 -5 22.5t-13 14.5q-12 7 -33 8q-16 0 -32 -2t-28 -5l24 118q-41 3 -79 14.5t-69.5 32.5t-55 52t-35.5 75h70q13 -33 36 -55.5t52.5 -36
t62 -19.5t65.5 -6q31 0 62 7t56 22.5t40.5 40.5t15.5 61q0 29 -10 49.5t-27 35.5t-40 24.5t-49 15.5q-40 10 -78.5 18t-78.5 19q-68 19 -110.5 61.5t-42.5 116.5q0 54 20.5 90.5t55 59.5t78.5 33t91 10q43 0 83 -9.5t72.5 -30t54.5 -53t28 -79.5h-66q-6 33 -22.5 54.5
t-40 34.5t-51.5 18.5t-58 5.5q-31 0 -62.5 -5.5t-57 -20t-41.5 -39t-16 -61.5q0 -30 10.5 -51.5t28.5 -37t41.5 -25.5t49.5 -17q40 -11 78 -19.5t79 -19.5q31 -9 58 -22t47 -32.5t31.5 -46t11.5 -61.5q0 -56 -19.5 -95t-52.5 -63.5t-77.5 -36t-94.5 -11.5z" />
    <glyph glyph-name="scedilla" unicode="&#x15f;" horiz-adv-x="519" 
d="M261 477q-23 0 -46.5 -4t-42.5 -13.5t-31.5 -26.5t-12.5 -44q0 -21 8.5 -36t22 -25t30.5 -16t35 -10q32 -7 63 -13t63 -14q53 -11 86.5 -42t33.5 -89q0 -43 -17.5 -72t-45.5 -46t-63.5 -24.5t-71.5 -7.5l-13 -64q45 9 77 -9.5t32 -67.5q0 -34 -15.5 -56t-39.5 -34.5
t-53 -15.5t-57 1v40q17 -2 37 -0.5t37 7.5t28.5 18.5t11.5 35.5q0 21 -15.5 32t-35.5 12q-14 1 -31 -1t-29 -6l22 110q-30 3 -59 11.5t-53.5 24.5t-42.5 39t-25 56h67q11 -23 27.5 -37.5t36.5 -23t42.5 -12.5t45.5 -4t47.5 3t44.5 12.5t33 27.5t13 47q0 20 -8 34t-21 23
t-29.5 14.5t-33.5 9.5q-31 7 -61 12.5t-62 13.5q-55 13 -91 46.5t-36 93.5q0 43 18 71t46.5 44.5t64.5 23.5t71 7q31 0 62.5 -6.5t57.5 -21.5t44.5 -39t24.5 -58h-61q-7 18 -21 31.5t-32 21.5t-38 12t-39 4z" />
    <glyph glyph-name="uni0162" unicode="&#x162;" horiz-adv-x="571" 
d="M552 647h-234v-647h-12l-16 -80q45 9 77 -9.5t32 -67.5q0 -34 -15.5 -56t-39.5 -34.5t-53 -15.5t-57 1v40q17 -2 37 -0.5t37 7.5t28.5 18.5t11.5 35.5q0 24 -13.5 34t-36.5 10q-17 0 -33 -2t-28 -5l26 124h-10v647h-234v60h533v-60z" />
    <glyph glyph-name="uni0163" unicode="&#x163;" horiz-adv-x="380" 
d="M189 527h147v-56h-147v-296q0 -14 1 -28.5t4.5 -28t10.5 -25.5t20 -21q12 -8 30.5 -11.5t35.5 -3.5h40v-57h-46q-25 0 -49 3l-18 -76q45 9 77 -9.5t32 -67.5q0 -34 -15.5 -56t-39.5 -34.5t-53 -15.5t-57 1v40q17 -2 37 -0.5t37 7.5t28.5 18.5t11.5 35.5t-15 33.5
t-36 10.5q-16 0 -32 -2t-28 -5l30 132q-21 10 -36 26q-19 20 -27.5 53.5t-8.5 76.5v300h-89v56h89v151h66v-151z" />
    <glyph glyph-name="uni0218" unicode="&#x218;" horiz-adv-x="634" 
d="M322 656q-31 0 -62.5 -5.5t-57 -20t-41.5 -39t-16 -61.5q0 -30 10.5 -51.5t28.5 -37t41.5 -25.5t49.5 -17q40 -11 78 -19.5t79 -19.5q31 -9 58 -22t47 -32.5t31.5 -46t11.5 -61.5q0 -56 -20 -95.5t-53.5 -64t-78.5 -35.5t-96 -11q-47 0 -91 9t-81.5 30t-65.5 54.5
t-41 82.5h70q13 -33 36 -55.5t52.5 -36t62 -19.5t65.5 -6q31 0 62 7t56 22.5t40.5 40.5t15.5 61q0 29 -10 49.5t-27 35.5t-40 24.5t-49 15.5q-40 10 -78.5 18t-78.5 19q-68 18 -110.5 61t-42.5 117q0 54 20.5 90.5t55 59.5t78.5 33t91 10q43 0 83 -9.5t72.5 -30t54.5 -53
t28 -79.5h-66q-6 33 -22.5 54.5t-40 34.5t-51.5 18.5t-58 5.5zM326 -91q28 -1 41.5 -21t12.5 -46q1 -45 -24 -86.5t-68 -59.5l-16 26q22 14 36.5 35t19.5 50q-26 -2 -40 12.5t-14 38.5q0 22 14.5 37t37.5 14z" />
    <glyph glyph-name="uni0219" unicode="&#x219;" horiz-adv-x="519" 
d="M261 477q-23 0 -46.5 -4t-42.5 -13.5t-31.5 -26.5t-12.5 -44q0 -21 8.5 -36t22 -25t30.5 -16t35 -10q32 -7 63 -13t63 -14q53 -11 86.5 -42t33.5 -89q0 -44 -18.5 -73t-47.5 -46.5t-66 -24t-74 -6.5q-34 0 -69 7t-65 22.5t-52 40.5t-30 63h67q11 -23 27.5 -37.5t36.5 -23
t42.5 -12.5t45.5 -4t47.5 3t44.5 12.5t33 27.5t13 47q0 20 -8 34t-21 23t-29.5 14.5t-33.5 9.5q-31 7 -61 12.5t-59 12.5q-62 14 -96 47.5t-34 93.5q0 42 18 70.5t46.5 45t64.5 23.5t71 7q31 0 62.5 -6.5t57.5 -21.5t44.5 -39t24.5 -58h-61q-7 18 -21 31.5t-32 21.5t-38 12
t-39 4zM261 -91q27 0 41.5 -21t12.5 -46q1 -45 -24 -86.5t-68 -59.5l-16 26q22 14 36.5 35t19.5 50q-26 -2 -40 12.5t-14 38.5q0 22 14.5 37t37.5 14z" />
    <glyph glyph-name="uni021A" unicode="&#x21a;" horiz-adv-x="571" 
d="M552 647h-234v-647h-65v647h-234v60h533v-60zM289 -91q28 0 41.5 -22t12.5 -45q1 -45 -24 -86.5t-68 -59.5l-16 26q22 14 36.5 35t19.5 50q-26 -2 -40 12.5t-14 38.5q0 22 14.5 37t37.5 14z" />
    <glyph glyph-name="uni021B" unicode="&#x21b;" horiz-adv-x="380" 
d="M189 527h147v-56h-147v-296q0 -27 5.5 -57t30.5 -46q13 -8 31 -11.5t35 -3.5h40v-57h-46q-34 0 -67.5 7.5t-58.5 33.5q-19 20 -27.5 53.5t-8.5 76.5v300h-89v56h89v151h66v-151zM217 -91q28 0 41.5 -21.5t12.5 -45.5q1 -45 -24 -86.5t-68 -59.5l-16 26q22 14 36.5 35
t19.5 50q-26 -2 -40 12.5t-14 38.5q0 22 14.5 37t37.5 14z" />
    <glyph glyph-name="circumflex" unicode="&#x2c6;" horiz-adv-x="529" 
d="M264 722l-80 -97h-63l123 146h41l123 -146h-62z" />
    <glyph glyph-name="breve" unicode="&#x2d8;" horiz-adv-x="573" 
d="M286 664q17 0 35 3t33 10.5t25.5 21.5t13.5 37h61q-3 -35 -18.5 -58.5t-39 -38t-52.5 -20.5t-60 -6t-60 6t-51.5 20.5t-37 38t-17.5 58.5h61q3 -23 13.5 -37t25.5 -21.5t33 -10.5t35 -3z" />
    <glyph glyph-name="uni0326" unicode="&#x326;" horiz-adv-x="430" 
d="M215 -91q26 0 40.5 -21t13.5 -46q1 -45 -24 -86.5t-68 -59.5l-16 26q22 14 36.5 35t19.5 50q-26 -2 -40 12.5t-14 38.5q0 22 14.5 37t37.5 14z" />
    <glyph glyph-name="uni0401" unicode="&#x401;" horiz-adv-x="610" 
d="M210 925q20 0 33.5 -12.5t13.5 -33.5q0 -23 -12 -36t-35 -13t-35.5 13t-12.5 36q0 21 14 33.5t34 12.5zM449 925q20 0 33.5 -12.5t13.5 -33.5q0 -23 -12 -36t-35 -13t-35 13t-12 36q0 21 13.5 33.5t33.5 12.5zM92 707h465v-60h-400v-266h360v-60h-360v-261h400v-60h-465
v707z" />
    <glyph glyph-name="uni0404" unicode="&#x404;" horiz-adv-x="709" 
d="M371 656q-60 0 -105.5 -22t-76.5 -59t-48 -86.5t-20 -104.5h361v-60h-361q2 -59 18 -109t47.5 -86.5t78 -57t109.5 -20.5q31 0 63.5 6.5t61 20.5t51 36t34.5 54h72q-15 -47 -44 -80.5t-67.5 -54.5t-83.5 -31t-91 -10q-83 0 -142.5 26.5t-98.5 73.5t-57.5 112.5
t-18.5 143.5q0 79 20.5 147t62 117.5t104 76.5t145.5 26q44 -1 85.5 -11.5t76 -32t61 -54.5t40.5 -78h-67q-12 31 -35 53t-51.5 36.5t-60.5 21t-63 6.5z" />
    <glyph glyph-name="uni0406" unicode="&#x406;" horiz-adv-x="249" 
d="M157 0h-65v707h65v-707z" />
    <glyph glyph-name="uni0407" unicode="&#x407;" horiz-adv-x="248" 
d="M56 843q20 0 33.5 -12.5t13.5 -33.5q0 -22 -13 -34.5t-34 -12.5t-33.5 12.5t-12.5 34.5t12.5 34t33.5 12zM191 843q20 0 33.5 -12.5t13.5 -33.5q0 -22 -13 -34.5t-34 -12.5q-22 0 -34 12.5t-12 34.5q0 46 46 46zM156 0h-65v707h65v-707z" />
    <glyph glyph-name="uni0410" unicode="&#x410;" horiz-adv-x="648" 
d="M146 157l-58 -157h-73l264 707h91l263 -707h-73l-58 157h-356zM168 217h313l-157 429z" />
    <glyph glyph-name="uni0411" unicode="&#x411;" horiz-adv-x="655" 
d="M92 707h471v-60h-406v-240h179q52 0 99 -7.5t82.5 -29t56.5 -59.5t21 -99t-21 -101.5t-57 -65t-83.5 -35t-101.5 -10.5h-240v707zM157 60h163q40 0 78 5.5t67 21t46.5 44.5t17.5 77t-17.5 75.5t-46.5 41.5t-65.5 18t-74.5 4h-168v-287z" />
    <glyph glyph-name="uni0412" unicode="&#x412;" horiz-adv-x="657" 
d="M91 707h244q46 0 87.5 -6.5t73 -25.5t50.5 -53t19 -89q0 -60 -29.5 -101.5t-85.5 -59.5q72 -12 112.5 -59t40.5 -121q0 -59 -24.5 -96t-63.5 -58.5t-88 -29.5t-98 -8h-238v707zM156 647v-256h158q34 0 67.5 6.5t60.5 22.5t44 42.5t17 66.5q0 39 -14 62.5t-37.5 35.5
t-53.5 16t-62 4h-180zM326 60q36 0 73.5 4t68 17.5t50 40.5t19.5 74q0 41 -15.5 67t-40.5 41t-58 21t-67 6h-200v-271h170z" />
    <glyph glyph-name="uni0413" unicode="&#x413;" horiz-adv-x="569" 
d="M92 0v707h445v-60h-380v-647h-65z" />
    <glyph glyph-name="uni0414" unicode="&#x414;" horiz-adv-x="717" 
d="M27 -201v261h10q22 0 38.5 11.5t27.5 28.5q14 22 22 48t11 47q8 48 11 103t5 99q4 78 5.5 155t3.5 155h441v-647h88v-261h-65v201h-533v-201h-65zM538 60v587h-313l-10 -294q-2 -48 -5 -102.5t-13 -101.5q-6 -29 -18 -52t-27 -37h386z" />
    <glyph glyph-name="uni0415" unicode="&#x415;" horiz-adv-x="610" 
d="M92 707h465v-60h-400v-266h360v-60h-360v-261h400v-60h-465v707z" />
    <glyph glyph-name="uni0416" unicode="&#x416;" horiz-adv-x="858" 
d="M396 0v317h-130l-170 -317h-77l192 357l-192 350h73l177 -330h127v330h65v-330h128l178 330h71l-192 -350l193 -357h-79l-169 317h-130v-317h-65z" />
    <glyph glyph-name="uni0417" unicode="&#x417;" horiz-adv-x="628" 
d="M115 165q4 -34 25 -56t50.5 -35t62.5 -18t61 -5q36 0 70.5 6t61.5 22t44 43.5t17 70.5q0 44 -17 71t-44.5 41.5t-62.5 19.5t-71 5h-94v60h69q38 0 75.5 8.5t66.5 32.5q22 17 36 42t14 53q0 37 -14 62.5t-37 40.5q-24 15 -53.5 21t-61.5 6q-27 0 -57 -4.5t-57 -17.5
q-25 -13 -43.5 -34.5t-21.5 -53.5h-66q1 53 33 89.5t77 55.5q34 15 70.5 19.5t68.5 4.5q38 0 73.5 -6.5t65.5 -22.5q38 -20 62 -55.5t24 -91.5q0 -57 -31.5 -103.5t-86.5 -63.5q70 -14 110 -61t40 -119q0 -51 -20.5 -89t-55.5 -62q-38 -27 -86 -38t-98 -11q-42 0 -87 8.5
t-83.5 28.5t-64.5 53t-30 83h66z" />
    <glyph glyph-name="uni0418" unicode="&#x418;" horiz-adv-x="738" 
d="M92 0v707h65v-621l406 621h83v-707h-65v616l-406 -616h-83z" />
    <glyph glyph-name="uni0419" unicode="&#x419;" horiz-adv-x="738" 
d="M371 845q42 0 74.5 17.5t40.5 61.5h62q-3 -38 -19 -63t-40 -41t-54.5 -22.5t-63.5 -6.5t-63.5 6.5t-55 22t-40.5 41t-19 63.5h62q8 -44 41 -61.5t75 -17.5zM92 0v707h65v-621l406 621h83v-707h-65v616l-406 -616h-83z" />
    <glyph glyph-name="uni041A" unicode="&#x41a;" horiz-adv-x="616" 
d="M92 0v707h65v-335h124l237 335h77l-253 -352l255 -355h-78l-227 312h-135v-312h-65z" />
    <glyph glyph-name="uni041B" unicode="&#x41b;" horiz-adv-x="697" 
d="M540 0v647h-330l-2 -114l-2 -75q0 -57 -2 -114q-2 -54 -5 -112.5t-17 -110.5q-17 -65 -57 -95t-106 -32v67q30 0 51 14.5t34 38.5q11 21 17.5 54t9.5 69t4 70.5t2 58.5q2 85 3 170t3 171h462v-707h-65z" />
    <glyph glyph-name="uni041C" unicode="&#x41c;" horiz-adv-x="836" 
d="M744 707v-707h-65v646q-45 -83 -91 -170l-62 -118q-46 -87 -91 -170h-31l-247 458v-646h-65v707h105l225 -415l221 415h101z" />
    <glyph glyph-name="uni041D" unicode="&#x41d;" horiz-adv-x="730" 
d="M157 377h416v330h65v-707h-65v317h-416v-317h-65v707h65v-330z" />
    <glyph glyph-name="uni041E" unicode="&#x41e;" horiz-adv-x="767" 
d="M384 -8q-82 0 -144 27t-103.5 75.5t-62.5 114.5t-21 144t21 144.5t62.5 114.5t103.5 75.5t144 27.5t143.5 -27.5t103 -76t62.5 -114.5t21 -144t-21 -144t-62.5 -114t-103 -75.5t-143.5 -27.5zM384 656q-67 0 -117 -24t-83 -65.5t-49 -96.5t-16 -117t16.5 -117t49.5 -96
t82.5 -65t116.5 -24t117 23.5t82 64.5t48 96t16 118q0 62 -16 117t-48.5 96.5t-82 65.5t-116.5 24z" />
    <glyph glyph-name="uni041F" unicode="&#x41f;" horiz-adv-x="733" 
d="M641 0h-65v647h-419v-647h-65v707h549v-707z" />
    <glyph glyph-name="uni0420" unicode="&#x420;" horiz-adv-x="626" 
d="M92 707h240q115 0 180 -56t65 -175q0 -60 -20.5 -104t-56 -73.5t-84 -43.5t-104.5 -14h-155v-241h-65v707zM310 301q45 0 82 10t63 32t40.5 56t14.5 81q0 90 -49 128.5t-134 38.5h-170v-346h153z" />
    <glyph glyph-name="uni0421" unicode="&#x421;" horiz-adv-x="711" 
d="M377 656q-67 -1 -116 -24.5t-80 -65t-46 -96t-15 -115.5q0 -62 15 -117t46.5 -96.5t80 -66t116.5 -24.5q31 0 63 6.5t60 21t50 36.5t34 53h73q-15 -47 -43.5 -80.5t-66 -54.5t-82 -31t-90.5 -10q-83 0 -144 27.5t-100.5 75.5t-59 114t-19.5 144q0 77 20 143.5t60.5 115
t102 76t142.5 27.5q46 0 88.5 -10t78 -31.5t61 -54.5t39.5 -80h-66q-12 31 -33.5 53t-48.5 36.5t-58 21t-62 6.5z" />
    <glyph glyph-name="uni0422" unicode="&#x422;" horiz-adv-x="571" 
d="M552 647h-234v-647h-65v647h-234v60h533v-60z" />
    <glyph glyph-name="uni0423" unicode="&#x423;" horiz-adv-x="594" 
d="M112 63q35 1 60.5 7t47.5 20q21 14 37.5 35.5t33.5 51.5l-271 530h80l230 -462l187 462h75q-30 -66 -57 -132t-54 -132.5t-55 -132.5t-61 -131q-20 -39 -43 -75t-59 -63q-33 -25 -71 -33.5t-80 -8.5v64z" />
    <glyph glyph-name="uni0424" unicode="&#x424;" horiz-adv-x="845" 
d="M455 736v-102h78q58 0 105.5 -19t81.5 -53.5t53 -82.5t19 -106q0 -56 -17 -106t-48.5 -87t-78 -58.5t-104.5 -21.5h-89v-120h-65v120h-90q-60 0 -106.5 21t-77.5 57.5t-47 86.5t-16 108t19 106t53.5 82.5t82.5 53.5t106 19h76v102h65zM390 155v423h-72q-46 0 -82.5 -15
t-62.5 -41.5t-40 -64t-14 -82.5q0 -48 12 -88t36.5 -69.5t62 -46t88.5 -16.5h72zM455 155h73q51 0 88.5 16.5t62 46t36 69.5t11.5 88q0 45 -14 82.5t-40 64t-63 41.5t-82 15h-72v-423z" />
    <glyph glyph-name="uni0425" unicode="&#x425;" horiz-adv-x="581" 
d="M472 707h81l-220 -350l229 -357h-81l-191 303l-192 -303h-79l228 354l-221 353h82l182 -300z" />
    <glyph glyph-name="uni0426" unicode="&#x426;" horiz-adv-x="729" 
d="M92 0v707h65v-647h395v647h65v-647h88v-261h-65v201h-548z" />
    <glyph glyph-name="uni0427" unicode="&#x427;" horiz-adv-x="648" 
d="M334 315q42 0 78.5 2.5t78.5 7.5v382h65v-707h-65v266q-38 -5 -74 -7.5t-74 -2.5q-25 0 -51 1t-51.5 5t-50 12.5t-46.5 22.5q-23 15 -38 36.5t-23 46.5t-11 51.5t-3 52.5v223h65v-203q0 -42 7 -81t40 -69q15 -13 33.5 -20.5t39 -11.5t41 -5.5t39.5 -1.5z" />
    <glyph glyph-name="uni0428" unicode="&#x428;" horiz-adv-x="975" 
d="M92 707h65v-647h298v647h65v-647h298v647h65v-707h-791v707z" />
    <glyph glyph-name="uni0429" unicode="&#x429;" horiz-adv-x="995" 
d="M92 707h65v-647h298v647h65v-647h298v647h65v-647h88v-261h-65v201h-814v707z" />
    <glyph glyph-name="uni042A" unicode="&#x42a;" horiz-adv-x="729" 
d="M185 647h-166v60h231v-300h135q51 0 102 -5.5t92 -25t67 -58t27 -104.5q1 -61 -20.5 -102t-58 -66t-85 -35.5t-102.5 -10.5h-222v647zM250 60h144q39 0 77 5t68 21t49 45t19 77t-18 75.5t-47 41.5t-66 18t-75 4h-151v-287z" />
    <glyph glyph-name="uni042B" unicode="&#x42b;" horiz-adv-x="822" 
d="M92 707h65v-300h113q52 0 103.5 -5.5t92.5 -25.5t66.5 -58t25.5 -104q0 -61 -21.5 -102t-58 -66t-84.5 -35.5t-102 -10.5h-200v707zM665 0v707h65v-707h-65zM157 60h122q39 0 77 5t68 21t49 45t19 77t-17.5 75.5t-46.5 41.5t-65.5 18t-74.5 4h-131v-287z" />
    <glyph glyph-name="uni042C" unicode="&#x42c;" horiz-adv-x="634" 
d="M91 707h65v-300h135q51 0 102 -5.5t92.5 -25.5t67.5 -58t26 -104q0 -61 -21.5 -102t-58 -66t-84.5 -35.5t-102 -10.5h-222v707zM156 60h144q39 0 77 5t68 21t49 45t19 77t-18 75.5t-47.5 41.5t-66.5 18t-75 4h-150v-287z" />
    <glyph glyph-name="uni042D" unicode="&#x42d;" horiz-adv-x="709" 
d="M339 656q-31 0 -63.5 -6.5t-61.5 -21t-52 -36.5t-35 -53h-68q14 47 43 80.5t67 54.5t83 31t91 10q81 0 140 -29.5t97.5 -79.5t57 -116.5t18.5 -141.5q0 -78 -19.5 -143.5t-59.5 -112.5t-101 -73.5t-143 -26.5q-47 0 -91 10t-81 31t-65 54.5t-43 80.5h73q12 -32 35 -54
t52 -36t61 -20.5t64 -6.5q63 0 109 20.5t77 57t46.5 86.5t17.5 109h-361v60h361q-3 55 -20 104.5t-48 86.5t-76 59t-105 22z" />
    <glyph glyph-name="uni042E" unicode="&#x42e;" horiz-adv-x="1003" 
d="M92 0v707h65v-323h142q4 72 26 132.5t62 104.5t98 69t134 25q82 0 144 -27.5t103.5 -75.5t62.5 -114.5t21 -144.5t-21 -144t-62.5 -114.5t-103.5 -75.5t-144 -27q-77 0 -135 25t-98 69t-61.5 105t-25.5 133h-142v-324h-65zM619 656q-68 0 -116 -24.5t-78.5 -66t-45 -96.5
t-14.5 -116t14.5 -116t45.5 -96t79 -65.5t115 -24.5t117 23.5t82 64.5t48 96t16 118q0 62 -16 117t-48 96.5t-82 65.5t-117 24z" />
    <glyph glyph-name="uni042F" unicode="&#x42f;" horiz-adv-x="663" 
d="M148 0h-76l155 283q-167 35 -167 205q0 60 18.5 101.5t52.5 68t80 38t102 11.5h258v-707h-65v274h-213zM506 334v313h-194q-42 0 -76.5 -8t-58.5 -26t-37.5 -48t-13.5 -74t15 -74t40.5 -48.5t60 -26.5t73.5 -8h191z" />
    <glyph glyph-name="uni0430" unicode="&#x430;" horiz-adv-x="563" 
d="M430 76q-38 -46 -86.5 -64t-106.5 -18q-35 0 -67.5 8.5t-58.5 27.5t-41.5 48.5t-15.5 66.5q0 45 17 75t44.5 48t63.5 25.5t75 7.5h173q0 36 -7.5 68t-24.5 56t-44.5 38t-67.5 14q-19 0 -38.5 -3t-37 -10t-32 -19.5t-23.5 -30.5h-72q9 33 30 55.5t49.5 37t61 20.5t64.5 6
q58 0 98 -19t64.5 -52.5t35 -78.5t10.5 -97v-286h-54zM288 248q-26 0 -55.5 -2t-54.5 -11.5t-41.5 -29t-16.5 -53.5q0 -27 10.5 -46t28 -32t40 -19t46.5 -6q39 0 72.5 10t58 30.5t38 51t13.5 71.5v36h-139z" />
    <glyph glyph-name="uni0431" unicode="&#x431;" horiz-adv-x="575" 
d="M110 377q30 55 82 81.5t114 26.5q53 0 94.5 -18t69.5 -50t42.5 -75.5t14.5 -94.5q0 -54 -16.5 -100.5t-47 -80.5t-75 -53t-100.5 -19q-54 0 -94.5 16.5t-69 46.5t-45 72t-22.5 93q-4 32 -6 64t-2 64q0 110 19 174q18 66 64 107q24 22 53.5 35.5t62.5 21.5q35 8 83 13
t100 11q12 1 30 3.5t48 8.5v-62q-20 -5 -41 -7.5t-41 -4.5q-32 -3 -66.5 -6t-66.5 -8q-46 -7 -85 -24t-64 -60q-23 -41 -29.5 -85.5t-5.5 -89.5zM290 49q42 0 74 15.5t53.5 42.5t32.5 62.5t11 74.5q0 40 -11 73.5t-32 58.5t-52.5 39t-71.5 14q-38 0 -70 -15.5t-55 -41.5
t-36 -59.5t-13 -70.5q0 -39 10.5 -74.5t32 -61.5t53.5 -41.5t74 -15.5z" />
    <glyph glyph-name="uni0432" unicode="&#x432;" horiz-adv-x="550" 
d="M72 527h202q30 0 63.5 -4t61 -17t46 -37.5t19.5 -65.5q1 -38 -16.5 -70t-55.5 -51q48 -10 76 -41.5t28 -88.5q0 -44 -17.5 -74.5t-46.5 -48.5q-24 -16 -56 -22.5t-65 -6.5h-239v527zM138 472v-175h134q20 0 47 4.5t46 17.5q16 10 26 26.5t10 41.5q0 28 -11.5 45t-30.5 26
t-42 11.5t-46 2.5h-133zM138 55h156q23 0 47 3.5t43.5 13t32.5 27t13 46.5q0 34 -13.5 53t-35.5 29t-48.5 12.5t-52.5 2.5h-142v-187z" />
    <glyph glyph-name="uni0433" unicode="&#x433;" horiz-adv-x="457" 
d="M72 0v527h357v-55h-291v-472h-66z" />
    <glyph glyph-name="uni0434" unicode="&#x434;" horiz-adv-x="604" 
d="M505 527v-472h72v-223h-63v168h-425v-168h-62v222q18 1 31.5 10.5t24 23t17.5 29.5t12 31q14 45 19 97.5t6 94.5l2 94t0 93h366zM439 472h-237q0 -17 -1 -36l-1 -78q0 -18 -1 -36q-1 -45 -4.5 -90.5t-16.5 -89.5q-8 -29 -21 -51.5t-25 -35.5h307v417z" />
    <glyph glyph-name="uni0435" unicode="&#x435;" horiz-adv-x="577" 
d="M117 242q2 -42 14.5 -77t35.5 -60.5t56.5 -40t78.5 -14.5q21 0 42.5 4t41 12.5t35.5 22.5t25 35h69q-11 -35 -33.5 -60t-51.5 -40.5t-63 -22.5t-68 -7q-62 0 -108.5 20t-77.5 55.5t-46 85t-15 108.5q0 60 16 110t47.5 85.5t78 55t106.5 19.5q63 0 106.5 -25t70.5 -65.5
t38.5 -93t9.5 -107.5h-408zM458 297q-1 36 -11.5 69t-31 57.5t-51.5 39t-72 14.5t-72.5 -15t-53.5 -40t-34 -57.5t-14 -67.5h340z" />
    <glyph glyph-name="uni0436" unicode="&#x436;" horiz-adv-x="751" 
d="M342 0v237h-103l-145 -237h-75l170 277l-155 250h73l142 -235h93v235h66v-235h93l142 235h73l-155 -250l171 -277h-75l-146 237h-103v-237h-66z" />
    <glyph glyph-name="uni0437" unicode="&#x437;" horiz-adv-x="518" 
d="M368 278q53 -14 77.5 -46t24.5 -85q0 -45 -19 -74.5t-49 -47t-68 -24.5t-75 -7q-33 0 -69.5 5.5t-68 20t-53.5 40t-26 65.5h65q6 -23 23.5 -37.5t40 -22.5t46.5 -11.5t43 -3.5q25 0 50.5 4t46.5 14.5t34.5 29.5t13.5 49t-12.5 48t-32 27.5t-44.5 12.5t-50 3h-94v55h68
q23 0 47 3t44 13q22 11 37.5 31t15.5 49q0 25 -11.5 42t-29.5 27t-40 14.5t-43 4.5q-19 0 -40.5 -2.5t-40.5 -10.5t-33.5 -22t-19.5 -36h-65q3 37 23 61.5t48.5 39t62 20.5t64.5 6q32 0 65.5 -6.5t60.5 -22t44.5 -42t17.5 -65.5q0 -43 -19 -73.5t-60 -45.5z" />
    <glyph glyph-name="uni0438" unicode="&#x438;" horiz-adv-x="590" 
d="M164 0h-92v527h66v-454l289 454h91v-527h-66v450z" />
    <glyph glyph-name="uni0439" unicode="&#x439;" horiz-adv-x="590" 
d="M296 656q17 0 35 3t33 10.5t25.5 21.5t13.5 37h61q-3 -35 -18.5 -58.5t-39 -38t-52.5 -20.5t-60 -6t-60 6t-51.5 20.5t-37 38t-17.5 58.5h61q3 -23 13.5 -37t25.5 -21.5t33 -10.5t35 -3zM72 0v527h66v-454l289 454h91v-527h-66v450l-287 -450h-93z" />
    <glyph glyph-name="uni043A" unicode="&#x43a;" horiz-adv-x="516" 
d="M72 0v527h66v-236h113l163 236h73l-177 -253l194 -274h-76l-170 236h-120v-236h-66z" />
    <glyph glyph-name="uni043B" unicode="&#x43b;" horiz-adv-x="568" 
d="M496 527v-527h-66v472h-228q-1 -28 -2 -57l-5 -111q-1 -28 -2 -57q-2 -26 -4.5 -55t-8.5 -57.5t-17 -54.5t-30 -45q-24 -24 -50 -31.5t-59 -7.5v62q30 2 49.5 17.5t30.5 41.5q13 32 17.5 70.5t6.5 65.5q5 69 6.5 137t3.5 137h358z" />
    <glyph glyph-name="uni043C" unicode="&#x43c;" horiz-adv-x="696" 
d="M72 527h105l174 -286l170 286h103v-527h-66v466l-196 -332h-26l-198 331v-465h-66v527z" />
    <glyph glyph-name="uni043D" unicode="&#x43d;" horiz-adv-x="574" 
d="M72 0v527h66v-241h298v241h66v-527h-66v231h-298v-231h-66z" />
    <glyph glyph-name="uni043E" unicode="&#x43e;" horiz-adv-x="603" 
d="M301 533q62 0 108.5 -20t78 -56t47.5 -85.5t16 -108.5t-16 -108.5t-47.5 -85t-78 -55.5t-108.5 -20t-108.5 20t-78 55.5t-47 85t-15.5 108.5t15.5 108.5t47 85.5t78 56t108.5 20zM301 50q48 0 83 16.5t57.5 45.5t33 68t10.5 83t-10.5 83t-33 68t-57.5 46t-83 17t-83 -17
t-57.5 -46t-33 -68t-10.5 -83t10.5 -83t33 -68t57.5 -45.5t83 -16.5z" />
    <glyph glyph-name="uni043F" unicode="&#x43f;" horiz-adv-x="577" 
d="M72 0v527h433v-527h-66v472h-301v-472h-66z" />
    <glyph glyph-name="uni0440" unicode="&#x440;" horiz-adv-x="609" 
d="M138 -197h-66v724h66v-90q24 37 60 61q30 19 62.5 27t70.5 8q62 0 106 -23t72 -62t40 -90.5t11 -107.5q-2 -68 -23.5 -123t-66.5 -89q-27 -21 -64.5 -32.5t-82.5 -11.5q-26 0 -52 3.5t-49 13t-45.5 25t-38.5 40.5v-273zM319 50q47 0 80 17t54 46.5t31 68t10 80.5
q0 43 -9.5 82.5t-30.5 68.5t-54.5 46.5t-82.5 17.5q-44 0 -79.5 -19.5t-58.5 -50.5q-23 -29 -33 -66.5t-10 -78.5q0 -49 15.5 -98t56.5 -80q46 -34 111 -34z" />
    <glyph glyph-name="uni0441" unicode="&#x441;" horiz-adv-x="558" 
d="M299 -6q-62 0 -108 20t-77 56t-46.5 85t-15.5 107q0 60 16 109.5t48 85.5t79 56t109 20q72 0 126.5 -35t73.5 -107h-67q-14 44 -52.5 65t-84.5 21q-47 0 -81.5 -17t-57 -46.5t-33.5 -68.5t-11 -83q0 -43 11 -81.5t33.5 -67.5t58 -46t83.5 -17t86 18t55 67h68
q-11 -37 -32 -63.5t-49.5 -44t-62.5 -25.5t-69 -8z" />
    <glyph glyph-name="uni0442" unicode="&#x442;" horiz-adv-x="468" 
d="M456 527v-55h-189v-472h-66v472h-189v55h444z" />
    <glyph glyph-name="uni0443" unicode="&#x443;" horiz-adv-x="548" 
d="M455 527h76l-176 -499q-8 -23 -20 -53t-26.5 -60t-31 -57t-33.5 -43q-32 -32 -68.5 -41t-87.5 -9v63q18 0 34 1t29 6q22 7 38.5 21.5t29.5 32.5t23 38.5t18 40.5l-238 559h79l197 -475z" />
    <glyph glyph-name="uni0444" unicode="&#x444;" horiz-adv-x="736" 
d="M335 696h66v-163q66 -1 119 -18.5t90.5 -51.5t57.5 -85t20 -119t-20 -117.5t-57.5 -81.5t-90.5 -48.5t-119 -18.5v-190h-66v190q-65 2 -118 18.5t-90.5 49t-58 82t-20.5 116.5q0 69 20 120t57 84.5t90.5 51t119.5 18.5v163zM401 48q51 0 91.5 13t69.5 39t44.5 66t15.5 96
q0 109 -56.5 161.5t-164.5 52.5v-428zM335 476q-108 0 -164.5 -52.5t-56.5 -161.5q0 -55 15.5 -95.5t44.5 -66.5t69.5 -39t91.5 -13v428z" />
    <glyph glyph-name="uni0445" unicode="&#x445;" horiz-adv-x="508" 
d="M251 219l-154 -219h-78l190 267l-181 260h83l144 -215l141 215h80l-179 -261l192 -266h-82z" />
    <glyph glyph-name="uni0446" unicode="&#x446;" horiz-adv-x="592" 
d="M427 55v472h66v-472h72v-223h-63v168h-430v527h66v-472h289z" />
    <glyph glyph-name="uni0447" unicode="&#x447;" horiz-adv-x="532" 
d="M49 527h66v-114q0 -42 5.5 -72t21.5 -50t44 -29.5t73 -9.5q33 0 65 2t70 9v264h66v-527h-66v207q-42 -8 -74.5 -10.5t-67.5 -2.5q-56 0 -94.5 12t-62.5 38t-35 66.5t-11 96.5v120z" />
    <glyph glyph-name="uni0448" unicode="&#x448;" horiz-adv-x="802" 
d="M72 527h66v-472h229v472h66v-472h231v472h66v-527h-658v527z" />
    <glyph glyph-name="uni0449" unicode="&#x449;" horiz-adv-x="829" 
d="M72 527h66v-472h229v472h66v-472h231v472h66v-472h72v-223h-63v168h-667v527z" />
    <glyph glyph-name="uni044A" unicode="&#x44a;" horiz-adv-x="600" 
d="M153 472h-134v55h201v-209h114q40 0 80 -5t71 -20.5t50.5 -46t19.5 -78.5q0 -47 -16 -79t-43.5 -51.5t-64.5 -28.5t-79 -9h-199v472zM320 55q31 0 61 3t54 14t38.5 33t14.5 60q0 33 -14 52.5t-36 29.5t-49.5 13t-54.5 3h-114v-208h100z" />
    <glyph glyph-name="uni044B" unicode="&#x44b;" horiz-adv-x="676" 
d="M539 0v527h65v-527h-65zM72 527h67v-209h92q40 0 80 -4.5t71 -20t50.5 -46.5t19.5 -79q0 -47 -16 -79t-43.5 -51.5t-64.5 -28.5t-79 -9h-177v527zM217 55q31 0 61 3t54 14t38.5 33t14.5 60q0 33 -13.5 52.5t-35.5 29.5t-49.5 13t-54.5 3h-93v-208h78z" />
    <glyph glyph-name="uni044C" unicode="&#x44c;" horiz-adv-x="523" 
d="M72 527h67v-209h114q40 0 80 -4.5t71 -20.5t50.5 -46.5t19.5 -78.5q0 -47 -16 -79t-43.5 -51.5t-64.5 -28.5t-79 -9h-199v527zM239 55q31 0 61 3t54 14t38.5 33t14.5 60q0 33 -14 52.5t-36 29.5t-49.5 13t-54.5 3h-114v-208h100z" />
    <glyph glyph-name="uni044D" unicode="&#x44d;" horiz-adv-x="552" 
d="M438 289q-2 38 -13.5 72.5t-32.5 60t-52.5 40.5t-73.5 15q-23 0 -46.5 -4.5t-44 -14.5t-37 -26t-24.5 -40h-64q10 37 31.5 63.5t50 44t63 25.5t70.5 8q62 0 107 -20.5t74.5 -56.5t43.5 -85.5t14 -107.5q0 -59 -14.5 -108.5t-44 -85t-75 -55.5t-108.5 -20q-37 0 -71.5 8
t-64 25t-51 43.5t-31.5 64.5h68q8 -24 24.5 -40t38 -26t45 -14.5t46.5 -4.5q42 0 73.5 14.5t53 39t32.5 58t12 72.5h-260v55h261z" />
    <glyph glyph-name="uni044E" unicode="&#x44e;" horiz-adv-x="797" 
d="M502 533q62 0 108.5 -20.5t77 -56.5t46 -85.5t15.5 -107.5q0 -59 -15.5 -108t-47 -85t-78 -56t-107.5 -20q-57 0 -100.5 17.5t-73.5 49t-46.5 76t-20.5 99.5h-122v-236h-66v527h66v-236h122q4 55 21 99.5t47 76t73 49t101 17.5zM502 50q48 0 82.5 17t56.5 46t32 67.5
t10 82.5t-10 83t-32 68t-56.5 46t-82.5 17q-49 0 -83 -17t-55.5 -46t-31 -68t-9.5 -83t10 -82.5t32 -67.5t55.5 -46t81.5 -17z" />
    <glyph glyph-name="uni044F" unicode="&#x44f;" horiz-adv-x="531" 
d="M459 0h-65v204h-142l-135 -204h-78l145 213q-62 11 -100 49.5t-38 103.5q0 51 17 82t46 50q28 18 63.5 23.5t77.5 5.5h209v-527zM394 472h-132q-32 0 -61 -3t-47 -14q-17 -11 -29.5 -31.5t-12.5 -52.5q0 -28 9.5 -48.5t25.5 -32.5q15 -11 32.5 -17.5t37 -9.5t38.5 -3.5
t37 -0.5h102v213z" />
    <glyph glyph-name="uni0451" unicode="&#x451;" horiz-adv-x="577" 
d="M178 705q20 0 35 -13.5t15 -34.5t-15 -34.5t-35 -13.5t-34.5 14t-14.5 34t14.5 34t34.5 14zM408 705q20 0 35 -13.5t15 -34.5t-15 -34.5t-35 -13.5t-34 14t-14 34t14 34t34 14zM117 242q2 -42 14.5 -77t35.5 -60.5t56.5 -40t78.5 -14.5q21 0 42.5 4t41 12.5t35.5 22.5
t25 35h69q-11 -35 -33.5 -60t-51.5 -40.5t-63 -22.5t-68 -7q-62 0 -108.5 20t-77.5 55.5t-46 85t-15 108.5q0 61 16 110.5t47.5 85t78.5 55t108 19.5q63 0 106 -25t70 -65.5t38 -93t9 -107.5h-408zM458 297q-1 36 -11.5 69t-31 57.5t-51 39t-71.5 14.5t-73 -14.5t-54 -39.5
t-34 -57.5t-14 -68.5h340z" />
    <glyph glyph-name="uni0454" unicode="&#x454;" horiz-adv-x="553" 
d="M114 289h261v-55h-260q1 -39 12.5 -72.5t33.5 -58.5t53.5 -39t72.5 -14q22 0 46 4.5t45.5 14.5t38 26t24.5 40h68q-9 -36 -32 -62.5t-53.5 -44t-65.5 -26t-69 -8.5q-63 0 -108.5 19.5t-75 55t-43.5 85t-14 109.5q0 58 15 107.5t45 85.5t75.5 56.5t107.5 20.5
q36 0 69.5 -8.5t61.5 -25.5t48.5 -44t30.5 -63h-63q-8 23 -24 39t-36.5 26.5t-44 15t-45.5 4.5q-42 0 -73.5 -14.5t-53 -40t-33.5 -59.5t-14 -74z" />
    <glyph glyph-name="uni0456" unicode="&#x456;" horiz-adv-x="227" 
d="M113 717q22 0 36 -13t14 -35q0 -23 -14 -36t-36 -13t-35.5 13t-13.5 36t13.5 35.5t35.5 12.5zM80 527h66v-527h-66v527z" />
    <glyph glyph-name="uni0457" unicode="&#x457;" horiz-adv-x="228" 
d="M51 704q20 0 33.5 -12.5t13.5 -33.5q0 -22 -13 -34.5t-34 -12.5t-33.5 12.5t-12.5 34.5t12.5 34t33.5 12zM176 704q20 0 33.5 -12.5t13.5 -33.5q0 -22 -13 -34.5t-34 -12.5q-22 0 -34 12.5t-12 34.5q0 46 46 46zM81 527h66v-527h-66v527z" />
    <glyph glyph-name="uni0490" unicode="&#x490;" horiz-adv-x="569" 
d="M92 0v707h380v149h65v-209h-380v-647h-65z" />
    <glyph glyph-name="uni0491" unicode="&#x491;" horiz-adv-x="454" 
d="M72 0v527h290v148h64v-203h-288v-472h-66z" />
    <glyph glyph-name="uni04C1" unicode="&#x4c1;" horiz-adv-x="858" 
d="M429 849q21 0 40 4t35 13.5t27 24.5t14 37h61q-3 -38 -19 -63t-40 -41t-54.5 -22.5t-63.5 -6.5q-32 0 -62.5 6.5t-55 22t-41 41t-19.5 63.5h61q8 -44 42 -61.5t75 -17.5zM396 0v317h-130l-170 -317h-77l192 357l-192 350h73l177 -330h127v330h65v-330h128l178 330h71
l-192 -350l193 -357h-79l-169 317h-130v-317h-65z" />
    <glyph glyph-name="uni04C2" unicode="&#x4c2;" horiz-adv-x="751" 
d="M375 670q17 0 35 3t33.5 10.5t26 21.5t13.5 37h60q-3 -35 -18.5 -58.5t-38.5 -38t-52.5 -20.5t-60.5 -6t-59.5 6t-51 20.5t-37 38t-17.5 58.5h60q3 -23 13.5 -37t25.5 -21.5t33 -10.5t35 -3zM342 0v237h-103l-145 -237h-75l170 277l-155 250h73l142 -235h93v235h66v-235
h93l142 235h73l-155 -250l171 -277h-75l-146 237h-103v-237h-66z" />
    <glyph glyph-name="uni2009" unicode="&#x2009;" horiz-adv-x="110" 
 />
    <glyph glyph-name="endash" unicode="&#x2013;" horiz-adv-x="576" 
d="M497 251h-418v60h418v-60z" />
    <glyph glyph-name="emdash" unicode="&#x2014;" horiz-adv-x="763" 
d="M684 251h-605v60h605v-60z" />
    <glyph glyph-name="quoteleft" unicode="&#x2018;" horiz-adv-x="253" 
d="M128 527q-29 1 -41.5 21t-12.5 46q-1 22 5.5 44.5t18.5 42t29 35t38 24.5l16 -26q-21 -14 -35.5 -35t-19.5 -50q25 2 39.5 -12.5t14.5 -38.5q0 -22 -14.5 -37t-37.5 -14z" />
    <glyph glyph-name="quoteright" unicode="&#x2019;" horiz-adv-x="253" 
d="M126 732q29 -1 42 -22.5t11 -44.5q1 -45 -23.5 -86.5t-67.5 -60.5l-16 26q22 15 36.5 36t19.5 50q-26 -2 -40 12.5t-14 38.5q0 22 14.5 36.5t37.5 14.5z" />
    <glyph glyph-name="quotesinglbase" unicode="&#x201a;" horiz-adv-x="253" 
d="M126 94q26 0 40 -20.5t13 -44.5q1 -47 -23.5 -88.5t-67.5 -59.5l-16 26q22 14 36.5 35t19.5 50q-26 -2 -40 12.5t-14 39.5q0 22 15 36.5t37 13.5z" />
    <glyph glyph-name="quotedblleft" unicode="&#x201c;" horiz-adv-x="437" 
d="M311 527q-29 1 -41.5 21.5t-11.5 45.5q-1 22 5.5 44.5t18.5 42t29 35t38 24.5l16 -26q-22 -14 -36.5 -35t-19.5 -50q26 2 40 -12.5t14 -38.5q0 -22 -14.5 -37t-37.5 -14zM127 527q-29 1 -41 21.5t-12 45.5q-1 22 5.5 44.5t18.5 42t29 35t38 24.5l16 -26
q-21 -14 -35.5 -35t-19.5 -50q25 2 39.5 -12.5t14.5 -38.5q0 -22 -15 -37t-38 -14z" />
    <glyph glyph-name="quotedblright" unicode="&#x201d;" horiz-adv-x="437" 
d="M126 732q29 -1 41.5 -21.5t11.5 -45.5q1 -45 -23.5 -86.5t-67.5 -60.5l-16 26q22 15 36.5 36t19.5 50q-26 -2 -40 12.5t-14 38.5q0 22 14.5 36.5t37.5 14.5zM310 732q29 -1 41.5 -21.5t11.5 -45.5q1 -45 -24 -86.5t-67 -60.5l-16 26q21 15 36 36t20 50q-26 -2 -40.5 12.5
t-14.5 38.5q0 22 15 36.5t38 14.5z" />
    <glyph glyph-name="quotedblbase" unicode="&#x201e;" horiz-adv-x="436" 
d="M126 94q26 0 40 -20.5t13 -44.5q1 -47 -23.5 -88.5t-67.5 -59.5l-16 26q22 14 36.5 35t19.5 50q-26 -2 -40 12.5t-14 39.5q0 22 15 36.5t37 13.5zM309 94q26 0 40 -20.5t13 -44.5q1 -47 -23.5 -88.5t-67.5 -59.5l-16 26q22 14 36.5 35t19.5 50q-26 -2 -40 12.5t-14 39.5
q0 22 15 36.5t37 13.5z" />
    <glyph glyph-name="bullet" unicode="&#x2022;" horiz-adv-x="323" 
d="M161 464q45 0 71.5 -28t26.5 -70t-26 -71t-72 -29q-45 0 -71 29t-26 71t26.5 70t70.5 28z" />
    <glyph glyph-name="ellipsis" unicode="&#x2026;" horiz-adv-x="700" 
d="M112 94q23 0 37 -14t14 -36t-13.5 -37t-37.5 -15q-23 0 -36.5 15t-13.5 37t13.5 36t36.5 14zM588 94q23 0 36.5 -14t13.5 -36t-13.5 -37t-36.5 -15q-24 0 -37.5 15t-13.5 37t14 36t37 14zM350 94q23 0 37 -14t14 -36t-14 -37t-37 -15t-36.5 15t-13.5 37t13.5 36t36.5 14z
" />
    <glyph glyph-name="uni202F" unicode="&#x202f;" horiz-adv-x="110" 
 />
    <glyph glyph-name="guilsinglleft" unicode="&#x2039;" horiz-adv-x="285" 
d="M221 93h-65l-112 167l112 169h65l-111 -168z" />
    <glyph glyph-name="guilsinglright" unicode="&#x203a;" horiz-adv-x="285" 
d="M64 429h65l112 -167l-112 -169h-65l111 168z" />
    <glyph glyph-name="Euro" unicode="&#x20ac;" horiz-adv-x="682" 
d="M438 -8q-119 0 -190.5 64t-93.5 176h-100l9 60h86q-3 32 -2.5 63t4.5 63h-97l10 60h95q13 54 37 97.5t58 74.5t80 48t103 17q52 0 96 -13.5t83 -43.5l-32 -51q-35 27 -70.5 38t-79.5 11q-42 0 -76 -13.5t-60.5 -37t-45 -56t-28.5 -71.5h281l-9 -60h-282q-4 -29 -5 -63
t4 -63h259l-9 -60h-241q17 -84 75 -132.5t146 -48.5q45 0 80.5 11.5t70.5 40.5l34 -47q-38 -35 -88.5 -49.5t-101.5 -14.5z" />
    <glyph glyph-name="uni20B4" unicode="&#x20b4;" horiz-adv-x="590" 
d="M319 715q35 0 68.5 -9t60 -27.5t42.5 -47.5t17 -69q1 -36 -13 -65t-37 -51h81v-59h-132l-151 -108h283v-59h-347q-26 -28 -26 -66q0 -28 11.5 -48t30 -32.5t42 -18.5t47.5 -6q21 0 43 2.5t41 10t34.5 21t24.5 36.5h69q-9 -36 -31 -60.5t-51 -39.5t-63.5 -21t-67.5 -6
q-36 0 -71 8t-62.5 26t-44 46.5t-16.5 70.5q0 18 5.5 39.5t16.5 37.5h-71v59h119l148 108h-267v59h336q10 6 20.5 17.5t19 25.5t14 29.5t5.5 30.5q0 29 -11 49.5t-29 33t-41.5 18.5t-49.5 6q-23 0 -44 -3t-39.5 -11.5t-32.5 -23t-21 -38.5h-71q8 37 29.5 62.5t50.5 41.5
t63 23.5t68 7.5z" />
    <glyph glyph-name="uni20BD" unicode="&#x20bd;" horiz-adv-x="704" 
d="M165 707h238q58 0 103.5 -12.5t77.5 -39.5t49 -69t17 -102t-20.5 -103t-56 -70.5t-84 -40.5t-104.5 -13h-155v-103h287v-60h-287v-94h-65v94h-101v60h101v103h-101v60h101v390zM383 317q45 0 82 9t63.5 29t40.5 52.5t14 79.5q0 44 -12.5 74.5t-36.5 49.5t-58 27.5
t-77 8.5h-169v-330h153z" />
    <glyph glyph-name="uni2116" unicode="&#x2116;" horiz-adv-x="1050" 
d="M847 415q-34 0 -60 11.5t-44 31.5t-27 47.5t-9 59.5q0 66 36 108t105 42q34 0 59.5 -11.5t43 -31.5t26.5 -47.5t9 -59.5q0 -31 -9.5 -58.5t-27 -47.5t-43.5 -32t-59 -12zM64 0v707h102l389 -643v643h65v-707h-100l-391 641v-641h-65zM847 664q-45 0 -66 -28.5t-21 -70.5
q0 -43 20.5 -71.5t66.5 -28.5q45 0 64 29.5t19 70.5q0 42 -20 70t-63 29zM979 282h-265v60h265v-60z" />
    <glyph glyph-name="uni2117" unicode="&#x2117;" horiz-adv-x="938" 
d="M469 715q93 0 168 -31t127.5 -87t81 -133.5t28.5 -169.5t-27.5 -169t-80 -132.5t-127.5 -86.5t-170 -31t-170 31t-127.5 86.5t-80 132.5t-27.5 169t28.5 169.5t81 133.5t127.5 87t168 31zM469 654q-80 0 -143 -27t-106.5 -75t-67 -114t-23.5 -144q0 -77 23 -143t67 -114
t107 -75t143 -27t143.5 27.5t107 75.5t66.5 113.5t23 142.5t-23 143t-67 114t-107 75.5t-143 27.5zM403 75h-57v425h150q70 0 112.5 -33.5t43.5 -107.5q0 -38 -12 -65.5t-34.5 -45.5t-54 -26.5t-68.5 -8.5h-80v-138zM485 266q48 0 79 20.5t31 72.5q0 47 -28.5 67.5
t-72.5 20.5h-91v-181h82z" />
    <glyph glyph-name="trademark" unicode="&#x2122;" horiz-adv-x="634" 
d="M152 669h-88v38h218v-38h-89v-210h-41v210zM431 515l-70 153v-209h-41v248h65l61 -136l61 136h63v-248h-41v209l-70 -153h-28z" />
    <glyph glyph-name="arrowleft" unicode="&#x2190;" horiz-adv-x="709" 
d="M688 363v-58h-554l260 -218l-38 -43l-336 290l336 291l38 -44l-260 -218h554z" />
    <glyph glyph-name="arrowup" unicode="&#x2191;" horiz-adv-x="709" 
d="M383 0h-58v554l-218 -260l-43 38l290 336l291 -336l-44 -38l-218 260v-554z" />
    <glyph glyph-name="arrowright" unicode="&#x2192;" horiz-adv-x="709" 
d="M20 305v58h554l-260 218l38 43l336 -290l-336 -291l-38 44l260 218h-554z" />
    <glyph glyph-name="arrowdown" unicode="&#x2193;" horiz-adv-x="709" 
d="M326 668h58v-554l218 260l43 -38l-290 -336l-291 336l44 38l218 -260v554z" />
    <glyph glyph-name="uni2196" unicode="&#x2196;" horiz-adv-x="709" 
d="M611 118l-41 -41l-392 392l30 -338l-58 -3l-32 442l443 -32l-4 -58l-338 30z" />
    <glyph glyph-name="uni2197" unicode="&#x2197;" horiz-adv-x="709" 
d="M138 77l-41 41l392 392l-338 -30l-3 58l442 32l-32 -443l-58 4l30 338z" />
    <glyph glyph-name="uni2198" unicode="&#x2198;" horiz-adv-x="709" 
d="M97 550l41 41l392 -392l-30 338l58 3l32 -442l-443 32l4 58l338 -30z" />
    <glyph glyph-name="uni2199" unicode="&#x2199;" horiz-adv-x="709" 
d="M570 591l41 -41l-392 -392l338 30l3 -58l-442 -32l32 443l58 -4l-30 -338z" />
    <glyph glyph-name="uni21A9" unicode="&#x21a9;" horiz-adv-x="1151" 
d="M761 60q62 0 111 21.5t82.5 59t51 88.5t17.5 111q0 59 -17.5 110t-51.5 88.5t-82.5 58.5t-110.5 21h-560v60h568q76 0 135.5 -25.5t100 -70.5t61.5 -107t21 -135q0 -74 -21 -136.5t-61.5 -107.5t-100 -70.5t-135.5 -25.5h-591l237 -237l-43 -46l-308 313l308 312l43 -46
l-237 -236h583z" />
    <glyph glyph-name="uni21B6" unicode="&#x21b6;" horiz-adv-x="1019" 
d="M309 57q-24 29 -42.5 64t-30.5 73.5t-18.5 78.5t-6.5 78q0 84 25.5 155t73.5 122.5t117 81t155 29.5q78 0 143 -26.5t113 -73.5t78 -111.5t39 -139.5h-68q-8 61 -33 113t-64.5 90t-92 60t-115.5 22q-71 0 -127.5 -24.5t-96 -68t-60.5 -102t-21 -127.5q0 -29 5 -62
t15.5 -68.5t27 -71t39.5 -68.5l70 244l59 -19l-102 -336l-327 115l20 62z" />
    <glyph glyph-name="uni21B7" unicode="&#x21b7;" horiz-adv-x="1020" 
d="M708 57l227 90l21 -62l-328 -113l-103 334l59 19l71 -244q23 33 39.5 68.5t27 71t15.5 68.5t5 62q0 69 -21 127.5t-60.5 102t-96 68t-127.5 24.5q-64 0 -116.5 -22t-91.5 -60t-64 -90t-33 -113h-68q9 75 39 139.5t78 111.5t113 73.5t143 26.5q86 0 155 -29.5t117 -81
t73.5 -122.5t25.5 -155q0 -38 -6.5 -78t-19.5 -78.5t-31.5 -73.5t-42.5 -64z" />
    <glyph glyph-name="uni21BA" unicode="&#x21ba;" horiz-adv-x="927" 
d="M614 710q96 -60 149.5 -159.5t53.5 -222.5q0 -80 -27.5 -149.5t-77 -120.5t-117.5 -80t-149 -29q-86 0 -156 28.5t-120 79.5t-77.5 122t-27.5 156q0 91 31.5 173t96.5 147l46 -48q-51 -57 -79 -126.5t-28 -145.5q0 -68 22 -126.5t62.5 -102t97.5 -68.5t126 -25
q70 0 127 24t97.5 66.5t62.5 101t22 126.5q0 47 -12 93.5t-34.5 90t-55 81.5t-73.5 68l-5 -240h-64l9 347l349 -10l-2 -62z" />
    <glyph glyph-name="uni21BB" unicode="&#x21bb;" horiz-adv-x="927" 
d="M66 699l-2 62l349 10l9 -347h-64l-5 240q-41 -30 -73.5 -68t-55 -81.5t-34.5 -90t-12 -93.5q0 -68 22 -126.5t62.5 -101t97.5 -66.5t127 -24q69 0 125.5 25t97 68.5t63 102t22.5 126.5q0 76 -28 145.5t-79 126.5l46 48q65 -65 96.5 -147t31.5 -173q0 -85 -27.5 -156
t-77.5 -122t-120.5 -79.5t-155.5 -28.5q-81 0 -149 29t-117.5 80t-77 120.5t-27.5 149.5q0 123 53.5 222.5t149.5 159.5z" />
    <glyph glyph-name="minus" unicode="&#x2212;" horiz-adv-x="518" 
d="M439 385v-60h-360v60h360z" />
    <glyph glyph-name="approxequal" unicode="&#x2248;" horiz-adv-x="593" 
d="M200 531q35 0 61 -17.5t48.5 -39t43 -39t44.5 -17.5q19 0 30.5 8.5t17.5 21.5t8.5 29.5t3.5 31.5h62q-2 -30 -9 -57t-21.5 -47t-38 -32t-57.5 -12q-36 0 -62.5 17.5t-48.5 38.5t-42.5 38.5t-44.5 17.5q-18 0 -29.5 -8.5t-17.5 -22t-8.5 -29.5t-2.5 -31h-63q1 30 8 57
t22 47.5t38.5 32.5t57.5 12zM200 336q35 0 61 -17.5t48.5 -39t43 -39t44.5 -17.5q19 0 30.5 8.5t17.5 21.5t8.5 29.5t3.5 31.5h62q-2 -30 -9 -57t-21.5 -47t-38 -32t-57.5 -12q-36 0 -62.5 17.5t-48.5 38.5t-42.5 38.5t-44.5 17.5q-18 0 -29.5 -8.5t-17.5 -22t-8.5 -29.5
t-2.5 -31h-63q1 30 8 57t22 47.5t38.5 32.5t57.5 12z" />
    <glyph glyph-name="notequal" unicode="&#x2260;" horiz-adv-x="539" 
d="M74 507h233l91 196h67l-90 -196h90v-60h-118l-90 -196h208v-60h-236l-88 -191h-67l88 191h-88v60h116l90 196h-206v60z" />
    <glyph glyph-name="lessequal" unicode="&#x2264;" horiz-adv-x="539" 
d="M74 450l391 205v-67l-297 -153l297 -154v-68l-391 206v31zM74 201h391v-60h-391v60z" />
    <glyph glyph-name="greaterequal" unicode="&#x2265;" horiz-adv-x="539" 
d="M465 418l-391 -205v66l297 153l-297 154v69l391 -206v-31zM74 201h391v-60h-391v60z" />
    <glyph glyph-name="uni2713" unicode="&#x2713;" horiz-adv-x="1060" 
d="M937 820l59 -46l-618 -767l-314 363l58 47l256 -299z" />
    <glyph glyph-name="uni27F5" unicode="&#x27f5;" horiz-adv-x="1371" 
d="M1307 235h-1129l237 -236l-43 -46l-308 312l308 313l43 -46l-237 -237h1129v-60z" />
    <glyph glyph-name="uni27F6" unicode="&#x27f6;" horiz-adv-x="1371" 
d="M64 295h1129l-237 237l43 46l308 -313l-308 -312l-43 46l237 236h-1129v60z" />
    <glyph glyph-name="uniE000" unicode="&#xe000;" 
d="M608 353q0 -67 -13 -132t-44.5 -116t-84 -82t-131.5 -31t-131.5 31t-83.5 81.5t-44 115.5t-13 133q0 67 13 132t44.5 116t83.5 82.5t131 31.5t131.5 -31.5t84 -82.5t44.5 -116t13 -132zM130 353q0 -53 8 -106.5t30 -97t62 -71t105 -27.5t105 27.5t62.5 71t30 97
t7.5 106.5q0 52 -8 105.5t-30.5 97.5t-62.5 72t-104 28t-104 -28t-62.5 -72t-30.5 -97.5t-8 -105.5z" />
    <glyph glyph-name="uniE001" unicode="&#xe001;" 
d="M370 0h-65v585h-142v39q27 1 51.5 4t45.5 11.5t37.5 24.5t28.5 43h44v-707z" />
    <glyph glyph-name="uniE002" unicode="&#xe002;" 
d="M495 513q0 35 -12 62t-33 45t-50 27t-62 9q-49 0 -91 -20t-61 -65h-73q10 37 33.5 64.5t55 45.5t68 26t72.5 8q47 0 87 -13t69.5 -38t46 -62.5t16.5 -86.5q0 -48 -14.5 -87t-38.5 -73t-55.5 -63.5t-65.5 -58.5l-202 -173h384v-60h-477v62l204 174q31 27 66.5 57t65 63.5
t48.5 73t19 83.5z" />
    <glyph glyph-name="uniE003" unicode="&#xe003;" 
d="M160 141q8 -26 28 -43.5t45.5 -27.5t53.5 -14.5t52 -4.5q36 -1 69 5.5t58.5 23t41 44.5t15.5 69q0 44 -17 71t-44.5 41.5t-62.5 19.5t-71 5h-73v60h48q38 0 75 8.5t67 32.5q22 17 35.5 42t14.5 53q1 36 -12 61t-35.5 40t-51.5 22t-61 7q-25 0 -50 -4t-46 -14.5t-37 -27.5
t-22 -42h-68q5 41 27.5 69t55 45.5t70.5 25t74 7.5q42 0 81.5 -9t70 -30t49 -54.5t18.5 -82.5q0 -57 -31.5 -101.5t-86.5 -65.5q70 -14 110 -60.5t40 -118.5q0 -55 -21 -93.5t-56.5 -62.5t-81 -34.5t-93.5 -10.5q-39 0 -79.5 7.5t-74.5 24.5t-59 46t-33 71h68z" />
    <glyph glyph-name="uniE004" unicode="&#xe004;" 
d="M438 146h-381v52l350 509h96v-501h88v-60h-88v-146h-65v146zM438 647l-302 -441h302v441z" />
    <glyph glyph-name="uniE005" unicode="&#xe005;" 
d="M117 320l34 387h411v-60h-353l-24 -261q38 31 84 45.5t97 14.5q50 0 91 -16t70 -45t45 -70t16 -91q0 -57 -19.5 -100t-53.5 -72.5t-80 -44.5t-99 -15q-39 0 -77 8.5t-69.5 26.5t-55.5 46.5t-35 69.5h69q10 -23 28 -40t41 -28.5t48 -17.5t48 -6q41 0 75.5 10t59 31
t38.5 52.5t14 74.5q0 81 -47.5 124t-126.5 43q-42 0 -82 -18t-71 -48h-76z" />
    <glyph glyph-name="uniE006" unicode="&#xe006;" 
d="M340 445q52 0 93 -16.5t71 -45.5t47 -70t17 -90q0 -52 -18 -94.5t-50 -73t-75.5 -47t-95.5 -16.5q-73 0 -129.5 32t-90.5 97q-26 51 -36 113.5t-8 117.5q1 38 6 78t16.5 79t30.5 74t47 62q34 34 79.5 52t101.5 18q70 0 127 -35t84 -101h-70q-21 38 -61 57.5t-82 19.5
q-63 0 -104 -28t-65 -72q-27 -50 -36 -111.5t-9 -114.5q30 56 88 85.5t122 29.5zM501 214q0 37 -12 68t-33.5 54t-52.5 36t-68 13q-35 0 -68 -12.5t-57.5 -35t-39.5 -53t-14 -66.5t15 -66.5t38 -53t55 -35t66 -12.5t66 12t54 33.5t37 51.5t14 66z" />
    <glyph glyph-name="uniE007" unicode="&#xe007;" 
d="M221 0l295 647h-390v60h460v-61l-291 -646h-74z" />
    <glyph glyph-name="uniE008" unicode="&#xe008;" 
d="M583 192q0 -54 -20.5 -92t-54.5 -62t-78.5 -35t-92.5 -11t-92.5 10.5t-78.5 34.5t-54 62t-20 93q0 32 10.5 59.5t28.5 49.5t42.5 37.5t52.5 24.5q-54 17 -83 63t-29 106q0 48 19 83t50.5 57t71.5 32.5t83 10.5q42 0 82.5 -10.5t72 -32.5t50.5 -57t19 -83
q0 -60 -31 -104.5t-83 -61.5q60 -17 97.5 -62.5t37.5 -111.5zM338 656q-33 0 -61.5 -7.5t-49.5 -24t-33 -42t-12 -61.5q0 -35 12.5 -60t34 -41.5t50 -24t59.5 -7.5q28 0 56 8t50.5 24t36 40t13.5 57q0 37 -11.5 63.5t-32.5 43t-49.5 24.5t-62.5 8zM338 331q-33 0 -65 -7.5
t-57.5 -24t-41 -43t-15.5 -65.5t15.5 -66t40.5 -43.5t57 -23.5t66 -7t65.5 7t56.5 23.5t40 43.5t15 66t-15.5 65.5t-40.5 43t-56.5 24t-64.5 7.5z" />
    <glyph glyph-name="uniE009" unicode="&#xe009;" 
d="M324 264q-48 0 -89 16t-71 45t-47 69.5t-17 90.5q0 53 18 95.5t49.5 72.5t75.5 46t96 16q138 0 208 -119q16 -27 26 -57.5t16 -62.5t9 -63.5t3 -59.5q1 -61 -9 -126t-41 -119q-35 -63 -91.5 -89.5t-127.5 -26.5q-35 0 -70 7.5t-64.5 24t-52.5 42.5t-34 62h75
q21 -40 61.5 -58.5t86.5 -18.5q126 0 174 116q18 43 24 92.5t6 95.5v8l-1 17v7q-8 -24 -24.5 -44.5t-36.5 -35.5q-32 -23 -72 -33.5t-80 -9.5zM167 493q0 -78 45.5 -123t123.5 -45q34 0 65 11.5t54.5 32t37.5 49.5t14 65q0 37 -12.5 68.5t-35 55t-53.5 36.5t-69 13
q-35 0 -66 -12t-54 -34t-36.5 -51.5t-13.5 -65.5z" />
    <glyph glyph-name="uniE010" unicode="&#xe010;" horiz-adv-x="251" 
d="M126 94q23 0 36.5 -14t13.5 -36t-13.5 -37t-36.5 -15t-37 15t-14 37t14 36t37 14z" />
    <glyph glyph-name="uniE011" unicode="&#xe011;" horiz-adv-x="252" 
d="M122 94q29 -1 41.5 -20.5t11.5 -46.5q1 -45 -23.5 -86.5t-67.5 -59.5l-16 26q22 14 36.5 35t19.5 50q-26 -2 -40 12.5t-14 39.5q0 22 14.5 36t37.5 14z" />
    <glyph glyph-name="uniE012" unicode="&#xe012;" horiz-adv-x="251" 
d="M126 459q23 0 36.5 -14.5t13.5 -36.5t-13.5 -37t-36.5 -15t-37 15t-14 37t14 36.5t37 14.5zM126 94q23 0 36.5 -14t13.5 -36t-13.5 -37t-36.5 -15t-37 15t-14 37t14 36t37 14z" />
    <glyph glyph-name="uniE013" unicode="&#xe013;" horiz-adv-x="252" 
d="M124 459q23 0 37 -14.5t14 -36.5t-13.5 -37t-37.5 -15q-23 0 -36.5 15t-13.5 37t13.5 36.5t36.5 14.5zM123 94q29 -1 41.5 -20.5t11.5 -46.5q1 -45 -23.5 -86.5t-67.5 -59.5l-16 26q22 14 36.5 35t19.5 50q-26 -2 -40 12.5t-14 39.5q0 22 14.5 36t37.5 14z" />
    <glyph glyph-name="uniE014" unicode="&#xe014;" horiz-adv-x="247" 
d="M146 486h-46l-9 221h65z" />
    <glyph glyph-name="uniE015" unicode="&#xe015;" horiz-adv-x="307" 
d="M106 486h-46l-10 221h65zM248 486h-46l-10 221h65z" />
    <glyph glyph-name="uniE016" unicode="&#xe016;" horiz-adv-x="252" 
d="M122 732q29 -1 42 -22.5t11 -44.5q1 -45 -23.5 -86.5t-67.5 -60.5l-16 26q22 15 36.5 36t19.5 50q-26 -2 -40 12.5t-14 38.5q0 22 14.5 36.5t37.5 14.5z" />
    <glyph glyph-name="uniE017" unicode="&#xe017;" horiz-adv-x="337" 
d="M76 732q29 -1 41.5 -21.5t11.5 -45.5q1 -45 -23.5 -86.5t-67.5 -60.5l-16 26q22 15 36.5 36t19.5 50q-26 -2 -40 12.5t-14 38.5q0 22 14.5 36.5t37.5 14.5zM260 732q29 -1 41.5 -21.5t11.5 -45.5q1 -45 -24 -86.5t-67 -60.5l-16 26q21 15 36 36t20 50q-26 -2 -40.5 12.5
t-14.5 38.5q0 22 15 36.5t38 14.5z" />
    <glyph glyph-name="uniE018" unicode="&#xe018;" horiz-adv-x="252" 
d="M124 527q-29 1 -41.5 21t-12.5 46q-1 22 5.5 44.5t18.5 42t29 35t38 24.5l16 -26q-21 -14 -35.5 -35t-19.5 -50q25 2 39.5 -12.5t14.5 -38.5q0 -22 -14.5 -37t-37.5 -14z" />
    <glyph glyph-name="uniE019" unicode="&#xe019;" horiz-adv-x="337" 
d="M260 527q-29 1 -41.5 21.5t-11.5 45.5q-1 22 5.5 44.5t18.5 42t29 35t38 24.5l16 -26q-22 -14 -36.5 -35t-19.5 -50q26 2 40 -12.5t14 -38.5q0 -22 -14.5 -37t-37.5 -14zM76 527q-29 1 -41 21.5t-12 45.5q-1 22 5.5 44.5t18.5 42t29 35t38 24.5l16 -26q-21 -14 -35.5 -35
t-19.5 -50q25 2 39.5 -12.5t14.5 -38.5q0 -22 -15 -37t-38 -14z" />
    <glyph glyph-name="uniE020" unicode="&#xe020;" horiz-adv-x="252" 
d="M122 94q26 0 40 -20.5t13 -44.5q1 -47 -23.5 -88.5t-67.5 -59.5l-16 26q22 14 36.5 35t19.5 50q-26 -2 -40 12.5t-14 39.5q0 22 15 36.5t37 13.5z" />
    <glyph glyph-name="uniE021" unicode="&#xe021;" horiz-adv-x="336" 
d="M76 94q26 0 40 -20.5t13 -44.5q1 -47 -23.5 -88.5t-67.5 -59.5l-16 26q22 14 36.5 35t19.5 50q-26 -2 -40 12.5t-14 39.5q0 22 15 36.5t37 13.5zM259 94q26 0 40 -20.5t13 -44.5q1 -47 -23.5 -88.5t-67.5 -59.5l-16 26q22 14 36.5 35t19.5 50q-26 -2 -40 12.5t-14 39.5
q0 22 15 36.5t37 13.5z" />
    <glyph glyph-name="uniE022" unicode="&#xe022;" horiz-adv-x="251" 
d="M126 577q23 0 36.5 -14.5t13.5 -36.5t-13.5 -37t-36.5 -15t-37 15t-14 37t14 36.5t37 14.5zM126 212q23 0 36.5 -14t13.5 -36t-13.5 -37t-36.5 -15t-37 15t-14 37t14 36t37 14z" />
    <glyph glyph-name="y2_alt" horiz-adv-x="548" 
d="M455 527h76l-176 -499q-8 -23 -20 -53t-26.5 -60t-31 -57t-33.5 -43q-32 -31 -68.5 -40.5t-87.5 -9.5v63q18 0 34 1t29 6q22 7 38.5 21.5t29.5 32.5t23 38.5t18 40.5l-238 559h79l197 -475z" />
    <glyph glyph-name="K_alt" horiz-adv-x="616" 
d="M92 0v707h65v-410l364 410h74l-285 -317l287 -390h-78l-255 345l-107 -118v-227h-65z" />
    <glyph glyph-name="k_alt" horiz-adv-x="523" 
d="M72 0v707h66v-471l275 291h75l-210 -219l226 -308h-76l-195 264l-95 -100v-164h-66z" />
    <glyph glyph-name="i_alt" horiz-adv-x="249" 
d="M135 717q22 0 36 -13t14 -35q0 -23 -14 -36t-36 -13t-35.5 13t-13.5 36t13.5 35.5t35.5 12.5zM106 0v472h-89v55h155v-527h-66z" />
    <glyph glyph-name="j_alt" horiz-adv-x="261" 
d="M147 717q22 0 36 -13t14 -35q0 -23 -14 -36t-36 -13t-35.5 13t-13.5 36t13.5 35.5t35.5 12.5zM184 -21q0 -86 -37 -126t-124 -40h-36v54q33 -1 57.5 3t41 16.5t24.5 37t8 65.5v483h-89v55h155v-548z" />
    <glyph glyph-name="s_alt" horiz-adv-x="544" 
d="M274 477q-23 0 -48.5 -4t-47 -13.5t-36 -26.5t-14.5 -44q0 -21 8.5 -36.5t22.5 -26t31 -17t35 -9.5q32 -6 75 -11.5t75 -13.5q54 -11 87 -42t33 -89q0 -42 -20 -72t-51.5 -47.5t-70.5 -24t-76 -6.5q-34 0 -71 7t-69.5 22.5t-56.5 40.5t-32 63h67q11 -23 29.5 -37.5
t41 -23t47 -12.5t47.5 -4t49 3t48.5 12.5t37.5 27.5t15 47q0 20 -7 34t-19 23t-28 14.5t-33 9.5q-15 3 -35 6.5t-41 6.5t-39.5 6t-34.5 7q-60 11 -95 45.5t-35 94.5q0 41 20 70t51 45.5t69 23.5t73 7q31 0 64 -6.5t61.5 -21.5t49 -39t26.5 -58h-61q-7 18 -22.5 31.5
t-36 21.5t-42.5 12t-41 4z" />
    <glyph glyph-name="c_alt" horiz-adv-x="549" 
d="M295 -6q-62 0 -108 20t-77 55.5t-46.5 85t-15.5 108.5q0 60 16.5 109.5t48.5 85.5t79 55.5t109 19.5q32 0 62 -6t56 -20.5t46 -38t32 -57.5h-68q-17 33 -51.5 49.5t-72.5 16.5q-49 0 -84.5 -16.5t-59.5 -45t-36 -68t-12 -84.5q0 -43 11 -81.5t34 -68t58 -46.5t83 -17
q38 0 74 12.5t57 46.5h71q-13 -30 -35 -51.5t-49 -36t-58.5 -21t-63.5 -6.5z" />
    <glyph glyph-name="w_alt" horiz-adv-x="765" 
d="M541 55l131 472h74l-155 -527h-96l-111 339l-109 -339h-97l-159 527h75l134 -472l111 347h89z" />
    <glyph glyph-name="W_alt" horiz-adv-x="902" 
d="M493 549l148 -489l168 647h74l-192 -707h-101l-139 455l-138 -455h-102l-192 707h75l168 -647l149 489h82z" />
    <glyph glyph-name="t_alt" horiz-adv-x="380" 
d="M189 527h147v-56h-147v-296q0 -27 5.5 -57t30.5 -46q13 -8 31 -11.5t35 -3.5h40v-57h-46q-34 0 -67.5 8t-58.5 33q-19 20 -27.5 53.5t-8.5 76.5v300h-89v56h88l14 151h53v-151z" />
    <glyph glyph-name="alt_1" horiz-adv-x="493" 
d="M308 60h161v-60h-417v60h191v525h-147v41q36 1 63.5 6t48 14.5t34.5 24t24 36.5h42v-647z" />
    <glyph glyph-name="colon.uc" horiz-adv-x="245" 
d="M123 577q23 0 36.5 -14.5t13.5 -36.5t-13.5 -37t-36.5 -15t-37 15t-14 37t14 36.5t37 14.5zM123 212q23 0 36.5 -14t13.5 -36t-13.5 -37t-36.5 -15t-37 15t-14 37t14 36t37 14z" />
    <glyph glyph-name="y_alt" horiz-adv-x="604" 
d="M532 527v-539q0 -116 -62 -174.5t-176 -58.5q-38 0 -73 8t-64 25t-50 43.5t-31 63.5h70q8 -23 25 -39t38.5 -26t45 -14.5t46.5 -4.5q61 0 95 23t49.5 61.5t18.5 89t3 105.5q-17 -30 -39.5 -48.5t-48 -29.5t-52.5 -15t-51 -4q-59 0 -98 18t-62.5 50t-33.5 76t-10 97v293
h66v-271q0 -39 4.5 -76t19.5 -66.5t44 -47t79 -17.5q51 0 85.5 19t56 50t30.5 70t9 79v260h66z" />
    <glyph glyph-name="u_alt" horiz-adv-x="593" 
d="M521 527v-527h-59l-5 74q-18 -24 -40 -40t-46.5 -25.5t-50.5 -13.5t-51 -4q-55 0 -94.5 18t-64 51t-34 76.5t-9.5 95.5v295h66v-272q0 -39 4 -76t19 -65.5t44 -46t80 -17.5q49 0 83.5 18t56.5 47t28.5 70.5t6.5 85.5v256h66z" />
    <glyph glyph-name="uni0431_alt" horiz-adv-x="574" 
d="M49 309q0 60 4 108t14 86t27.5 67t45.5 53q22 19 47.5 32.5t52.5 24t54 19t53 15.5q41 14 75.5 25.5t64.5 39.5l38 -49q-16 -26 -59.5 -41.5t-97.5 -32.5q-66 -20 -113 -36.5t-78 -44.5t-46.5 -71.5t-16.5 -115.5q16 27 39 45.5t49 30t54 16.5t54 5q53 0 93.5 -18.5
t67.5 -50.5t41 -75.5t14 -93.5q0 -55 -16 -101.5t-46.5 -80t-74.5 -52.5t-101 -19q-72 0 -118 25.5t-73 69t-37.5 100.5t-10.5 120zM289 49q43 0 75 16t53.5 43t32 62t10.5 74q0 37 -10.5 70.5t-31.5 59t-52 40.5t-71 15q-41 0 -74 -16t-55.5 -43t-34 -62t-11.5 -73
q0 -37 11.5 -71t33.5 -59.5t53 -40.5t71 -15z" />
    <glyph glyph-name="g_alt" horiz-adv-x="609" 
d="M475 527h62v-510q0 -62 -13 -110.5t-41.5 -82t-74 -51.5t-109.5 -18q-73 0 -122 20t-85 46l29 54q44 -34 90.5 -49t91.5 -15q51 0 83.5 15.5t51 43.5t26 65.5t7.5 82.5v68q-31 -48 -81.5 -70t-110.5 -22q-63 0 -107.5 23t-72 62t-40 90.5t-10.5 107.5q1 55 17.5 101.5
t46.5 80.5t74 54t104 20q54 0 102 -19t78 -64zM290 477q-47 0 -80 -17.5t-54 -47t-31 -67.5t-10 -80q0 -44 9.5 -83t30.5 -68t54.5 -46.5t82.5 -17.5q44 0 79.5 19.5t58.5 49.5t33 67.5t10 78.5q0 49 -15.5 97.5t-56.5 79.5q-47 35 -111 35z" />
    <glyph glyph-name="t2.alt" horiz-adv-x="393" 
d="M189 527h169v-56h-169v-297q0 -23 2.5 -45t11.5 -39.5t26.5 -28.5t47.5 -11q19 0 38.5 5.5t31.5 16.5l26 -47q-23 -18 -48.5 -24.5t-56.5 -6.5q-41 0 -69 12t-45 33.5t-24 53t-7 70.5v308h-89v56h89v151h66v-151z" />
    <glyph glyph-name="f_alt" horiz-adv-x="375" 
d="M123 0v472h-89v55h89v53q1 45 6.5 78.5t30.5 62.5q15 17 43 29.5t67 12.5q30 0 53.5 -5t44.5 -20l-24 -54q-25 23 -69 24q-29 -1 -46 -11.5t-26 -28t-11.5 -38.5t-2.5 -43v-60h166v-55h-166v-472h-66z" />
    <glyph glyph-name="hyphen.uc" horiz-adv-x="453" 
d="M79 367h295v-60h-295v60z" />
    <glyph glyph-name="uni00AD.uc" horiz-adv-x="453" 
d="M79 367h295v-60h-295v60z" />
    <glyph glyph-name="endash.uc" horiz-adv-x="576" 
d="M79 367h418v-60h-418v60z" />
    <glyph glyph-name="emdash.uc" horiz-adv-x="763" 
d="M79 367h605v-60h-605v60z" />
    <glyph glyph-name="a_alt" horiz-adv-x="563" 
d="M430 76q-38 -45 -88.5 -63.5t-108.5 -18.5q-36 0 -68.5 8.5t-57 26.5t-39 46t-14.5 67q0 42 22.5 74t54.5 48q31 16 61 23t59 11q68 9 176 12q0 36 -7.5 66.5t-24.5 53t-44.5 35t-67.5 12.5q-19 0 -38.5 -3t-37 -10t-32 -19.5t-23.5 -30.5h-72q9 33 30 55.5t49 36.5
t61 20.5t65 6.5q58 0 98 -19t64.5 -52.5t35 -78.5t10.5 -97v-286h-54zM122 138q0 -25 11 -42t28 -27.5t37.5 -15t41.5 -4.5q37 0 71.5 9.5t60.5 30t41.5 51t15.5 72.5v43q-28 -1 -60 -2.5t-64.5 -4.5t-63.5 -8.5t-55 -14.5q-30 -11 -47.5 -34t-16.5 -53z" />
    <glyph glyph-name="t0163.alt" horiz-adv-x="391" 
d="M189 527h169v-56h-169v-297q0 -23 2.5 -45t11.5 -39.5t26.5 -28.5t47.5 -11q19 0 38.5 5.5t31.5 16.5l26 -47q-23 -18 -48.5 -24.5t-56.5 -6.5q-16 0 -29 2l-16 -69q45 9 77 -9.5t32 -67.5q0 -34 -15.5 -56t-39.5 -34.5t-53 -15.5t-57 1v40q17 -2 37 -0.5t37 7.5
t28.5 18.5t11.5 35.5t-15 33.5t-36 10.5q-16 0 -32 -2t-28 -5l28 123q-28 12 -44 33q-17 22 -24 53.5t-7 70.5v308h-89v56h89v151h66v-151z" />
    <glyph glyph-name="t021b.alt" horiz-adv-x="391" 
d="M189 527h169v-56h-169v-297q0 -23 2.5 -45t11.5 -39.5t26.5 -28.5t47.5 -11q19 0 38.5 5.5t31.5 16.5l26 -47q-23 -18 -48.5 -24.5t-56.5 -6.5q-41 0 -69 12t-45 33.5t-24 53t-7 70.5v308h-89v56h89v151h66v-151zM228 -91q28 0 41.5 -21.5t12.5 -45.5q1 -45 -24 -86.5
t-68 -59.5l-16 26q22 14 36.5 35t19.5 50q-26 -2 -40 12.5t-14 38.5q0 22 14.5 37t37.5 14z" />
    <glyph glyph-name="map" horiz-adv-x="685" 
d="M49 668l16 16q2 2 4 2h39q3 0 4 1l19 19q2 2 4 2h96q2 0 4 -2l46 -46q1 -1 3 -1h33q5 0 5 -5v-25q0 -5 6 -5h6q3 0 4 1l16 17q1 1 4 1h32q5 0 5 -5v-26q0 -2 2 -4l20 -20q3 -4 7 0l10 10q1 1 4 1h6q6 0 6 -5v-79q0 -2 -2 -4l-6 -6q-4 -4 0 -8l59 -59q1 -1 3 -1h12
q5 0 5 -5v-71q0 -2 2 -4l22 -22q2 -2 4 -2h12q3 0 4 -1l16 -17q2 -2 2 -4v-37q0 -2 -2 -4l-6 -5q-4 -4 0 -8l21 -20q1 -1 1 -4q0 -5 -5 -5h-33q-2 0 -3 1l-9 9q-4 3 -7 0l-11 -11q-5 -3 -8 0l-15 15q-3 3 -8 0l-27 -27q-2 -2 -3 -2h-9q-5 0 -5 6v34q0 4 -3.5 5t-5.5 -1
l-22 -22q-1 -1 -1 -3v-27q0 -3 1 -4l10 -10q3 -4 0 -7l-20 -20q-1 -1 -1 -4v-25q0 -2 -2 -4l-22 -22q-1 -1 -1 -3v-12q0 -2 -2 -4l-12 -12q-2 -2 -3 -2h-9q-2 0 -3 -1l-10 -10q-2 -2 -2 -4v-38q0 -6 -5 -6h-20q-3 0 -4 -1l-14 -15q-1 0 -1.5 -0.5t-2.5 -0.5h-3q-5 0 -5 5v23
q0 2 -2 4l-9 9q-4 3 0 7l12 12q6 4 0 8l-12 12q-1 1 -1 4v85q0 3 1 4l14 13q1 1 1 4v119q0 3 -1 4l-13 12q-1 1 -1 4v23q0 3 -2 3l-46 47q-2 2 -2 4v21q0 3 -1 4l-46 46q-2 2 -2 3v26q0 3 -1 4l-31 30q-1 1 -1 4v29q0 2 -2 4l-21 21q-2 2 -2 4v26q0 3 -1 4l-23 23q-2 2 -4 2
h-42q-5 0 -5 5v2q0 3 1 4z" />
    <glyph glyph-name="logo" horiz-adv-x="2942" 
d="M799 505q-4 -9 -14 -12q0 -8 -6 -13.5t-14 -5.5q-3 -15 -19 -15q-7 0 -14 5l-12 13q-6 6 -6 14v26l-25 20h-118l-26 -26v-36h144q9 0 14 -5l25 -26q6 -6 6 -14t-5.5 -13.5t-13.5 -5.5h-38q-8 0 -14 6l-20 19h-109l-94 -94q-2 0 -6 -3.5t-9 -3.5q-6 0 -10 3.5t-6 3.5
l-93 94h-110l-20 -19q-5 -6 -14 -6h-37q-8 0 -14.5 5.5t-6.5 13.5q0 7 7 14l25 26q7 5 14 5h144v36l-26 26h-118l-25 -20v-26q0 -8 -6 -14l-12 -13q-7 -5 -14 -5q-17 0 -19 15q-8 0 -13.5 5.5t-5.5 13.5q-7 2 -12 6.5t-5 12.5q0 7 7 14l12 13q6 6 14 6h27l2 2l31 25
q5 4 12 4h39q5 13 18 13q8 0 14 -6l7 -7h55q7 0 14 -5l4 -5v20l-26 27h-135l-20 -20q-7 -5 -14 -5h-12q-7 0 -14 5l-13 13q-5 7 -5 14q0 8 4 12q-4 5 -4 13q0 7 5 14l13 12q6 6 14 6h12q8 0 14 -6l20 -19h35v28q-12 0 -18.5 15t-6.5 26v37q0 8 5.5 14t13.5 6h51q8 0 13.5 -6
t5.5 -14v-37q0 -11 -6.5 -26t-18.5 -15v-28h25q-1 2 -1 5q0 8 5.5 14t14.5 6q8 0 14 -6l36 -36q5 4 13 4t13.5 -5.5t5.5 -13.5v-156l62 -62v71l-32 32q-6 6 -6 14t6 13.5t14 5.5q7 0 14 -5l4 -5v84l-95 95q-6 4 -6 14v18h-6q-8 0 -13.5 5.5t-5.5 13.5t5.5 14t13.5 6h6v6
q0 8 6 13.5t14 5.5t13.5 -5.5t5.5 -13.5v-6h6q8 0 13.5 -6t5.5 -14t-5.5 -13.5t-13.5 -5.5h-6v-10l62 -62v120q-2 2 -2 3l-55 55q-6 6 -6 14t6 14l12 13q2 2 3.5 2.5t3.5 1.5v20q0 8 6 14l13 12q4 6 13 6q6 0 11 -3q6 6 15 6q8 0 14 -6q4 3 11 3q8 0 14 -6l12 -12
q6 -6 6 -14v-20q4 -2 7 -4l12 -13q6 -6 6 -14t-6 -14l-55 -55q0 -1 -2 -3v-120l62 62v10h-6q-8 0 -13.5 5.5t-5.5 13.5t5.5 14t13.5 6h6v6q0 8 5.5 13.5t13.5 5.5t14 -5.5t6 -13.5v-6h6q8 0 13.5 -6t5.5 -14t-5.5 -13.5t-13.5 -5.5h-6v-18q0 -10 -6 -14l-95 -95v-84l5 5
q5 5 13 5q11 0 15.5 -6t4.5 -13q0 -8 -6 -14l-32 -32v-71l62 62v156q0 8 5.5 13.5t13.5 5.5t13 -4l37 36q4 6 14 6q8 0 13.5 -6t5.5 -14q0 -1 -0.5 -2t-0.5 -3h25v28q-12 0 -18.5 15t-6.5 26v37q0 8 5.5 14t13.5 6h51q8 0 13.5 -6t5.5 -14v-37q0 -11 -6.5 -26t-18.5 -15v-28
h36l19 19q6 6 14 6h12q8 0 14 -6l13 -12q6 -6 6 -14q0 -6 -5 -13q5 -5 5 -12q0 -8 -6 -14l-13 -13q-7 -5 -14 -5h-12q-7 0 -14 5l-19 20h-136l-26 -27v-20l4 5q7 5 14 5h55l7 7q6 6 14 6q13 0 18 -13h39q7 0 12 -4l31 -25q1 -1 1.5 -1t1.5 -1h26q8 0 14 -6l12 -13
q6 -6 6 -14q0 -5 -1 -7zM903 381q43 0 79.5 -13.5t63 -38.5t41.5 -60.5t15 -80.5q0 -43 -15 -78.5t-41.5 -61t-63 -40t-79.5 -14.5t-79.5 13.5t-63 38.5t-41.5 61t-15 81q0 40 14.5 75.5t40.5 61.5t62.5 41t81.5 15zM2002 381q43 0 79.5 -13.5t63 -38.5t41.5 -60.5t15 -80.5
q0 -43 -15 -78.5t-41.5 -61t-63 -40t-79.5 -14.5t-79.5 13.5t-63 38.5t-41.5 61t-15 81q0 40 14.5 75.5t40.5 61.5t62.5 41t81.5 15zM1432 366q0 9 9 9h22.5t31 0.5t31.5 0.5h24q56 0 96 -15t65.5 -40.5t37 -59t11.5 -70.5q0 -39 -13.5 -74t-40.5 -61.5t-67 -41.5t-93 -15
q-15 0 -46.5 0.5t-58.5 0.5q-9 0 -9 9v357zM276 13q0 -13 -12 -13h-61q-12 0 -12 13v349q0 13 12 13h61q12 0 21 -9l132 -132q2 -2 6 -2q5 0 7 2l132 132q9 9 21 9h61q12 0 12 -13v-349q0 -13 -12 -13h-61q-13 0 -13 13v219q0 3 -4 3q-1 0 -2 -1l-118 -118q-11 -9 -22 -9h-1
q-11 0 -22 9l-118 118q-1 1 -3 1q-4 0 -4 -3v-219zM1146 366q0 9 9 9h67q9 0 9 -9v-281q0 -4 5 -4h139q9 0 9 -9v-63q0 -9 -9 -9h-220q-9 0 -9 9v357zM2419 9q-4 -9 -13 -9h-49q-8 0 -12 9l-146 357q-1 1 -1 3q0 6 6 6h76q8 0 12 -9l91 -234q0 -2 2 -2q1 1 1 2l87 234
q4 9 13 9h70q6 0 6 -6q0 -1 -0.5 -1.5t-0.5 -1.5zM2632 367q4 8 12 8h56q8 0 12 -8l141 -358q0 -1 0.5 -1.5t0.5 -1.5q0 -6 -6 -6h-70q-9 0 -11 9l-25 66q-2 4 -6 4h-133q-4 0 -6 -4l-24 -66q-4 -9 -12 -9h-65q-6 0 -6 6q0 2 1 3zM903 74q53 0 80.5 33.5t27.5 80.5
q0 51 -31.5 82t-76.5 31q-47 0 -77.5 -31t-30.5 -82q0 -24 8.5 -45t23 -36.5t34 -24t42.5 -8.5zM2002 74q53 0 80.5 33.5t27.5 80.5q0 51 -31.5 82t-76.5 31q-47 0 -77.5 -31t-30.5 -82q0 -24 8.5 -45t23 -36.5t34 -24t42.5 -8.5zM1522 295q-5 0 -5 -5v-205q0 -6 11.5 -5.5
t19.5 0.5q56 0 88.5 28.5t32.5 82.5q0 52 -34 78.5t-86 26.5h-13t-14 -1zM2631 163v-1q0 -3 3 -3h71q3 0 3 3v1l-37 98l-1 1l-2 -1z" />
    <glyph glyph-name="a00E2.alt" horiz-adv-x="563" 
d="M288 734l-78 -97h-65l123 146h41l123 -146h-62zM430 76q-39 -46 -89 -64t-108 -18q-36 0 -68.5 8.5t-57 26.5t-39 46t-14.5 67q0 42 22.5 74t54.5 48q31 16 62 23t60 11q66 9 174 12q0 36 -7.5 66.5t-24.5 53t-44.5 35t-67.5 12.5q-19 0 -38.5 -3t-37 -10t-32 -19.5
t-23.5 -30.5h-72q9 33 30 55.5t49 36.5t61 20.5t65 6.5q58 0 98 -19t64.5 -52.5t35 -78.5t10.5 -97v-286h-54zM122 138q0 -25 11 -42t28 -27.5t37.5 -15t41.5 -4.5q37 0 71.5 9.5t60.5 30t41.5 51t15.5 72.5v43q-28 -1 -60 -2.5t-64.5 -4.5t-63.5 -8.5t-55 -14.5
q-30 -11 -47.5 -34t-16.5 -53z" />
    <glyph glyph-name="a0103.alt" horiz-adv-x="563" 
d="M291 666q17 0 35 3t33 10.5t25.5 21.5t13.5 37h61q-3 -35 -18.5 -58.5t-39 -38t-52.5 -20.5t-60 -6t-60 6t-51.5 20.5t-37 38t-17.5 58.5h61q3 -23 13.5 -37t25.5 -21.5t33 -10.5t35 -3zM430 76q-39 -46 -89 -64t-108 -18q-36 0 -68.5 8.5t-57 26.5t-39 46t-14.5 67
q0 42 22.5 74t54.5 48q31 16 62 23t60 11q66 9 174 12q0 36 -7.5 66.5t-24.5 53t-44.5 35t-67.5 12.5q-19 0 -38.5 -3t-37 -10t-32 -19.5t-23.5 -30.5h-72q9 33 30 55.5t49 36.5t61 20.5t65 6.5q58 0 98 -19t64.5 -52.5t35 -78.5t10.5 -97v-286h-54zM122 138q0 -25 11 -42
t28 -27.5t37.5 -15t41.5 -4.5q37 0 71.5 9.5t60.5 30t41.5 51t15.5 72.5v43q-28 -1 -60 -2.5t-64.5 -4.5t-63.5 -8.5t-55 -14.5q-30 -11 -47.5 -34t-16.5 -53z" />
    <glyph glyph-name="a00E4.alt" horiz-adv-x="563" 
d="M180 719q20 0 35 -13.5t15 -34.5t-15 -34.5t-35 -13.5t-34.5 14t-14.5 34t14.5 34t34.5 14zM401 719q20 0 35 -13.5t15 -34.5t-15 -34.5t-35 -13.5t-34 14t-14 34t14 34t34 14zM430 76q-39 -46 -89 -64t-108 -18q-36 0 -68.5 8.5t-57 26.5t-39 46t-14.5 67q0 42 22.5 74
t54.5 48q31 16 62 23t60 11q66 9 174 12q0 36 -7.5 66.5t-24.5 53t-44.5 35t-67.5 12.5q-20 0 -39 -3t-36.5 -10t-32.5 -19.5t-24 -30.5h-71q9 33 30 55.5t49 36.5t61 20.5t65 6.5q58 0 98 -19t64.5 -52.5t35 -78.5t10.5 -97v-286h-54zM122 138q0 -25 11 -42t28 -27.5
t37.5 -15t41.5 -4.5q37 0 71.5 9.5t60.5 30t41.5 51t15.5 72.5v43q-28 -1 -60 -2.5t-64.5 -4.5t-63.5 -8.5t-55 -14.5q-30 -11 -47.5 -34t-16.5 -53z" />
    <glyph glyph-name="uni2702_alt" horiz-adv-x="613" 
d="M475 527h66v-527h-66v82q-11 -17 -23.5 -28t-26.5 -21q-30 -21 -66.5 -30t-76.5 -9q-62 0 -106.5 23t-72 62t-40 90.5t-10.5 107.5q1 55 17.5 101.5t46.5 81t74 54t101 19.5q32 0 60.5 -5.5t54.5 -19.5q19 -10 36.5 -24t31.5 -35v78zM295 477q-47 0 -80 -17.5t-54.5 -47
t-31.5 -67.5t-10 -80q0 -44 9.5 -83t30.5 -68t54.5 -46.5t82.5 -17.5q44 0 79.5 19t58.5 49t33 66.5t10 80.5q0 49 -15.5 97.5t-56.5 79.5q-47 35 -110 35z" />
    <glyph glyph-name="logom" horiz-adv-x="847" 
d="M800 508q-5 -9 -15 -12q0 -8 -5.5 -13.5t-13.5 -5.5q-2 -11 -13.5 -14.5t-19.5 4.5l-12 12t-5.5 8.5t-1.5 11.5v21l-25 20h-118l-27 -26v-36h146q8 0 14 -6l25 -25q9 -9 4 -21.5t-18 -12.5q-20 0 -29.5 -0.5t-15 1.5t-10.5 7.5t-17 17.5h-110l-95 -95q-7 -8 -15.5 -8
t-14.5 8l-95 95h-110l-20 -20q-6 -6 -14 -6h-38q-13 0 -18 12t4 22l25 25q6 6 14 6h146v36l-27 26h-118l-25 -20v-21t-1.5 -11.5t-5.5 -8.5l-12 -12t-19.5 -5t-13.5 15q-8 0 -13.5 5.5t-5.5 13.5q-12 2 -15 13.5t5 19.5l12 12t8.5 5.5t11.5 1.5h21l34 27q5 5 12 5h39
q4 10 14 12t18 -5l7 -7h55q7 0 10.5 -3t8.5 -8v21l-27 26h-136q-10 -10 -14.5 -15t-8.5 -7.5t-8.5 -2.5h-14.5q-8 0 -14 5.5t-13 12.5q-11 13 -1 27q-5 6 -5 12t3 10.5t8 9t8 7.5q5 6 12 6h15t14 -6l19 -19h36v28q-12 5 -19 16t-7 25v38q0 8 6 14t14 6h51q8 0 14 -6t6 -14
v-38q0 -14 -7 -25t-19 -16v-28h25q-2 7 1 13.5t8 9.5t12 2.5t12 -6.5l37 -36q1 1 3 2q4 2 9 2q8 0 14 -6t6 -14v-156l62 -63v72l-32 32q-7 7 -6 14.5t6 13t13 6.5t15 -6l4 -5v84l-95 96q-6 6 -6 14v18h-6q-10 0 -15 6t-5 13.5t5 14t15 6.5h6v5q0 10 6 14.5t13.5 4.5
t13.5 -4.5t6 -14.5v-5h6q10 0 14.5 -6.5t4.5 -14t-4.5 -13.5t-14.5 -6h-6v-10l62 -62v121q0 1 -8 9.5t-18 18.5l-31 31q-6 5 -6 13.5t6 14.5q4 4 9 9.5t10 7.5v17.5t1.5 9t5.5 7.5l12 12q10 12 24 3q8 7 17 6t13 -6q6 4 11 3t9.5 -4t8.5 -7l8 -8q6 -6 6 -14.5v-18.5
q5 -2 10 -7.5t9 -9.5q6 -6 6 -14.5t-6 -13.5l-31 -31q-10 -10 -18 -18.5t-8 -9.5v-121l62 62v10h-6q-10 0 -15 6t-5 13.5t5 14t15 6.5h6v5q0 10 6 14.5t13.5 4.5t13.5 -4.5t6 -14.5v-5h6q10 0 14.5 -6.5t4.5 -14t-4.5 -13.5t-14.5 -6h-6v-18t-5 -14l-96 -96v-84q4 5 7.5 8
t10.5 3q14 0 18.5 -12.5t-4.5 -21.5l-32 -32v-72l62 63v156q0 13 11 18.5t21 -2.5l37 36q5 6 12 6.5t12 -2.5t8 -9.5t1 -13.5h25v28q-12 5 -19 16t-7 25v38q0 8 6 14t14 6h51q8 0 14 -6t6 -14v-38q0 -14 -7 -25t-19 -16v-28h36q10 10 14.5 15t8.5 7t8.5 2.5t14.5 0.5
q8 0 14 -5.5t13 -12.5q11 -13 1 -27q10 -12 1.5 -22t-15.5 -17q-5 -5 -12 -5.5t-15 -0.5t-14 6l-19 19h-136l-27 -26v-21q5 5 8.5 8t10.5 3h55q5 5 9 8.5t12 3.5q13 0 18 -12h39q7 0 12 -5l34 -27h22t11 -1.5t8 -5.5l12 -12q10 -9 5 -21zM274 13q0 -13 -13 -13h-61
q-13 0 -13 13v351q0 13 13 13h61q11 0 22 -9l132 -133q7 -6 13 0l133 133q11 9 22 9h61q12 0 12 -13v-351q0 -13 -12 -13h-61q-13 0 -13 13v220q0 2 -2.5 3.5t-4.5 -0.5l-119 -120q-9 -8 -22 -8t-22 8l-120 120q-2 2 -4 0.5t-2 -3.5v-220z" />
    <glyph glyph-name="I_alt" horiz-adv-x="581" 
d="M536 647h-214v-587h214v-60h-491v60h212v587h-212v60h491v-60z" />
    <glyph glyph-name="tab_1" 
d="M370 60h184v-60h-440v60h191v525h-163v42q28 0 64.5 3.5t62.5 15.5q22 11 35.5 25.5t23.5 35.5h42v-647z" />
    <glyph glyph-name="l_alt" horiz-adv-x="301" 
d="M138 175q0 -14 1 -29t4.5 -28.5t10.5 -25.5t20 -20q14 -9 33 -12t35 -3h25v-57h-33q-35 0 -68 7.5t-58 33.5q-23 24 -29.5 61t-6.5 69v536h66v-532z" />
    <glyph glyph-name="l2_alt" horiz-adv-x="342" 
d="M138 174q0 -21 2 -43.5t12 -41.5q11 -22 32 -30.5t44 -8.5q19 0 36.5 5t31.5 18l26 -48q-24 -19 -49 -25t-54 -6q-32 0 -63 9.5t-52 35.5q-20 26 -26 59.5t-6 64.5v544h66v-533z" />
    </font>
</defs>
</svg>
