<svg width="167" height="39" viewBox="0 0 167 39" fill="none" xmlns="http://www.w3.org/2000/svg">
<path d="M66.2266 30.3478V3.10545H73.8321V23.8595H83.8869V30.3478H66.2266Z" fill="#2A2A2A"/>
<path d="M85.5197 30.3478V3.10545H102.793H110.055L116.071 16.4259L122.172 3.10545H129.434L116.071 31.594L102.793 3.10545V9.55084H92.6096V13.3321H101.032V19.6486H92.6096V23.8595H102.793V30.3478H85.5197Z" fill="#2A2A2A"/>
<path d="M129.993 30.2619V3.10545H137.169V30.2619H129.993Z" fill="#2A2A2A"/>
<path d="M149.157 30.2619H142.153V1L159.298 16.8986V3.10545H166.001V32.4963L149.157 16.8986V30.2619Z" fill="#2A2A2A"/>
<path fill-rule="evenodd" clip-rule="evenodd" d="M29.1719 16.7319C29.1719 24.627 22.8654 31.0273 15.0859 31.0273C7.30649 31.0273 1 24.627 1 16.7319C1 8.83679 7.30649 2.43652 15.0859 2.43652C22.8654 2.43652 29.1719 8.83679 29.1719 16.7319ZM21.5688 16.7319C21.5688 20.8715 18.6664 24.2272 15.086 24.2272C11.5056 24.2272 8.60311 20.8715 8.60311 16.7319C8.60311 12.5923 11.5056 9.23655 15.086 9.23655C18.6664 9.23655 21.5688 12.5923 21.5688 16.7319ZM39.2417 3.11894V13.3288L47.1677 3.11894H55.9893L45.466 16.2395L56.6162 30.3451H47.6603L39.2417 19.5084V30.3451H31.853V3.11894H39.2417ZM63.6929 27.1761C63.6929 29.1896 62.0606 30.8218 60.0471 30.8218C58.0336 30.8218 56.4014 29.1896 56.4014 27.1761C56.4014 25.1626 58.0336 23.5303 60.0471 23.5303C62.0606 23.5303 63.6929 25.1626 63.6929 27.1761ZM166 33.9174H103.914V38.4248H166V33.9174Z" fill="#FF2615"/>
</svg>
