<svg width="571" height="487" viewBox="0 0 571 487" fill="none" xmlns="http://www.w3.org/2000/svg">
<g filter="url(#filter0_b_1401_75818)">
<rect x="65" y="447.447" width="559" height="46" transform="rotate(-30.4682 65 447.447)" fill="#2A2A2A"/>
</g>
<rect x="332" y="200" width="163" height="34" fill="#2A2A2A"/>
<rect x="175" y="292" width="163" height="34" fill="#2A2A2A"/>
<rect x="20" y="379" width="163" height="34" fill="#2A2A2A"/>
<g clip-path="url(#clip0_1401_75818)">
<circle cx="372" cy="100" r="100" fill="#FF2615"/>
<path d="M310.148 102.152L312.938 77.1045H339.598V84.9165H320.192L318.952 93.9685C320.357 93.2658 321.68 92.7698 322.92 92.4805C324.201 92.1498 325.668 92.0052 327.322 92.0465C329.471 92.0878 331.414 92.4392 333.15 93.1005C334.927 93.7618 336.436 94.7125 337.676 95.9525C338.916 97.1925 339.866 98.6805 340.528 100.416C341.189 102.111 341.52 104.033 341.52 106.182C341.52 108.58 341.106 110.729 340.28 112.63C339.453 114.532 338.316 116.144 336.87 117.466C335.34 118.789 333.604 119.781 331.662 120.442C329.76 121.104 327.57 121.434 325.09 121.434C320.584 121.434 316.988 120.401 314.302 118.334C311.615 116.268 310.024 112.899 309.528 108.228H318.394C318.766 110.006 319.551 111.287 320.75 112.072C321.99 112.858 323.374 113.292 324.904 113.374C327.094 113.457 328.892 112.94 330.298 111.824C331.703 110.708 332.426 108.952 332.468 106.554C332.509 104.198 331.827 102.421 330.422 101.222C329.016 100.024 327.239 99.4658 325.09 99.5485C323.808 99.5898 322.61 99.8378 321.494 100.292C320.419 100.747 319.468 101.367 318.642 102.152H310.148ZM364.174 76.5465C366.696 76.5465 369.01 76.9805 371.118 77.8485C373.268 78.7165 375.086 80.0805 376.574 81.9405C378.104 83.7592 379.282 86.0738 380.108 88.8845C380.976 91.6952 381.41 95.0432 381.41 98.9285C381.41 102.855 380.997 106.224 380.17 109.034C379.344 111.845 378.186 114.16 376.698 115.978C375.21 117.797 373.392 119.14 371.242 120.008C369.134 120.876 366.778 121.31 364.174 121.31C361.57 121.31 359.194 120.876 357.044 120.008C354.936 119.14 353.118 117.797 351.588 115.978C350.1 114.16 348.943 111.845 348.116 109.034C347.331 106.224 346.938 102.855 346.938 98.9285C346.938 95.0432 347.352 91.6952 348.178 88.8845C349.005 86.0738 350.183 83.7592 351.712 81.9405C353.242 80.0805 355.06 78.7165 357.168 77.8485C359.276 76.9805 361.612 76.5465 364.174 76.5465ZM364.174 113.374C366.82 113.374 368.886 112.258 370.374 110.026C371.862 107.794 372.606 104.095 372.606 98.9285C372.606 93.8032 371.862 90.1245 370.374 87.8925C368.886 85.6192 366.82 84.4825 364.174 84.4825C361.488 84.4825 359.4 85.6192 357.912 87.8925C356.466 90.1245 355.742 93.8032 355.742 98.9285C355.742 104.095 356.466 107.794 357.912 110.026C359.4 112.258 361.488 113.374 364.174 113.374ZM397.687 97.6265C395.951 97.6265 394.422 97.3578 393.099 96.8205C391.777 96.2418 390.661 95.4772 389.751 94.5265C388.842 93.5345 388.16 92.3978 387.705 91.1165C387.251 89.7938 387.023 88.3885 387.023 86.9005C387.023 85.3298 387.251 83.9038 387.705 82.6225C388.201 81.2998 388.883 80.1632 389.751 79.2125C390.661 78.2618 391.777 77.5178 393.099 76.9805C394.422 76.4432 395.951 76.1745 397.687 76.1745C399.382 76.1745 400.891 76.4432 402.213 76.9805C403.536 77.5178 404.631 78.2618 405.499 79.2125C406.409 80.1632 407.091 81.2998 407.545 82.6225C408 83.9452 408.227 85.3712 408.227 86.9005C408.227 88.3885 408 89.7938 407.545 91.1165C407.091 92.3978 406.409 93.5345 405.499 94.5265C404.631 95.4772 403.536 96.2418 402.213 96.8205C400.891 97.3578 399.382 97.6265 397.687 97.6265ZM392.231 121L420.379 77.1045H428.997L400.911 121H392.231ZM397.687 82.5605C396.241 82.5605 395.228 82.9945 394.649 83.8625C394.112 84.7305 393.843 85.7432 393.843 86.9005C393.843 88.0992 394.112 89.1325 394.649 90.0005C395.228 90.8272 396.241 91.2405 397.687 91.2405C399.093 91.2405 400.043 90.8065 400.539 89.9385C401.077 89.0705 401.345 88.0578 401.345 86.9005C401.345 85.7432 401.077 84.7305 400.539 83.8625C400.043 82.9945 399.093 82.5605 397.687 82.5605ZM423.975 121.93C422.239 121.93 420.71 121.641 419.387 121.062C418.106 120.525 417.011 119.781 416.101 118.83C415.192 117.838 414.51 116.702 414.055 115.42C413.601 114.098 413.373 112.692 413.373 111.204C413.373 109.634 413.601 108.187 414.055 106.864C414.51 105.542 415.192 104.405 416.101 103.454C417.011 102.504 418.127 101.76 419.449 101.222C420.772 100.685 422.281 100.416 423.975 100.416C425.711 100.416 427.241 100.685 428.563 101.222C429.886 101.76 430.981 102.504 431.849 103.454C432.759 104.405 433.441 105.542 433.895 106.864C434.391 108.187 434.639 109.634 434.639 111.204C434.639 112.692 434.391 114.098 433.895 115.42C433.441 116.702 432.759 117.838 431.849 118.83C430.981 119.781 429.886 120.525 428.563 121.062C427.241 121.641 425.711 121.93 423.975 121.93ZM423.975 106.802C422.653 106.802 421.681 107.236 421.061 108.104C420.483 108.972 420.193 110.006 420.193 111.204C420.193 112.403 420.462 113.436 420.999 114.304C421.578 115.131 422.57 115.544 423.975 115.544C425.422 115.544 426.393 115.11 426.889 114.242C427.427 113.374 427.695 112.362 427.695 111.204C427.695 110.006 427.427 108.972 426.889 108.104C426.393 107.236 425.422 106.802 423.975 106.802Z" fill="white"/>
</g>
<g clip-path="url(#clip1_1401_75818)">
<circle cx="205" cy="212" r="80" fill="#FF2615"/>
<path d="M152.212 202.584C152.385 200.712 152.819 199.118 153.512 197.8C154.205 196.483 155.124 195.356 156.268 194.42C157.447 193.484 158.799 192.808 160.324 192.392C161.884 191.942 163.635 191.716 165.576 191.716C167.136 191.716 168.609 191.89 169.996 192.236C171.417 192.548 172.7 193.086 173.844 193.848C175.023 194.611 175.959 195.616 176.652 196.864C177.38 198.112 177.744 199.638 177.744 201.44C177.744 202.966 177.363 204.422 176.6 205.808C175.837 207.195 174.728 208.287 173.272 209.084C175.387 209.778 176.912 210.939 177.848 212.568C178.784 214.198 179.217 216.104 179.148 218.288C179.079 220.299 178.645 221.998 177.848 223.384C177.051 224.771 176.028 225.915 174.78 226.816C173.532 227.683 172.093 228.324 170.464 228.74C168.835 229.156 167.136 229.364 165.368 229.364C161.451 229.364 158.244 228.48 155.748 226.712C153.252 224.944 151.727 222.136 151.172 218.288H158.608C158.851 219.155 159.197 219.866 159.648 220.42C160.133 220.975 160.671 221.426 161.26 221.772C161.884 222.084 162.543 222.31 163.236 222.448C163.929 222.552 164.64 222.604 165.368 222.604C166.2 222.604 166.997 222.518 167.76 222.344C168.523 222.171 169.199 221.894 169.788 221.512C170.377 221.131 170.845 220.628 171.192 220.004C171.539 219.346 171.712 218.548 171.712 217.612C171.712 216.919 171.556 216.278 171.244 215.688C170.967 215.099 170.585 214.666 170.1 214.388C169.476 213.972 168.783 213.712 168.02 213.608C167.292 213.47 166.529 213.4 165.732 213.4H162.04V207.264H164.536C165.437 207.264 166.252 207.16 166.98 206.952C167.708 206.71 168.367 206.346 168.956 205.86C169.372 205.479 169.719 205.046 169.996 204.56C170.273 204.04 170.412 203.434 170.412 202.74C170.412 201.908 170.273 201.215 169.996 200.66C169.719 200.071 169.337 199.62 168.852 199.308C168.367 198.962 167.795 198.719 167.136 198.58C166.477 198.442 165.784 198.372 165.056 198.372C163.739 198.372 162.577 198.719 161.572 199.412C160.567 200.071 159.908 201.128 159.596 202.584H152.212ZM198.36 191.716C200.475 191.716 202.416 192.08 204.184 192.808C205.987 193.536 207.512 194.68 208.76 196.24C210.043 197.766 211.031 199.707 211.724 202.064C212.452 204.422 212.816 207.23 212.816 210.488C212.816 213.782 212.47 216.607 211.776 218.964C211.083 221.322 210.112 223.263 208.864 224.788C207.616 226.314 206.091 227.44 204.288 228.168C202.52 228.896 200.544 229.26 198.36 229.26C196.176 229.26 194.183 228.896 192.38 228.168C190.612 227.44 189.087 226.314 187.804 224.788C186.556 223.263 185.586 221.322 184.892 218.964C184.234 216.607 183.904 213.782 183.904 210.488C183.904 207.23 184.251 204.422 184.944 202.064C185.638 199.707 186.626 197.766 187.908 196.24C189.191 194.68 190.716 193.536 192.484 192.808C194.252 192.08 196.211 191.716 198.36 191.716ZM198.36 222.604C200.579 222.604 202.312 221.668 203.56 219.796C204.808 217.924 205.432 214.822 205.432 210.488C205.432 206.19 204.808 203.104 203.56 201.232C202.312 199.326 200.579 198.372 198.36 198.372C196.107 198.372 194.356 199.326 193.108 201.232C191.895 203.104 191.288 206.19 191.288 210.488C191.288 214.822 191.895 217.924 193.108 219.796C194.356 221.668 196.107 222.604 198.36 222.604ZM226.468 209.396C225.012 209.396 223.729 209.171 222.62 208.72C221.511 208.235 220.575 207.594 219.812 206.796C219.049 205.964 218.477 205.011 218.096 203.936C217.715 202.827 217.524 201.648 217.524 200.4C217.524 199.083 217.715 197.887 218.096 196.812C218.512 195.703 219.084 194.75 219.812 193.952C220.575 193.155 221.511 192.531 222.62 192.08C223.729 191.63 225.012 191.404 226.468 191.404C227.889 191.404 229.155 191.63 230.264 192.08C231.373 192.531 232.292 193.155 233.02 193.952C233.783 194.75 234.355 195.703 234.736 196.812C235.117 197.922 235.308 199.118 235.308 200.4C235.308 201.648 235.117 202.827 234.736 203.936C234.355 205.011 233.783 205.964 233.02 206.796C232.292 207.594 231.373 208.235 230.264 208.72C229.155 209.171 227.889 209.396 226.468 209.396ZM221.892 229L245.5 192.184H252.728L229.172 229H221.892ZM226.468 196.76C225.255 196.76 224.405 197.124 223.92 197.852C223.469 198.58 223.244 199.43 223.244 200.4C223.244 201.406 223.469 202.272 223.92 203C224.405 203.694 225.255 204.04 226.468 204.04C227.647 204.04 228.444 203.676 228.86 202.948C229.311 202.22 229.536 201.371 229.536 200.4C229.536 199.43 229.311 198.58 228.86 197.852C228.444 197.124 227.647 196.76 226.468 196.76ZM248.516 229.78C247.06 229.78 245.777 229.538 244.668 229.052C243.593 228.602 242.675 227.978 241.912 227.18C241.149 226.348 240.577 225.395 240.196 224.32C239.815 223.211 239.624 222.032 239.624 220.784C239.624 219.467 239.815 218.254 240.196 217.144C240.577 216.035 241.149 215.082 241.912 214.284C242.675 213.487 243.611 212.863 244.72 212.412C245.829 211.962 247.095 211.736 248.516 211.736C249.972 211.736 251.255 211.962 252.364 212.412C253.473 212.863 254.392 213.487 255.12 214.284C255.883 215.082 256.455 216.035 256.836 217.144C257.252 218.254 257.46 219.467 257.46 220.784C257.46 222.032 257.252 223.211 256.836 224.32C256.455 225.395 255.883 226.348 255.12 227.18C254.392 227.978 253.473 228.602 252.364 229.052C251.255 229.538 249.972 229.78 248.516 229.78ZM248.516 217.092C247.407 217.092 246.592 217.456 246.072 218.184C245.587 218.912 245.344 219.779 245.344 220.784C245.344 221.79 245.569 222.656 246.02 223.384C246.505 224.078 247.337 224.424 248.516 224.424C249.729 224.424 250.544 224.06 250.96 223.332C251.411 222.604 251.636 221.755 251.636 220.784C251.636 219.779 251.411 218.912 250.96 218.184C250.544 217.456 249.729 217.092 248.516 217.092Z" fill="white"/>
</g>
<g clip-path="url(#clip2_1401_75818)">
<circle cx="50" cy="329" r="50" fill="#FF2615"/>
<path d="M29.2116 340H24.5396V323.328H19.9316V320.128C20.6143 320.128 21.2436 320.075 21.8196 319.968C22.417 319.84 22.9716 319.648 23.4836 319.392C23.9316 319.158 24.3583 318.87 24.7636 318.528C25.169 318.166 25.489 317.771 25.7236 317.344H29.2116V340ZM42.6016 317.056C43.903 317.056 45.0976 317.28 46.1856 317.728C47.295 318.176 48.2336 318.88 49.0016 319.84C49.791 320.779 50.399 321.974 50.8256 323.424C51.2736 324.875 51.4976 326.603 51.4976 328.608C51.4976 330.635 51.2843 332.374 50.8576 333.824C50.431 335.275 49.8336 336.47 49.0656 337.408C48.2976 338.347 47.359 339.04 46.2496 339.488C45.1616 339.936 43.9456 340.16 42.6016 340.16C41.2576 340.16 40.031 339.936 38.9216 339.488C37.8336 339.04 36.895 338.347 36.1056 337.408C35.3376 336.47 34.7403 335.275 34.3136 333.824C33.9083 332.374 33.7056 330.635 33.7056 328.608C33.7056 326.603 33.919 324.875 34.3456 323.424C34.7723 321.974 35.3803 320.779 36.1696 319.84C36.959 318.88 37.8976 318.176 38.9856 317.728C40.0736 317.28 41.279 317.056 42.6016 317.056ZM42.6016 336.064C43.967 336.064 45.0336 335.488 45.8016 334.336C46.5696 333.184 46.9536 331.275 46.9536 328.608C46.9536 325.963 46.5696 324.064 45.8016 322.912C45.0336 321.739 43.967 321.152 42.6016 321.152C41.215 321.152 40.1376 321.739 39.3696 322.912C38.623 324.064 38.2496 325.963 38.2496 328.608C38.2496 331.275 38.623 333.184 39.3696 334.336C40.1376 335.488 41.215 336.064 42.6016 336.064ZM59.8986 327.936C59.0026 327.936 58.2133 327.798 57.5306 327.52C56.848 327.222 56.272 326.827 55.8026 326.336C55.3333 325.824 54.9813 325.238 54.7466 324.576C54.512 323.894 54.3946 323.168 54.3946 322.4C54.3946 321.59 54.512 320.854 54.7466 320.192C55.0026 319.51 55.3546 318.923 55.8026 318.432C56.272 317.942 56.848 317.558 57.5306 317.28C58.2133 317.003 59.0026 316.864 59.8986 316.864C60.7733 316.864 61.552 317.003 62.2346 317.28C62.9173 317.558 63.4826 317.942 63.9306 318.432C64.4 318.923 64.752 319.51 64.9866 320.192C65.2213 320.875 65.3386 321.611 65.3386 322.4C65.3386 323.168 65.2213 323.894 64.9866 324.576C64.752 325.238 64.4 325.824 63.9306 326.336C63.4826 326.827 62.9173 327.222 62.2346 327.52C61.552 327.798 60.7733 327.936 59.8986 327.936ZM57.0826 340L71.6106 317.344H76.0586L61.5626 340H57.0826ZM59.8986 320.16C59.152 320.16 58.6293 320.384 58.3306 320.832C58.0533 321.28 57.9146 321.803 57.9146 322.4C57.9146 323.019 58.0533 323.552 58.3306 324C58.6293 324.427 59.152 324.64 59.8986 324.64C60.624 324.64 61.1146 324.416 61.3706 323.968C61.648 323.52 61.7866 322.998 61.7866 322.4C61.7866 321.803 61.648 321.28 61.3706 320.832C61.1146 320.384 60.624 320.16 59.8986 320.16ZM73.4666 340.48C72.5706 340.48 71.7813 340.331 71.0986 340.032C70.4373 339.755 69.872 339.371 69.4026 338.88C68.9333 338.368 68.5813 337.782 68.3466 337.12C68.112 336.438 67.9946 335.712 67.9946 334.944C67.9946 334.134 68.112 333.387 68.3466 332.704C68.5813 332.022 68.9333 331.435 69.4026 330.944C69.872 330.454 70.448 330.07 71.1306 329.792C71.8133 329.515 72.592 329.376 73.4666 329.376C74.3626 329.376 75.152 329.515 75.8346 329.792C76.5173 330.07 77.0826 330.454 77.5306 330.944C78 331.435 78.352 332.022 78.5866 332.704C78.8426 333.387 78.9706 334.134 78.9706 334.944C78.9706 335.712 78.8426 336.438 78.5866 337.12C78.352 337.782 78 338.368 77.5306 338.88C77.0826 339.371 76.5173 339.755 75.8346 340.032C75.152 340.331 74.3626 340.48 73.4666 340.48ZM73.4666 332.672C72.784 332.672 72.2826 332.896 71.9626 333.344C71.664 333.792 71.5146 334.326 71.5146 334.944C71.5146 335.563 71.6533 336.096 71.9306 336.544C72.2293 336.971 72.7413 337.184 73.4666 337.184C74.2133 337.184 74.7146 336.96 74.9706 336.512C75.248 336.064 75.3866 335.542 75.3866 334.944C75.3866 334.326 75.248 333.792 74.9706 333.344C74.7146 332.896 74.2133 332.672 73.4666 332.672Z" fill="white"/>
</g>
<defs>
<filter id="filter0_b_1401_75818" x="41" y="140" width="553.133" height="371.095" filterUnits="userSpaceOnUse" color-interpolation-filters="sRGB">
<feFlood flood-opacity="0" result="BackgroundImageFix"/>
<feGaussianBlur in="BackgroundImageFix" stdDeviation="12"/>
<feComposite in2="SourceAlpha" operator="in" result="effect1_backgroundBlur_1401_75818"/>
<feBlend mode="normal" in="SourceGraphic" in2="effect1_backgroundBlur_1401_75818" result="shape"/>
</filter>
<clipPath id="clip0_1401_75818">
<rect width="200" height="200" fill="white" transform="translate(272 0.000488281)"/>
</clipPath>
<clipPath id="clip1_1401_75818">
<rect width="160" height="160" fill="white" transform="translate(125 132)"/>
</clipPath>
<clipPath id="clip2_1401_75818">
<rect width="100" height="100" fill="white" transform="translate(0 279)"/>
</clipPath>
</defs>
</svg>
