<svg width="48" height="48" viewBox="0 0 48 48" fill="none" xmlns="http://www.w3.org/2000/svg">
<g id="Telegram">
<path id="Vector" d="M36.6517 11.2258L7.75346 22.372C5.78111 23.1633 5.79281 24.2634 7.39396 24.7539L14.6013 27.0035L17.3589 35.4583C17.6942 36.3837 17.5289 36.7507 18.5007 36.7507C19.2506 36.7507 19.5833 36.4088 20.0009 36.0008C20.2666 35.7409 21.8436 34.2077 23.6044 32.4957L31.1013 38.0347C32.4809 38.7958 33.477 38.4016 33.8205 36.7535L38.7417 13.5631C39.2455 11.5431 37.9716 10.6268 36.6517 11.2258ZM15.7324 26.4866L31.9777 16.2374C32.7887 15.7455 33.5322 16.01 32.9217 16.5519L19.0115 29.1025L18.4699 34.8792L15.7324 26.4866Z" fill="#2A2A2A"/>
</g>
</svg>
