<svg width="48" height="48" viewBox="0 0 48 48" fill="none" xmlns="http://www.w3.org/2000/svg">
<g id="WhatsApp">
<path id="Vector" fill-rule="evenodd" clip-rule="evenodd" d="M25.6415 5.91668C30.0991 6.13576 34.2528 7.97395 37.4253 11.1486C40.8093 14.5347 42.6719 19.0358 42.6701 23.8225C42.6661 33.7002 34.6248 41.7372 24.7464 41.7372C21.0316 41.7372 18.0797 40.5958 16.1736 39.5567L6.67188 42.0479L9.21475 32.7644C7.64622 30.0476 6.82087 26.9658 6.82216 23.8082C6.82613 13.9307 14.8668 5.89453 24.7461 5.89453L25.6415 5.91668ZM16.6138 36.3135L17.1579 36.6361C19.4452 37.9928 22.067 38.7106 24.7403 38.7117H24.7463C32.9575 38.7117 39.6405 32.0318 39.6438 23.8214C39.6453 19.8428 38.0972 16.1017 35.2846 13.2872C32.4718 10.4726 28.7314 8.92162 24.7523 8.92033C16.5348 8.92033 9.8517 15.5995 9.84843 23.8093C9.84731 26.6229 10.6349 29.363 12.1262 31.7336L12.4804 32.2971L10.9754 37.7917L16.6138 36.3135ZM33.7762 28.0826C33.6643 27.8957 33.3658 27.7838 32.9179 27.5597C32.4701 27.3356 30.2682 26.2527 29.8577 26.1032C29.4472 25.954 29.1486 25.8794 28.85 26.3274C28.5515 26.7754 27.6933 27.7838 27.4319 28.0826C27.1707 28.3813 26.9095 28.4187 26.4617 28.1946C26.0138 27.9706 24.5708 27.4978 22.8601 25.9728C21.5287 24.7858 20.6299 23.32 20.3686 22.8719C20.1075 22.4238 20.3408 22.1814 20.565 21.9583C20.7665 21.7577 21.0129 21.4355 21.2368 21.1741C21.4608 20.9128 21.5354 20.7259 21.6847 20.4273C21.834 20.1285 21.7593 19.8672 21.6474 19.6431C21.5354 19.4189 20.6397 17.2156 20.2665 16.3193C19.9029 15.4465 19.5337 15.5647 19.2588 15.5509C18.9979 15.538 18.6991 15.5351 18.4005 15.5351C18.1019 15.5351 17.6167 15.6471 17.2062 16.0953C16.7957 16.5434 15.6387 17.6264 15.6387 19.8296C15.6387 22.033 17.2436 24.1614 17.4675 24.4602C17.6914 24.7591 20.6255 29.2802 25.1181 31.2194C26.1866 31.6806 27.0209 31.956 27.6713 32.1623C28.7442 32.503 29.7204 32.455 30.4921 32.3397C31.3526 32.2112 33.1418 31.2568 33.515 30.2113C33.8882 29.1654 33.8882 28.2692 33.7762 28.0826Z" fill="#2A2A2A"/>
</g>
</svg>
